%TF.GenerationSoftware,KiCad,Pcbnew,7.0.5*%
%TF.CreationDate,2023-08-09T22:54:17+08:00*%
%TF.ProjectId,taiko_vibrator,7461696b-6f5f-4766-9962-7261746f722e,rev?*%
%TF.SameCoordinates,PX4524320PY42c1d80*%
%TF.FileFunction,Soldermask,Top*%
%TF.FilePolarity,Negative*%
%FSLAX46Y46*%
G04 Gerber Fmt 4.6, Leading zero omitted, Abs format (unit mm)*
G04 Created by KiCad (PCBNEW 7.0.5) date 2023-08-09 22:54:17*
%MOMM*%
%LPD*%
G01*
G04 APERTURE LIST*
G04 Aperture macros list*
%AMRoundRect*
0 Rectangle with rounded corners*
0 $1 Rounding radius*
0 $2 $3 $4 $5 $6 $7 $8 $9 X,Y pos of 4 corners*
0 Add a 4 corners polygon primitive as box body*
4,1,4,$2,$3,$4,$5,$6,$7,$8,$9,$2,$3,0*
0 Add four circle primitives for the rounded corners*
1,1,$1+$1,$2,$3*
1,1,$1+$1,$4,$5*
1,1,$1+$1,$6,$7*
1,1,$1+$1,$8,$9*
0 Add four rect primitives between the rounded corners*
20,1,$1+$1,$2,$3,$4,$5,0*
20,1,$1+$1,$4,$5,$6,$7,0*
20,1,$1+$1,$6,$7,$8,$9,0*
20,1,$1+$1,$8,$9,$2,$3,0*%
G04 Aperture macros list end*
%ADD10R,1.600000X1.600000*%
%ADD11O,1.600000X1.600000*%
%ADD12R,2.200000X2.200000*%
%ADD13O,2.200000X2.200000*%
%ADD14C,2.700000*%
%ADD15R,1.700000X1.700000*%
%ADD16O,1.700000X1.700000*%
%ADD17R,2.600000X2.600000*%
%ADD18C,2.600000*%
%ADD19C,1.000000*%
%ADD20RoundRect,0.150000X-0.587500X-0.150000X0.587500X-0.150000X0.587500X0.150000X-0.587500X0.150000X0*%
%ADD21R,1.200000X1.200000*%
%ADD22C,1.200000*%
%ADD23C,1.600000*%
%ADD24R,1.100000X1.100000*%
%ADD25C,1.100000*%
%ADD26O,1.100000X2.400000*%
G04 APERTURE END LIST*
D10*
%TO.C,D3*%
X5500000Y-21310000D03*
D11*
X5500000Y-13690000D03*
%TD*%
D12*
%TO.C,D1*%
X6920000Y14000000D03*
D13*
X17080000Y14000000D03*
%TD*%
D14*
%TO.C,REF\u002A\u002A*%
X22000000Y27000000D03*
%TD*%
D10*
%TO.C,A1*%
X-20110000Y19050000D03*
D11*
X-20110000Y16510000D03*
X-20110000Y13970000D03*
X-20110000Y11430000D03*
X-20110000Y8890000D03*
X-20110000Y6350000D03*
X-20110000Y3810000D03*
X-20110000Y1270000D03*
X-20110000Y-1270000D03*
X-20110000Y-3810000D03*
X-20110000Y-6350000D03*
X-20110000Y-8890000D03*
X-20110000Y-11430000D03*
X-20110000Y-13970000D03*
X-20110000Y-16510000D03*
X-4870000Y-16510000D03*
X-4870000Y-13970000D03*
X-4870000Y-11430000D03*
X-4870000Y-8890000D03*
X-4870000Y-6350000D03*
X-4870000Y-3810000D03*
X-4870000Y-1270000D03*
X-4870000Y1270000D03*
X-4870000Y3810000D03*
X-4870000Y6350000D03*
X-4870000Y8890000D03*
X-4870000Y11430000D03*
X-4870000Y13970000D03*
X-4870000Y16510000D03*
X-4870000Y19050000D03*
%TD*%
D10*
%TO.C,D2*%
X5500000Y-3810000D03*
D11*
X5500000Y3810000D03*
%TD*%
D14*
%TO.C,REF\u002A\u002A*%
X22000000Y-27000000D03*
%TD*%
D15*
%TO.C,J4*%
X-12500000Y28040000D03*
D16*
X-12500000Y25500000D03*
%TD*%
D17*
%TO.C,J3*%
X14500000Y-20000000D03*
D18*
X14500000Y-15000000D03*
%TD*%
D19*
%TO.C,*%
X-4870000Y21590000D03*
%TD*%
D20*
%TO.C,Q1*%
X-937500Y950000D03*
X-937500Y-950000D03*
X937500Y0D03*
%TD*%
%TO.C,Q2*%
X-937500Y-16550000D03*
X-937500Y-18450000D03*
X937500Y-17500000D03*
%TD*%
D19*
%TO.C,*%
X-20110000Y21590000D03*
%TD*%
D17*
%TO.C,J2*%
X14500000Y-2500000D03*
D18*
X14500000Y2500000D03*
%TD*%
D21*
%TO.C,C1*%
X2222599Y20000000D03*
D22*
X722599Y20000000D03*
%TD*%
D23*
%TO.C,R2*%
X420000Y-9000000D03*
D11*
X10580000Y-9000000D03*
%TD*%
D14*
%TO.C,REF\u002A\u002A*%
X-22000000Y27000000D03*
%TD*%
D24*
%TO.C,J1*%
X10400000Y19175000D03*
D25*
X11200000Y20925000D03*
X12000000Y19175000D03*
X12800000Y20925000D03*
X13600000Y19175000D03*
D26*
X8350000Y20050000D03*
X15650000Y20050000D03*
%TD*%
D14*
%TO.C,REF\u002A\u002A*%
X-22000000Y-27000000D03*
%TD*%
D23*
%TO.C,R1*%
X420000Y8500000D03*
D11*
X10580000Y8500000D03*
%TD*%
M02*
