%TF.GenerationSoftware,KiCad,Pcbnew,7.0.5*%
%TF.CreationDate,2023-08-09T22:54:27+08:00*%
%TF.ProjectId,taiko_vibrator,7461696b-6f5f-4766-9962-7261746f722e,rev?*%
%TF.SameCoordinates,PX4524320PY42c1d80*%
%TF.FileFunction,Drillmap*%
%TF.FilePolarity,Positive*%
%FSLAX45Y45*%
G04 Gerber Fmt 4.5, Leading zero omitted, Abs format (unit mm)*
G04 Created by KiCad (PCBNEW 7.0.5) date 2023-08-09 22:54:27*
%MOMM*%
%LPD*%
G01*
G04 APERTURE LIST*
%ADD10C,0.100000*%
%ADD11C,0.200000*%
%ADD12C,0.040000*%
%ADD13C,0.060000*%
%ADD14C,0.070000*%
%ADD15C,0.080000*%
%ADD16C,0.110000*%
%ADD17C,0.130000*%
G04 APERTURE END LIST*
D10*
X2200000Y-3000000D02*
G75*
G03*
X2500000Y-2700000I0J300000D01*
G01*
X-2500000Y-2700000D02*
X-2500000Y2700000D01*
X2500000Y2700000D02*
G75*
G03*
X2200000Y3000000I-300000J0D01*
G01*
X2200000Y-3000000D02*
X-2200000Y-3000000D01*
X-2200000Y3000000D02*
G75*
G03*
X-2500000Y2700000I0J-300000D01*
G01*
X-2500000Y-2700000D02*
G75*
G03*
X-2200000Y-3000000I300000J0D01*
G01*
X-2200000Y3000000D02*
X2200000Y3000000D01*
X2500000Y2700000D02*
X2500000Y-2700000D01*
D11*
D12*
X-120000Y-230000D02*
X-80000Y-270000D01*
X-80000Y-230000D02*
X-120000Y-270000D01*
X-120000Y-1980000D02*
X-80000Y-2020000D01*
X-80000Y-1980000D02*
X-120000Y-2020000D01*
D13*
X102260Y2000000D02*
G75*
G03*
X102260Y2000000I-30000J0D01*
G01*
X252260Y2000000D02*
G75*
G03*
X252260Y2000000I-30000J0D01*
G01*
D14*
X835000Y2040000D02*
X835000Y1970000D01*
X800000Y2005000D02*
X870000Y2005000D01*
D11*
X800000Y2070000D02*
X800000Y1940000D01*
X800000Y1940000D02*
G75*
G03*
X870000Y1940000I35000J0D01*
G01*
X870000Y1940000D02*
X870000Y2070000D01*
X870000Y2070000D02*
G75*
G03*
X800000Y2070000I-35000J0D01*
G01*
D14*
X1040000Y1952500D02*
X1040000Y1882500D01*
X1005000Y1917500D02*
X1075000Y1917500D01*
X1120000Y2127500D02*
X1120000Y2057500D01*
X1085000Y2092500D02*
X1155000Y2092500D01*
X1200000Y1952500D02*
X1200000Y1882500D01*
X1165000Y1917500D02*
X1235000Y1917500D01*
X1280000Y2127500D02*
X1280000Y2057500D01*
X1245000Y2092500D02*
X1315000Y2092500D01*
X1360000Y1952500D02*
X1360000Y1882500D01*
X1325000Y1917500D02*
X1395000Y1917500D01*
X1565000Y2040000D02*
X1565000Y1970000D01*
X1530000Y2005000D02*
X1600000Y2005000D01*
D11*
X1530000Y2070000D02*
X1530000Y1940000D01*
X1530000Y1940000D02*
G75*
G03*
X1600000Y1940000I35000J0D01*
G01*
X1600000Y1940000D02*
X1600000Y2070000D01*
X1600000Y2070000D02*
G75*
G03*
X1530000Y2070000I-35000J0D01*
G01*
D15*
X70285Y821715D02*
X70285Y878284D01*
X13715Y878284D01*
X13715Y821715D01*
X70285Y821715D01*
X70285Y-928284D02*
X70285Y-871715D01*
X13715Y-871715D01*
X13715Y-928284D01*
X70285Y-928284D01*
X578285Y352715D02*
X578285Y409284D01*
X521715Y409284D01*
X521715Y352715D01*
X578285Y352715D01*
X578285Y-409284D02*
X578285Y-352715D01*
X521715Y-352715D01*
X521715Y-409284D01*
X578285Y-409284D01*
X578285Y-1397285D02*
X578285Y-1340716D01*
X521715Y-1340716D01*
X521715Y-1397285D01*
X578285Y-1397285D01*
X578285Y-2159285D02*
X578285Y-2102716D01*
X521715Y-2102716D01*
X521715Y-2159285D01*
X578285Y-2159285D01*
X1086285Y821715D02*
X1086285Y878284D01*
X1029715Y878284D01*
X1029715Y821715D01*
X1086285Y821715D01*
X1086285Y-928284D02*
X1086285Y-871715D01*
X1029715Y-871715D01*
X1029715Y-928284D01*
X1086285Y-928284D01*
D10*
X-2011000Y1855000D02*
X-1961000Y1905000D01*
X-2011000Y1955000D01*
X-2061000Y1905000D01*
X-2011000Y1855000D01*
X-2011000Y1601000D02*
X-1961000Y1651000D01*
X-2011000Y1701000D01*
X-2061000Y1651000D01*
X-2011000Y1601000D01*
X-2011000Y1347000D02*
X-1961000Y1397000D01*
X-2011000Y1447000D01*
X-2061000Y1397000D01*
X-2011000Y1347000D01*
X-2011000Y1093000D02*
X-1961000Y1143000D01*
X-2011000Y1193000D01*
X-2061000Y1143000D01*
X-2011000Y1093000D01*
X-2011000Y839000D02*
X-1961000Y889000D01*
X-2011000Y939000D01*
X-2061000Y889000D01*
X-2011000Y839000D01*
X-2011000Y585000D02*
X-1961000Y635000D01*
X-2011000Y685000D01*
X-2061000Y635000D01*
X-2011000Y585000D01*
X-2011000Y331000D02*
X-1961000Y381000D01*
X-2011000Y431000D01*
X-2061000Y381000D01*
X-2011000Y331000D01*
X-2011000Y77000D02*
X-1961000Y127000D01*
X-2011000Y177000D01*
X-2061000Y127000D01*
X-2011000Y77000D01*
X-2011000Y-177000D02*
X-1961000Y-127000D01*
X-2011000Y-77000D01*
X-2061000Y-127000D01*
X-2011000Y-177000D01*
X-2011000Y-431000D02*
X-1961000Y-381000D01*
X-2011000Y-331000D01*
X-2061000Y-381000D01*
X-2011000Y-431000D01*
X-2011000Y-685000D02*
X-1961000Y-635000D01*
X-2011000Y-585000D01*
X-2061000Y-635000D01*
X-2011000Y-685000D01*
X-2011000Y-939000D02*
X-1961000Y-889000D01*
X-2011000Y-839000D01*
X-2061000Y-889000D01*
X-2011000Y-939000D01*
X-2011000Y-1193000D02*
X-1961000Y-1143000D01*
X-2011000Y-1093000D01*
X-2061000Y-1143000D01*
X-2011000Y-1193000D01*
X-2011000Y-1447000D02*
X-1961000Y-1397000D01*
X-2011000Y-1347000D01*
X-2061000Y-1397000D01*
X-2011000Y-1447000D01*
X-2011000Y-1701000D02*
X-1961000Y-1651000D01*
X-2011000Y-1601000D01*
X-2061000Y-1651000D01*
X-2011000Y-1701000D01*
X-1250000Y2754000D02*
X-1200000Y2804000D01*
X-1250000Y2854000D01*
X-1300000Y2804000D01*
X-1250000Y2754000D01*
X-1250000Y2500000D02*
X-1200000Y2550000D01*
X-1250000Y2600000D01*
X-1300000Y2550000D01*
X-1250000Y2500000D01*
X-487000Y1855000D02*
X-437000Y1905000D01*
X-487000Y1955000D01*
X-537000Y1905000D01*
X-487000Y1855000D01*
X-487000Y1601000D02*
X-437000Y1651000D01*
X-487000Y1701000D01*
X-537000Y1651000D01*
X-487000Y1601000D01*
X-487000Y1347000D02*
X-437000Y1397000D01*
X-487000Y1447000D01*
X-537000Y1397000D01*
X-487000Y1347000D01*
X-487000Y1093000D02*
X-437000Y1143000D01*
X-487000Y1193000D01*
X-537000Y1143000D01*
X-487000Y1093000D01*
X-487000Y839000D02*
X-437000Y889000D01*
X-487000Y939000D01*
X-537000Y889000D01*
X-487000Y839000D01*
X-487000Y585000D02*
X-437000Y635000D01*
X-487000Y685000D01*
X-537000Y635000D01*
X-487000Y585000D01*
X-487000Y331000D02*
X-437000Y381000D01*
X-487000Y431000D01*
X-537000Y381000D01*
X-487000Y331000D01*
X-487000Y77000D02*
X-437000Y127000D01*
X-487000Y177000D01*
X-537000Y127000D01*
X-487000Y77000D01*
X-487000Y-177000D02*
X-437000Y-127000D01*
X-487000Y-77000D01*
X-537000Y-127000D01*
X-487000Y-177000D01*
X-487000Y-431000D02*
X-437000Y-381000D01*
X-487000Y-331000D01*
X-537000Y-381000D01*
X-487000Y-431000D01*
X-487000Y-685000D02*
X-437000Y-635000D01*
X-487000Y-585000D01*
X-537000Y-635000D01*
X-487000Y-685000D01*
X-487000Y-939000D02*
X-437000Y-889000D01*
X-487000Y-839000D01*
X-537000Y-889000D01*
X-487000Y-939000D01*
X-487000Y-1193000D02*
X-437000Y-1143000D01*
X-487000Y-1093000D01*
X-537000Y-1143000D01*
X-487000Y-1193000D01*
X-487000Y-1447000D02*
X-437000Y-1397000D01*
X-487000Y-1347000D01*
X-537000Y-1397000D01*
X-487000Y-1447000D01*
X-487000Y-1701000D02*
X-437000Y-1651000D01*
X-487000Y-1601000D01*
X-537000Y-1651000D01*
X-487000Y-1701000D01*
D16*
X637000Y1455000D02*
X747000Y1345000D01*
X747000Y1455000D02*
X637000Y1345000D01*
X747000Y1400000D02*
G75*
G03*
X747000Y1400000I-55000J0D01*
G01*
X1653000Y1455000D02*
X1763000Y1345000D01*
X1763000Y1455000D02*
X1653000Y1345000D01*
X1763000Y1400000D02*
G75*
G03*
X1763000Y1400000I-55000J0D01*
G01*
D17*
X1385000Y315000D02*
X1515000Y185000D01*
X1515000Y315000D02*
X1385000Y185000D01*
X1450000Y315000D02*
X1450000Y185000D01*
X1385000Y250000D02*
X1515000Y250000D01*
X1385000Y-185000D02*
X1515000Y-315000D01*
X1515000Y-185000D02*
X1385000Y-315000D01*
X1450000Y-185000D02*
X1450000Y-315000D01*
X1385000Y-250000D02*
X1515000Y-250000D01*
X1385000Y-1435000D02*
X1515000Y-1565000D01*
X1515000Y-1435000D02*
X1385000Y-1565000D01*
X1450000Y-1435000D02*
X1450000Y-1565000D01*
X1385000Y-1500000D02*
X1515000Y-1500000D01*
X1385000Y-1935000D02*
X1515000Y-2065000D01*
X1515000Y-1935000D02*
X1385000Y-2065000D01*
X1450000Y-1935000D02*
X1450000Y-2065000D01*
X1385000Y-2000000D02*
X1515000Y-2000000D01*
D11*
X-2244223Y-3316484D02*
X-2244223Y-3116484D01*
X-2244223Y-3116484D02*
X-2196604Y-3116484D01*
X-2196604Y-3116484D02*
X-2168033Y-3126008D01*
X-2168033Y-3126008D02*
X-2148985Y-3145055D01*
X-2148985Y-3145055D02*
X-2139461Y-3164103D01*
X-2139461Y-3164103D02*
X-2129938Y-3202198D01*
X-2129938Y-3202198D02*
X-2129938Y-3230769D01*
X-2129938Y-3230769D02*
X-2139461Y-3268865D01*
X-2139461Y-3268865D02*
X-2148985Y-3287912D01*
X-2148985Y-3287912D02*
X-2168033Y-3306960D01*
X-2168033Y-3306960D02*
X-2196604Y-3316484D01*
X-2196604Y-3316484D02*
X-2244223Y-3316484D01*
X-2044223Y-3316484D02*
X-2044223Y-3183150D01*
X-2044223Y-3221246D02*
X-2034699Y-3202198D01*
X-2034699Y-3202198D02*
X-2025176Y-3192674D01*
X-2025176Y-3192674D02*
X-2006128Y-3183150D01*
X-2006128Y-3183150D02*
X-1987080Y-3183150D01*
X-1920414Y-3316484D02*
X-1920414Y-3183150D01*
X-1920414Y-3116484D02*
X-1929937Y-3126008D01*
X-1929937Y-3126008D02*
X-1920414Y-3135531D01*
X-1920414Y-3135531D02*
X-1910890Y-3126008D01*
X-1910890Y-3126008D02*
X-1920414Y-3116484D01*
X-1920414Y-3116484D02*
X-1920414Y-3135531D01*
X-1796604Y-3316484D02*
X-1815652Y-3306960D01*
X-1815652Y-3306960D02*
X-1825176Y-3287912D01*
X-1825176Y-3287912D02*
X-1825176Y-3116484D01*
X-1691842Y-3316484D02*
X-1710890Y-3306960D01*
X-1710890Y-3306960D02*
X-1720414Y-3287912D01*
X-1720414Y-3287912D02*
X-1720414Y-3116484D01*
X-1463271Y-3316484D02*
X-1463271Y-3116484D01*
X-1463271Y-3116484D02*
X-1396604Y-3259341D01*
X-1396604Y-3259341D02*
X-1329938Y-3116484D01*
X-1329938Y-3116484D02*
X-1329938Y-3316484D01*
X-1148985Y-3316484D02*
X-1148985Y-3211722D01*
X-1148985Y-3211722D02*
X-1158509Y-3192674D01*
X-1158509Y-3192674D02*
X-1177557Y-3183150D01*
X-1177557Y-3183150D02*
X-1215652Y-3183150D01*
X-1215652Y-3183150D02*
X-1234699Y-3192674D01*
X-1148985Y-3306960D02*
X-1168033Y-3316484D01*
X-1168033Y-3316484D02*
X-1215652Y-3316484D01*
X-1215652Y-3316484D02*
X-1234699Y-3306960D01*
X-1234699Y-3306960D02*
X-1244223Y-3287912D01*
X-1244223Y-3287912D02*
X-1244223Y-3268865D01*
X-1244223Y-3268865D02*
X-1234699Y-3249817D01*
X-1234699Y-3249817D02*
X-1215652Y-3240293D01*
X-1215652Y-3240293D02*
X-1168033Y-3240293D01*
X-1168033Y-3240293D02*
X-1148985Y-3230769D01*
X-1053747Y-3183150D02*
X-1053747Y-3383150D01*
X-1053747Y-3192674D02*
X-1034699Y-3183150D01*
X-1034699Y-3183150D02*
X-996604Y-3183150D01*
X-996604Y-3183150D02*
X-977556Y-3192674D01*
X-977556Y-3192674D02*
X-968033Y-3202198D01*
X-968033Y-3202198D02*
X-958509Y-3221246D01*
X-958509Y-3221246D02*
X-958509Y-3278388D01*
X-958509Y-3278388D02*
X-968033Y-3297436D01*
X-968033Y-3297436D02*
X-977556Y-3306960D01*
X-977556Y-3306960D02*
X-996604Y-3316484D01*
X-996604Y-3316484D02*
X-1034699Y-3316484D01*
X-1034699Y-3316484D02*
X-1053747Y-3306960D01*
X-872795Y-3297436D02*
X-863271Y-3306960D01*
X-863271Y-3306960D02*
X-872795Y-3316484D01*
X-872795Y-3316484D02*
X-882318Y-3306960D01*
X-882318Y-3306960D02*
X-872795Y-3297436D01*
X-872795Y-3297436D02*
X-872795Y-3316484D01*
X-872795Y-3192674D02*
X-863271Y-3202198D01*
X-863271Y-3202198D02*
X-872795Y-3211722D01*
X-872795Y-3211722D02*
X-882318Y-3202198D01*
X-882318Y-3202198D02*
X-872795Y-3192674D01*
X-872795Y-3192674D02*
X-872795Y-3211722D01*
D12*
X-2545000Y-3625000D02*
X-2505000Y-3665000D01*
X-2505000Y-3625000D02*
X-2545000Y-3665000D01*
D11*
X-2206128Y-3536484D02*
X-2187080Y-3536484D01*
X-2187080Y-3536484D02*
X-2168033Y-3546008D01*
X-2168033Y-3546008D02*
X-2158509Y-3555531D01*
X-2158509Y-3555531D02*
X-2148985Y-3574579D01*
X-2148985Y-3574579D02*
X-2139461Y-3612674D01*
X-2139461Y-3612674D02*
X-2139461Y-3660293D01*
X-2139461Y-3660293D02*
X-2148985Y-3698388D01*
X-2148985Y-3698388D02*
X-2158509Y-3717436D01*
X-2158509Y-3717436D02*
X-2168033Y-3726960D01*
X-2168033Y-3726960D02*
X-2187080Y-3736484D01*
X-2187080Y-3736484D02*
X-2206128Y-3736484D01*
X-2206128Y-3736484D02*
X-2225176Y-3726960D01*
X-2225176Y-3726960D02*
X-2234699Y-3717436D01*
X-2234699Y-3717436D02*
X-2244223Y-3698388D01*
X-2244223Y-3698388D02*
X-2253747Y-3660293D01*
X-2253747Y-3660293D02*
X-2253747Y-3612674D01*
X-2253747Y-3612674D02*
X-2244223Y-3574579D01*
X-2244223Y-3574579D02*
X-2234699Y-3555531D01*
X-2234699Y-3555531D02*
X-2225176Y-3546008D01*
X-2225176Y-3546008D02*
X-2206128Y-3536484D01*
X-2053747Y-3717436D02*
X-2044223Y-3726960D01*
X-2044223Y-3726960D02*
X-2053747Y-3736484D01*
X-2053747Y-3736484D02*
X-2063271Y-3726960D01*
X-2063271Y-3726960D02*
X-2053747Y-3717436D01*
X-2053747Y-3717436D02*
X-2053747Y-3736484D01*
X-1872795Y-3603150D02*
X-1872795Y-3736484D01*
X-1920414Y-3526960D02*
X-1968033Y-3669817D01*
X-1968033Y-3669817D02*
X-1844223Y-3669817D01*
X-1729937Y-3536484D02*
X-1710890Y-3536484D01*
X-1710890Y-3536484D02*
X-1691842Y-3546008D01*
X-1691842Y-3546008D02*
X-1682318Y-3555531D01*
X-1682318Y-3555531D02*
X-1672795Y-3574579D01*
X-1672795Y-3574579D02*
X-1663271Y-3612674D01*
X-1663271Y-3612674D02*
X-1663271Y-3660293D01*
X-1663271Y-3660293D02*
X-1672795Y-3698388D01*
X-1672795Y-3698388D02*
X-1682318Y-3717436D01*
X-1682318Y-3717436D02*
X-1691842Y-3726960D01*
X-1691842Y-3726960D02*
X-1710890Y-3736484D01*
X-1710890Y-3736484D02*
X-1729937Y-3736484D01*
X-1729937Y-3736484D02*
X-1748985Y-3726960D01*
X-1748985Y-3726960D02*
X-1758509Y-3717436D01*
X-1758509Y-3717436D02*
X-1768033Y-3698388D01*
X-1768033Y-3698388D02*
X-1777556Y-3660293D01*
X-1777556Y-3660293D02*
X-1777556Y-3612674D01*
X-1777556Y-3612674D02*
X-1768033Y-3574579D01*
X-1768033Y-3574579D02*
X-1758509Y-3555531D01*
X-1758509Y-3555531D02*
X-1748985Y-3546008D01*
X-1748985Y-3546008D02*
X-1729937Y-3536484D01*
X-1539461Y-3536484D02*
X-1520414Y-3536484D01*
X-1520414Y-3536484D02*
X-1501366Y-3546008D01*
X-1501366Y-3546008D02*
X-1491842Y-3555531D01*
X-1491842Y-3555531D02*
X-1482318Y-3574579D01*
X-1482318Y-3574579D02*
X-1472795Y-3612674D01*
X-1472795Y-3612674D02*
X-1472795Y-3660293D01*
X-1472795Y-3660293D02*
X-1482318Y-3698388D01*
X-1482318Y-3698388D02*
X-1491842Y-3717436D01*
X-1491842Y-3717436D02*
X-1501366Y-3726960D01*
X-1501366Y-3726960D02*
X-1520414Y-3736484D01*
X-1520414Y-3736484D02*
X-1539461Y-3736484D01*
X-1539461Y-3736484D02*
X-1558509Y-3726960D01*
X-1558509Y-3726960D02*
X-1568033Y-3717436D01*
X-1568033Y-3717436D02*
X-1577556Y-3698388D01*
X-1577556Y-3698388D02*
X-1587080Y-3660293D01*
X-1587080Y-3660293D02*
X-1587080Y-3612674D01*
X-1587080Y-3612674D02*
X-1577556Y-3574579D01*
X-1577556Y-3574579D02*
X-1568033Y-3555531D01*
X-1568033Y-3555531D02*
X-1558509Y-3546008D01*
X-1558509Y-3546008D02*
X-1539461Y-3536484D01*
X-1387080Y-3736484D02*
X-1387080Y-3603150D01*
X-1387080Y-3622198D02*
X-1377557Y-3612674D01*
X-1377557Y-3612674D02*
X-1358509Y-3603150D01*
X-1358509Y-3603150D02*
X-1329937Y-3603150D01*
X-1329937Y-3603150D02*
X-1310890Y-3612674D01*
X-1310890Y-3612674D02*
X-1301366Y-3631722D01*
X-1301366Y-3631722D02*
X-1301366Y-3736484D01*
X-1301366Y-3631722D02*
X-1291842Y-3612674D01*
X-1291842Y-3612674D02*
X-1272795Y-3603150D01*
X-1272795Y-3603150D02*
X-1244223Y-3603150D01*
X-1244223Y-3603150D02*
X-1225176Y-3612674D01*
X-1225176Y-3612674D02*
X-1215652Y-3631722D01*
X-1215652Y-3631722D02*
X-1215652Y-3736484D01*
X-1120414Y-3736484D02*
X-1120414Y-3603150D01*
X-1120414Y-3622198D02*
X-1110890Y-3612674D01*
X-1110890Y-3612674D02*
X-1091842Y-3603150D01*
X-1091842Y-3603150D02*
X-1063271Y-3603150D01*
X-1063271Y-3603150D02*
X-1044223Y-3612674D01*
X-1044223Y-3612674D02*
X-1034699Y-3631722D01*
X-1034699Y-3631722D02*
X-1034699Y-3736484D01*
X-1034699Y-3631722D02*
X-1025175Y-3612674D01*
X-1025175Y-3612674D02*
X-1006128Y-3603150D01*
X-1006128Y-3603150D02*
X-977556Y-3603150D01*
X-977556Y-3603150D02*
X-958509Y-3612674D01*
X-958509Y-3612674D02*
X-948985Y-3631722D01*
X-948985Y-3631722D02*
X-948985Y-3736484D01*
X-558509Y-3526960D02*
X-729937Y-3784103D01*
X-301366Y-3536484D02*
X-282318Y-3536484D01*
X-282318Y-3536484D02*
X-263271Y-3546008D01*
X-263271Y-3546008D02*
X-253747Y-3555531D01*
X-253747Y-3555531D02*
X-244223Y-3574579D01*
X-244223Y-3574579D02*
X-234699Y-3612674D01*
X-234699Y-3612674D02*
X-234699Y-3660293D01*
X-234699Y-3660293D02*
X-244223Y-3698388D01*
X-244223Y-3698388D02*
X-253747Y-3717436D01*
X-253747Y-3717436D02*
X-263271Y-3726960D01*
X-263271Y-3726960D02*
X-282318Y-3736484D01*
X-282318Y-3736484D02*
X-301366Y-3736484D01*
X-301366Y-3736484D02*
X-320414Y-3726960D01*
X-320414Y-3726960D02*
X-329937Y-3717436D01*
X-329937Y-3717436D02*
X-339461Y-3698388D01*
X-339461Y-3698388D02*
X-348985Y-3660293D01*
X-348985Y-3660293D02*
X-348985Y-3612674D01*
X-348985Y-3612674D02*
X-339461Y-3574579D01*
X-339461Y-3574579D02*
X-329937Y-3555531D01*
X-329937Y-3555531D02*
X-320414Y-3546008D01*
X-320414Y-3546008D02*
X-301366Y-3536484D01*
X-148985Y-3717436D02*
X-139461Y-3726960D01*
X-139461Y-3726960D02*
X-148985Y-3736484D01*
X-148985Y-3736484D02*
X-158509Y-3726960D01*
X-158509Y-3726960D02*
X-148985Y-3717436D01*
X-148985Y-3717436D02*
X-148985Y-3736484D01*
X-15652Y-3536484D02*
X3396Y-3536484D01*
X3396Y-3536484D02*
X22444Y-3546008D01*
X22444Y-3546008D02*
X31967Y-3555531D01*
X31967Y-3555531D02*
X41491Y-3574579D01*
X41491Y-3574579D02*
X51015Y-3612674D01*
X51015Y-3612674D02*
X51015Y-3660293D01*
X51015Y-3660293D02*
X41491Y-3698388D01*
X41491Y-3698388D02*
X31967Y-3717436D01*
X31967Y-3717436D02*
X22444Y-3726960D01*
X22444Y-3726960D02*
X3396Y-3736484D01*
X3396Y-3736484D02*
X-15652Y-3736484D01*
X-15652Y-3736484D02*
X-34699Y-3726960D01*
X-34699Y-3726960D02*
X-44223Y-3717436D01*
X-44223Y-3717436D02*
X-53747Y-3698388D01*
X-53747Y-3698388D02*
X-63271Y-3660293D01*
X-63271Y-3660293D02*
X-63271Y-3612674D01*
X-63271Y-3612674D02*
X-53747Y-3574579D01*
X-53747Y-3574579D02*
X-44223Y-3555531D01*
X-44223Y-3555531D02*
X-34699Y-3546008D01*
X-34699Y-3546008D02*
X-15652Y-3536484D01*
X241491Y-3736484D02*
X127206Y-3736484D01*
X184348Y-3736484D02*
X184348Y-3536484D01*
X184348Y-3536484D02*
X165301Y-3565055D01*
X165301Y-3565055D02*
X146253Y-3584103D01*
X146253Y-3584103D02*
X127206Y-3593627D01*
X422444Y-3536484D02*
X327206Y-3536484D01*
X327206Y-3536484D02*
X317682Y-3631722D01*
X317682Y-3631722D02*
X327206Y-3622198D01*
X327206Y-3622198D02*
X346253Y-3612674D01*
X346253Y-3612674D02*
X393872Y-3612674D01*
X393872Y-3612674D02*
X412920Y-3622198D01*
X412920Y-3622198D02*
X422444Y-3631722D01*
X422444Y-3631722D02*
X431967Y-3650769D01*
X431967Y-3650769D02*
X431967Y-3698388D01*
X431967Y-3698388D02*
X422444Y-3717436D01*
X422444Y-3717436D02*
X412920Y-3726960D01*
X412920Y-3726960D02*
X393872Y-3736484D01*
X393872Y-3736484D02*
X346253Y-3736484D01*
X346253Y-3736484D02*
X327206Y-3726960D01*
X327206Y-3726960D02*
X317682Y-3717436D01*
X498634Y-3536484D02*
X631968Y-3536484D01*
X631968Y-3536484D02*
X546253Y-3736484D01*
X698634Y-3536484D02*
X698634Y-3574579D01*
X774825Y-3536484D02*
X774825Y-3574579D01*
X1070063Y-3812674D02*
X1060539Y-3803150D01*
X1060539Y-3803150D02*
X1041491Y-3774579D01*
X1041491Y-3774579D02*
X1031968Y-3755531D01*
X1031968Y-3755531D02*
X1022444Y-3726960D01*
X1022444Y-3726960D02*
X1012920Y-3679341D01*
X1012920Y-3679341D02*
X1012920Y-3641246D01*
X1012920Y-3641246D02*
X1022444Y-3593627D01*
X1022444Y-3593627D02*
X1031968Y-3565055D01*
X1031968Y-3565055D02*
X1041491Y-3546008D01*
X1041491Y-3546008D02*
X1060539Y-3517436D01*
X1060539Y-3517436D02*
X1070063Y-3507912D01*
X1136730Y-3555531D02*
X1146253Y-3546008D01*
X1146253Y-3546008D02*
X1165301Y-3536484D01*
X1165301Y-3536484D02*
X1212920Y-3536484D01*
X1212920Y-3536484D02*
X1231968Y-3546008D01*
X1231968Y-3546008D02*
X1241491Y-3555531D01*
X1241491Y-3555531D02*
X1251015Y-3574579D01*
X1251015Y-3574579D02*
X1251015Y-3593627D01*
X1251015Y-3593627D02*
X1241491Y-3622198D01*
X1241491Y-3622198D02*
X1127206Y-3736484D01*
X1127206Y-3736484D02*
X1251015Y-3736484D01*
X1489110Y-3736484D02*
X1489110Y-3536484D01*
X1574825Y-3736484D02*
X1574825Y-3631722D01*
X1574825Y-3631722D02*
X1565301Y-3612674D01*
X1565301Y-3612674D02*
X1546253Y-3603150D01*
X1546253Y-3603150D02*
X1517682Y-3603150D01*
X1517682Y-3603150D02*
X1498634Y-3612674D01*
X1498634Y-3612674D02*
X1489110Y-3622198D01*
X1698634Y-3736484D02*
X1679587Y-3726960D01*
X1679587Y-3726960D02*
X1670063Y-3717436D01*
X1670063Y-3717436D02*
X1660539Y-3698388D01*
X1660539Y-3698388D02*
X1660539Y-3641246D01*
X1660539Y-3641246D02*
X1670063Y-3622198D01*
X1670063Y-3622198D02*
X1679587Y-3612674D01*
X1679587Y-3612674D02*
X1698634Y-3603150D01*
X1698634Y-3603150D02*
X1727206Y-3603150D01*
X1727206Y-3603150D02*
X1746253Y-3612674D01*
X1746253Y-3612674D02*
X1755777Y-3622198D01*
X1755777Y-3622198D02*
X1765301Y-3641246D01*
X1765301Y-3641246D02*
X1765301Y-3698388D01*
X1765301Y-3698388D02*
X1755777Y-3717436D01*
X1755777Y-3717436D02*
X1746253Y-3726960D01*
X1746253Y-3726960D02*
X1727206Y-3736484D01*
X1727206Y-3736484D02*
X1698634Y-3736484D01*
X1879587Y-3736484D02*
X1860539Y-3726960D01*
X1860539Y-3726960D02*
X1851015Y-3707912D01*
X1851015Y-3707912D02*
X1851015Y-3536484D01*
X2031968Y-3726960D02*
X2012920Y-3736484D01*
X2012920Y-3736484D02*
X1974825Y-3736484D01*
X1974825Y-3736484D02*
X1955777Y-3726960D01*
X1955777Y-3726960D02*
X1946253Y-3707912D01*
X1946253Y-3707912D02*
X1946253Y-3631722D01*
X1946253Y-3631722D02*
X1955777Y-3612674D01*
X1955777Y-3612674D02*
X1974825Y-3603150D01*
X1974825Y-3603150D02*
X2012920Y-3603150D01*
X2012920Y-3603150D02*
X2031968Y-3612674D01*
X2031968Y-3612674D02*
X2041491Y-3631722D01*
X2041491Y-3631722D02*
X2041491Y-3650769D01*
X2041491Y-3650769D02*
X1946253Y-3669817D01*
X2117682Y-3726960D02*
X2136730Y-3736484D01*
X2136730Y-3736484D02*
X2174825Y-3736484D01*
X2174825Y-3736484D02*
X2193873Y-3726960D01*
X2193873Y-3726960D02*
X2203396Y-3707912D01*
X2203396Y-3707912D02*
X2203396Y-3698388D01*
X2203396Y-3698388D02*
X2193873Y-3679341D01*
X2193873Y-3679341D02*
X2174825Y-3669817D01*
X2174825Y-3669817D02*
X2146253Y-3669817D01*
X2146253Y-3669817D02*
X2127206Y-3660293D01*
X2127206Y-3660293D02*
X2117682Y-3641246D01*
X2117682Y-3641246D02*
X2117682Y-3631722D01*
X2117682Y-3631722D02*
X2127206Y-3612674D01*
X2127206Y-3612674D02*
X2146253Y-3603150D01*
X2146253Y-3603150D02*
X2174825Y-3603150D01*
X2174825Y-3603150D02*
X2193873Y-3612674D01*
X2270063Y-3812674D02*
X2279587Y-3803150D01*
X2279587Y-3803150D02*
X2298634Y-3774579D01*
X2298634Y-3774579D02*
X2308158Y-3755531D01*
X2308158Y-3755531D02*
X2317682Y-3726960D01*
X2317682Y-3726960D02*
X2327206Y-3679341D01*
X2327206Y-3679341D02*
X2327206Y-3641246D01*
X2327206Y-3641246D02*
X2317682Y-3593627D01*
X2317682Y-3593627D02*
X2308158Y-3565055D01*
X2308158Y-3565055D02*
X2298634Y-3546008D01*
X2298634Y-3546008D02*
X2279587Y-3517436D01*
X2279587Y-3517436D02*
X2270063Y-3507912D01*
D13*
X-2505000Y-3909000D02*
G75*
G03*
X-2505000Y-3909000I-30000J0D01*
G01*
D11*
X-2206128Y-3800484D02*
X-2187080Y-3800484D01*
X-2187080Y-3800484D02*
X-2168033Y-3810008D01*
X-2168033Y-3810008D02*
X-2158509Y-3819531D01*
X-2158509Y-3819531D02*
X-2148985Y-3838579D01*
X-2148985Y-3838579D02*
X-2139461Y-3876674D01*
X-2139461Y-3876674D02*
X-2139461Y-3924293D01*
X-2139461Y-3924293D02*
X-2148985Y-3962388D01*
X-2148985Y-3962388D02*
X-2158509Y-3981436D01*
X-2158509Y-3981436D02*
X-2168033Y-3990960D01*
X-2168033Y-3990960D02*
X-2187080Y-4000484D01*
X-2187080Y-4000484D02*
X-2206128Y-4000484D01*
X-2206128Y-4000484D02*
X-2225176Y-3990960D01*
X-2225176Y-3990960D02*
X-2234699Y-3981436D01*
X-2234699Y-3981436D02*
X-2244223Y-3962388D01*
X-2244223Y-3962388D02*
X-2253747Y-3924293D01*
X-2253747Y-3924293D02*
X-2253747Y-3876674D01*
X-2253747Y-3876674D02*
X-2244223Y-3838579D01*
X-2244223Y-3838579D02*
X-2234699Y-3819531D01*
X-2234699Y-3819531D02*
X-2225176Y-3810008D01*
X-2225176Y-3810008D02*
X-2206128Y-3800484D01*
X-2053747Y-3981436D02*
X-2044223Y-3990960D01*
X-2044223Y-3990960D02*
X-2053747Y-4000484D01*
X-2053747Y-4000484D02*
X-2063271Y-3990960D01*
X-2063271Y-3990960D02*
X-2053747Y-3981436D01*
X-2053747Y-3981436D02*
X-2053747Y-4000484D01*
X-1872795Y-3800484D02*
X-1910890Y-3800484D01*
X-1910890Y-3800484D02*
X-1929937Y-3810008D01*
X-1929937Y-3810008D02*
X-1939461Y-3819531D01*
X-1939461Y-3819531D02*
X-1958509Y-3848103D01*
X-1958509Y-3848103D02*
X-1968033Y-3886198D01*
X-1968033Y-3886198D02*
X-1968033Y-3962388D01*
X-1968033Y-3962388D02*
X-1958509Y-3981436D01*
X-1958509Y-3981436D02*
X-1948985Y-3990960D01*
X-1948985Y-3990960D02*
X-1929937Y-4000484D01*
X-1929937Y-4000484D02*
X-1891842Y-4000484D01*
X-1891842Y-4000484D02*
X-1872795Y-3990960D01*
X-1872795Y-3990960D02*
X-1863271Y-3981436D01*
X-1863271Y-3981436D02*
X-1853747Y-3962388D01*
X-1853747Y-3962388D02*
X-1853747Y-3914769D01*
X-1853747Y-3914769D02*
X-1863271Y-3895722D01*
X-1863271Y-3895722D02*
X-1872795Y-3886198D01*
X-1872795Y-3886198D02*
X-1891842Y-3876674D01*
X-1891842Y-3876674D02*
X-1929937Y-3876674D01*
X-1929937Y-3876674D02*
X-1948985Y-3886198D01*
X-1948985Y-3886198D02*
X-1958509Y-3895722D01*
X-1958509Y-3895722D02*
X-1968033Y-3914769D01*
X-1729937Y-3800484D02*
X-1710890Y-3800484D01*
X-1710890Y-3800484D02*
X-1691842Y-3810008D01*
X-1691842Y-3810008D02*
X-1682318Y-3819531D01*
X-1682318Y-3819531D02*
X-1672795Y-3838579D01*
X-1672795Y-3838579D02*
X-1663271Y-3876674D01*
X-1663271Y-3876674D02*
X-1663271Y-3924293D01*
X-1663271Y-3924293D02*
X-1672795Y-3962388D01*
X-1672795Y-3962388D02*
X-1682318Y-3981436D01*
X-1682318Y-3981436D02*
X-1691842Y-3990960D01*
X-1691842Y-3990960D02*
X-1710890Y-4000484D01*
X-1710890Y-4000484D02*
X-1729937Y-4000484D01*
X-1729937Y-4000484D02*
X-1748985Y-3990960D01*
X-1748985Y-3990960D02*
X-1758509Y-3981436D01*
X-1758509Y-3981436D02*
X-1768033Y-3962388D01*
X-1768033Y-3962388D02*
X-1777556Y-3924293D01*
X-1777556Y-3924293D02*
X-1777556Y-3876674D01*
X-1777556Y-3876674D02*
X-1768033Y-3838579D01*
X-1768033Y-3838579D02*
X-1758509Y-3819531D01*
X-1758509Y-3819531D02*
X-1748985Y-3810008D01*
X-1748985Y-3810008D02*
X-1729937Y-3800484D01*
X-1539461Y-3800484D02*
X-1520414Y-3800484D01*
X-1520414Y-3800484D02*
X-1501366Y-3810008D01*
X-1501366Y-3810008D02*
X-1491842Y-3819531D01*
X-1491842Y-3819531D02*
X-1482318Y-3838579D01*
X-1482318Y-3838579D02*
X-1472795Y-3876674D01*
X-1472795Y-3876674D02*
X-1472795Y-3924293D01*
X-1472795Y-3924293D02*
X-1482318Y-3962388D01*
X-1482318Y-3962388D02*
X-1491842Y-3981436D01*
X-1491842Y-3981436D02*
X-1501366Y-3990960D01*
X-1501366Y-3990960D02*
X-1520414Y-4000484D01*
X-1520414Y-4000484D02*
X-1539461Y-4000484D01*
X-1539461Y-4000484D02*
X-1558509Y-3990960D01*
X-1558509Y-3990960D02*
X-1568033Y-3981436D01*
X-1568033Y-3981436D02*
X-1577556Y-3962388D01*
X-1577556Y-3962388D02*
X-1587080Y-3924293D01*
X-1587080Y-3924293D02*
X-1587080Y-3876674D01*
X-1587080Y-3876674D02*
X-1577556Y-3838579D01*
X-1577556Y-3838579D02*
X-1568033Y-3819531D01*
X-1568033Y-3819531D02*
X-1558509Y-3810008D01*
X-1558509Y-3810008D02*
X-1539461Y-3800484D01*
X-1387080Y-4000484D02*
X-1387080Y-3867150D01*
X-1387080Y-3886198D02*
X-1377557Y-3876674D01*
X-1377557Y-3876674D02*
X-1358509Y-3867150D01*
X-1358509Y-3867150D02*
X-1329937Y-3867150D01*
X-1329937Y-3867150D02*
X-1310890Y-3876674D01*
X-1310890Y-3876674D02*
X-1301366Y-3895722D01*
X-1301366Y-3895722D02*
X-1301366Y-4000484D01*
X-1301366Y-3895722D02*
X-1291842Y-3876674D01*
X-1291842Y-3876674D02*
X-1272795Y-3867150D01*
X-1272795Y-3867150D02*
X-1244223Y-3867150D01*
X-1244223Y-3867150D02*
X-1225176Y-3876674D01*
X-1225176Y-3876674D02*
X-1215652Y-3895722D01*
X-1215652Y-3895722D02*
X-1215652Y-4000484D01*
X-1120414Y-4000484D02*
X-1120414Y-3867150D01*
X-1120414Y-3886198D02*
X-1110890Y-3876674D01*
X-1110890Y-3876674D02*
X-1091842Y-3867150D01*
X-1091842Y-3867150D02*
X-1063271Y-3867150D01*
X-1063271Y-3867150D02*
X-1044223Y-3876674D01*
X-1044223Y-3876674D02*
X-1034699Y-3895722D01*
X-1034699Y-3895722D02*
X-1034699Y-4000484D01*
X-1034699Y-3895722D02*
X-1025175Y-3876674D01*
X-1025175Y-3876674D02*
X-1006128Y-3867150D01*
X-1006128Y-3867150D02*
X-977556Y-3867150D01*
X-977556Y-3867150D02*
X-958509Y-3876674D01*
X-958509Y-3876674D02*
X-948985Y-3895722D01*
X-948985Y-3895722D02*
X-948985Y-4000484D01*
X-558509Y-3790960D02*
X-729937Y-4048103D01*
X-301366Y-3800484D02*
X-282318Y-3800484D01*
X-282318Y-3800484D02*
X-263271Y-3810008D01*
X-263271Y-3810008D02*
X-253747Y-3819531D01*
X-253747Y-3819531D02*
X-244223Y-3838579D01*
X-244223Y-3838579D02*
X-234699Y-3876674D01*
X-234699Y-3876674D02*
X-234699Y-3924293D01*
X-234699Y-3924293D02*
X-244223Y-3962388D01*
X-244223Y-3962388D02*
X-253747Y-3981436D01*
X-253747Y-3981436D02*
X-263271Y-3990960D01*
X-263271Y-3990960D02*
X-282318Y-4000484D01*
X-282318Y-4000484D02*
X-301366Y-4000484D01*
X-301366Y-4000484D02*
X-320414Y-3990960D01*
X-320414Y-3990960D02*
X-329937Y-3981436D01*
X-329937Y-3981436D02*
X-339461Y-3962388D01*
X-339461Y-3962388D02*
X-348985Y-3924293D01*
X-348985Y-3924293D02*
X-348985Y-3876674D01*
X-348985Y-3876674D02*
X-339461Y-3838579D01*
X-339461Y-3838579D02*
X-329937Y-3819531D01*
X-329937Y-3819531D02*
X-320414Y-3810008D01*
X-320414Y-3810008D02*
X-301366Y-3800484D01*
X-148985Y-3981436D02*
X-139461Y-3990960D01*
X-139461Y-3990960D02*
X-148985Y-4000484D01*
X-148985Y-4000484D02*
X-158509Y-3990960D01*
X-158509Y-3990960D02*
X-148985Y-3981436D01*
X-148985Y-3981436D02*
X-148985Y-4000484D01*
X-15652Y-3800484D02*
X3396Y-3800484D01*
X3396Y-3800484D02*
X22444Y-3810008D01*
X22444Y-3810008D02*
X31967Y-3819531D01*
X31967Y-3819531D02*
X41491Y-3838579D01*
X41491Y-3838579D02*
X51015Y-3876674D01*
X51015Y-3876674D02*
X51015Y-3924293D01*
X51015Y-3924293D02*
X41491Y-3962388D01*
X41491Y-3962388D02*
X31967Y-3981436D01*
X31967Y-3981436D02*
X22444Y-3990960D01*
X22444Y-3990960D02*
X3396Y-4000484D01*
X3396Y-4000484D02*
X-15652Y-4000484D01*
X-15652Y-4000484D02*
X-34699Y-3990960D01*
X-34699Y-3990960D02*
X-44223Y-3981436D01*
X-44223Y-3981436D02*
X-53747Y-3962388D01*
X-53747Y-3962388D02*
X-63271Y-3924293D01*
X-63271Y-3924293D02*
X-63271Y-3876674D01*
X-63271Y-3876674D02*
X-53747Y-3838579D01*
X-53747Y-3838579D02*
X-44223Y-3819531D01*
X-44223Y-3819531D02*
X-34699Y-3810008D01*
X-34699Y-3810008D02*
X-15652Y-3800484D01*
X127206Y-3819531D02*
X136729Y-3810008D01*
X136729Y-3810008D02*
X155777Y-3800484D01*
X155777Y-3800484D02*
X203396Y-3800484D01*
X203396Y-3800484D02*
X222444Y-3810008D01*
X222444Y-3810008D02*
X231967Y-3819531D01*
X231967Y-3819531D02*
X241491Y-3838579D01*
X241491Y-3838579D02*
X241491Y-3857627D01*
X241491Y-3857627D02*
X231967Y-3886198D01*
X231967Y-3886198D02*
X117682Y-4000484D01*
X117682Y-4000484D02*
X241491Y-4000484D01*
X308158Y-3800484D02*
X431967Y-3800484D01*
X431967Y-3800484D02*
X365301Y-3876674D01*
X365301Y-3876674D02*
X393872Y-3876674D01*
X393872Y-3876674D02*
X412920Y-3886198D01*
X412920Y-3886198D02*
X422444Y-3895722D01*
X422444Y-3895722D02*
X431967Y-3914769D01*
X431967Y-3914769D02*
X431967Y-3962388D01*
X431967Y-3962388D02*
X422444Y-3981436D01*
X422444Y-3981436D02*
X412920Y-3990960D01*
X412920Y-3990960D02*
X393872Y-4000484D01*
X393872Y-4000484D02*
X336729Y-4000484D01*
X336729Y-4000484D02*
X317682Y-3990960D01*
X317682Y-3990960D02*
X308158Y-3981436D01*
X603396Y-3800484D02*
X565301Y-3800484D01*
X565301Y-3800484D02*
X546253Y-3810008D01*
X546253Y-3810008D02*
X536729Y-3819531D01*
X536729Y-3819531D02*
X517682Y-3848103D01*
X517682Y-3848103D02*
X508158Y-3886198D01*
X508158Y-3886198D02*
X508158Y-3962388D01*
X508158Y-3962388D02*
X517682Y-3981436D01*
X517682Y-3981436D02*
X527206Y-3990960D01*
X527206Y-3990960D02*
X546253Y-4000484D01*
X546253Y-4000484D02*
X584349Y-4000484D01*
X584349Y-4000484D02*
X603396Y-3990960D01*
X603396Y-3990960D02*
X612920Y-3981436D01*
X612920Y-3981436D02*
X622444Y-3962388D01*
X622444Y-3962388D02*
X622444Y-3914769D01*
X622444Y-3914769D02*
X612920Y-3895722D01*
X612920Y-3895722D02*
X603396Y-3886198D01*
X603396Y-3886198D02*
X584349Y-3876674D01*
X584349Y-3876674D02*
X546253Y-3876674D01*
X546253Y-3876674D02*
X527206Y-3886198D01*
X527206Y-3886198D02*
X517682Y-3895722D01*
X517682Y-3895722D02*
X508158Y-3914769D01*
X698634Y-3800484D02*
X698634Y-3838579D01*
X774825Y-3800484D02*
X774825Y-3838579D01*
X1070063Y-4076674D02*
X1060539Y-4067150D01*
X1060539Y-4067150D02*
X1041491Y-4038579D01*
X1041491Y-4038579D02*
X1031968Y-4019531D01*
X1031968Y-4019531D02*
X1022444Y-3990960D01*
X1022444Y-3990960D02*
X1012920Y-3943341D01*
X1012920Y-3943341D02*
X1012920Y-3905246D01*
X1012920Y-3905246D02*
X1022444Y-3857627D01*
X1022444Y-3857627D02*
X1031968Y-3829055D01*
X1031968Y-3829055D02*
X1041491Y-3810008D01*
X1041491Y-3810008D02*
X1060539Y-3781436D01*
X1060539Y-3781436D02*
X1070063Y-3771912D01*
X1136730Y-3819531D02*
X1146253Y-3810008D01*
X1146253Y-3810008D02*
X1165301Y-3800484D01*
X1165301Y-3800484D02*
X1212920Y-3800484D01*
X1212920Y-3800484D02*
X1231968Y-3810008D01*
X1231968Y-3810008D02*
X1241491Y-3819531D01*
X1241491Y-3819531D02*
X1251015Y-3838579D01*
X1251015Y-3838579D02*
X1251015Y-3857627D01*
X1251015Y-3857627D02*
X1241491Y-3886198D01*
X1241491Y-3886198D02*
X1127206Y-4000484D01*
X1127206Y-4000484D02*
X1251015Y-4000484D01*
X1489110Y-4000484D02*
X1489110Y-3800484D01*
X1574825Y-4000484D02*
X1574825Y-3895722D01*
X1574825Y-3895722D02*
X1565301Y-3876674D01*
X1565301Y-3876674D02*
X1546253Y-3867150D01*
X1546253Y-3867150D02*
X1517682Y-3867150D01*
X1517682Y-3867150D02*
X1498634Y-3876674D01*
X1498634Y-3876674D02*
X1489110Y-3886198D01*
X1698634Y-4000484D02*
X1679587Y-3990960D01*
X1679587Y-3990960D02*
X1670063Y-3981436D01*
X1670063Y-3981436D02*
X1660539Y-3962388D01*
X1660539Y-3962388D02*
X1660539Y-3905246D01*
X1660539Y-3905246D02*
X1670063Y-3886198D01*
X1670063Y-3886198D02*
X1679587Y-3876674D01*
X1679587Y-3876674D02*
X1698634Y-3867150D01*
X1698634Y-3867150D02*
X1727206Y-3867150D01*
X1727206Y-3867150D02*
X1746253Y-3876674D01*
X1746253Y-3876674D02*
X1755777Y-3886198D01*
X1755777Y-3886198D02*
X1765301Y-3905246D01*
X1765301Y-3905246D02*
X1765301Y-3962388D01*
X1765301Y-3962388D02*
X1755777Y-3981436D01*
X1755777Y-3981436D02*
X1746253Y-3990960D01*
X1746253Y-3990960D02*
X1727206Y-4000484D01*
X1727206Y-4000484D02*
X1698634Y-4000484D01*
X1879587Y-4000484D02*
X1860539Y-3990960D01*
X1860539Y-3990960D02*
X1851015Y-3971912D01*
X1851015Y-3971912D02*
X1851015Y-3800484D01*
X2031968Y-3990960D02*
X2012920Y-4000484D01*
X2012920Y-4000484D02*
X1974825Y-4000484D01*
X1974825Y-4000484D02*
X1955777Y-3990960D01*
X1955777Y-3990960D02*
X1946253Y-3971912D01*
X1946253Y-3971912D02*
X1946253Y-3895722D01*
X1946253Y-3895722D02*
X1955777Y-3876674D01*
X1955777Y-3876674D02*
X1974825Y-3867150D01*
X1974825Y-3867150D02*
X2012920Y-3867150D01*
X2012920Y-3867150D02*
X2031968Y-3876674D01*
X2031968Y-3876674D02*
X2041491Y-3895722D01*
X2041491Y-3895722D02*
X2041491Y-3914769D01*
X2041491Y-3914769D02*
X1946253Y-3933817D01*
X2117682Y-3990960D02*
X2136730Y-4000484D01*
X2136730Y-4000484D02*
X2174825Y-4000484D01*
X2174825Y-4000484D02*
X2193873Y-3990960D01*
X2193873Y-3990960D02*
X2203396Y-3971912D01*
X2203396Y-3971912D02*
X2203396Y-3962388D01*
X2203396Y-3962388D02*
X2193873Y-3943341D01*
X2193873Y-3943341D02*
X2174825Y-3933817D01*
X2174825Y-3933817D02*
X2146253Y-3933817D01*
X2146253Y-3933817D02*
X2127206Y-3924293D01*
X2127206Y-3924293D02*
X2117682Y-3905246D01*
X2117682Y-3905246D02*
X2117682Y-3895722D01*
X2117682Y-3895722D02*
X2127206Y-3876674D01*
X2127206Y-3876674D02*
X2146253Y-3867150D01*
X2146253Y-3867150D02*
X2174825Y-3867150D01*
X2174825Y-3867150D02*
X2193873Y-3876674D01*
X2270063Y-4076674D02*
X2279587Y-4067150D01*
X2279587Y-4067150D02*
X2298634Y-4038579D01*
X2298634Y-4038579D02*
X2308158Y-4019531D01*
X2308158Y-4019531D02*
X2317682Y-3990960D01*
X2317682Y-3990960D02*
X2327206Y-3943341D01*
X2327206Y-3943341D02*
X2327206Y-3905246D01*
X2327206Y-3905246D02*
X2317682Y-3857627D01*
X2317682Y-3857627D02*
X2308158Y-3829055D01*
X2308158Y-3829055D02*
X2298634Y-3810008D01*
X2298634Y-3810008D02*
X2279587Y-3781436D01*
X2279587Y-3781436D02*
X2270063Y-3771912D01*
D14*
X-2540000Y-4138000D02*
X-2540000Y-4208000D01*
X-2575000Y-4173000D02*
X-2505000Y-4173000D01*
D11*
X-2206128Y-4064484D02*
X-2187080Y-4064484D01*
X-2187080Y-4064484D02*
X-2168033Y-4074008D01*
X-2168033Y-4074008D02*
X-2158509Y-4083531D01*
X-2158509Y-4083531D02*
X-2148985Y-4102579D01*
X-2148985Y-4102579D02*
X-2139461Y-4140674D01*
X-2139461Y-4140674D02*
X-2139461Y-4188293D01*
X-2139461Y-4188293D02*
X-2148985Y-4226389D01*
X-2148985Y-4226389D02*
X-2158509Y-4245436D01*
X-2158509Y-4245436D02*
X-2168033Y-4254960D01*
X-2168033Y-4254960D02*
X-2187080Y-4264484D01*
X-2187080Y-4264484D02*
X-2206128Y-4264484D01*
X-2206128Y-4264484D02*
X-2225176Y-4254960D01*
X-2225176Y-4254960D02*
X-2234699Y-4245436D01*
X-2234699Y-4245436D02*
X-2244223Y-4226389D01*
X-2244223Y-4226389D02*
X-2253747Y-4188293D01*
X-2253747Y-4188293D02*
X-2253747Y-4140674D01*
X-2253747Y-4140674D02*
X-2244223Y-4102579D01*
X-2244223Y-4102579D02*
X-2234699Y-4083531D01*
X-2234699Y-4083531D02*
X-2225176Y-4074008D01*
X-2225176Y-4074008D02*
X-2206128Y-4064484D01*
X-2053747Y-4245436D02*
X-2044223Y-4254960D01*
X-2044223Y-4254960D02*
X-2053747Y-4264484D01*
X-2053747Y-4264484D02*
X-2063271Y-4254960D01*
X-2063271Y-4254960D02*
X-2053747Y-4245436D01*
X-2053747Y-4245436D02*
X-2053747Y-4264484D01*
X-1977556Y-4064484D02*
X-1844223Y-4064484D01*
X-1844223Y-4064484D02*
X-1929937Y-4264484D01*
X-1729937Y-4064484D02*
X-1710890Y-4064484D01*
X-1710890Y-4064484D02*
X-1691842Y-4074008D01*
X-1691842Y-4074008D02*
X-1682318Y-4083531D01*
X-1682318Y-4083531D02*
X-1672795Y-4102579D01*
X-1672795Y-4102579D02*
X-1663271Y-4140674D01*
X-1663271Y-4140674D02*
X-1663271Y-4188293D01*
X-1663271Y-4188293D02*
X-1672795Y-4226389D01*
X-1672795Y-4226389D02*
X-1682318Y-4245436D01*
X-1682318Y-4245436D02*
X-1691842Y-4254960D01*
X-1691842Y-4254960D02*
X-1710890Y-4264484D01*
X-1710890Y-4264484D02*
X-1729937Y-4264484D01*
X-1729937Y-4264484D02*
X-1748985Y-4254960D01*
X-1748985Y-4254960D02*
X-1758509Y-4245436D01*
X-1758509Y-4245436D02*
X-1768033Y-4226389D01*
X-1768033Y-4226389D02*
X-1777556Y-4188293D01*
X-1777556Y-4188293D02*
X-1777556Y-4140674D01*
X-1777556Y-4140674D02*
X-1768033Y-4102579D01*
X-1768033Y-4102579D02*
X-1758509Y-4083531D01*
X-1758509Y-4083531D02*
X-1748985Y-4074008D01*
X-1748985Y-4074008D02*
X-1729937Y-4064484D01*
X-1539461Y-4064484D02*
X-1520414Y-4064484D01*
X-1520414Y-4064484D02*
X-1501366Y-4074008D01*
X-1501366Y-4074008D02*
X-1491842Y-4083531D01*
X-1491842Y-4083531D02*
X-1482318Y-4102579D01*
X-1482318Y-4102579D02*
X-1472795Y-4140674D01*
X-1472795Y-4140674D02*
X-1472795Y-4188293D01*
X-1472795Y-4188293D02*
X-1482318Y-4226389D01*
X-1482318Y-4226389D02*
X-1491842Y-4245436D01*
X-1491842Y-4245436D02*
X-1501366Y-4254960D01*
X-1501366Y-4254960D02*
X-1520414Y-4264484D01*
X-1520414Y-4264484D02*
X-1539461Y-4264484D01*
X-1539461Y-4264484D02*
X-1558509Y-4254960D01*
X-1558509Y-4254960D02*
X-1568033Y-4245436D01*
X-1568033Y-4245436D02*
X-1577556Y-4226389D01*
X-1577556Y-4226389D02*
X-1587080Y-4188293D01*
X-1587080Y-4188293D02*
X-1587080Y-4140674D01*
X-1587080Y-4140674D02*
X-1577556Y-4102579D01*
X-1577556Y-4102579D02*
X-1568033Y-4083531D01*
X-1568033Y-4083531D02*
X-1558509Y-4074008D01*
X-1558509Y-4074008D02*
X-1539461Y-4064484D01*
X-1387080Y-4264484D02*
X-1387080Y-4131150D01*
X-1387080Y-4150198D02*
X-1377557Y-4140674D01*
X-1377557Y-4140674D02*
X-1358509Y-4131150D01*
X-1358509Y-4131150D02*
X-1329937Y-4131150D01*
X-1329937Y-4131150D02*
X-1310890Y-4140674D01*
X-1310890Y-4140674D02*
X-1301366Y-4159722D01*
X-1301366Y-4159722D02*
X-1301366Y-4264484D01*
X-1301366Y-4159722D02*
X-1291842Y-4140674D01*
X-1291842Y-4140674D02*
X-1272795Y-4131150D01*
X-1272795Y-4131150D02*
X-1244223Y-4131150D01*
X-1244223Y-4131150D02*
X-1225176Y-4140674D01*
X-1225176Y-4140674D02*
X-1215652Y-4159722D01*
X-1215652Y-4159722D02*
X-1215652Y-4264484D01*
X-1120414Y-4264484D02*
X-1120414Y-4131150D01*
X-1120414Y-4150198D02*
X-1110890Y-4140674D01*
X-1110890Y-4140674D02*
X-1091842Y-4131150D01*
X-1091842Y-4131150D02*
X-1063271Y-4131150D01*
X-1063271Y-4131150D02*
X-1044223Y-4140674D01*
X-1044223Y-4140674D02*
X-1034699Y-4159722D01*
X-1034699Y-4159722D02*
X-1034699Y-4264484D01*
X-1034699Y-4159722D02*
X-1025175Y-4140674D01*
X-1025175Y-4140674D02*
X-1006128Y-4131150D01*
X-1006128Y-4131150D02*
X-977556Y-4131150D01*
X-977556Y-4131150D02*
X-958509Y-4140674D01*
X-958509Y-4140674D02*
X-948985Y-4159722D01*
X-948985Y-4159722D02*
X-948985Y-4264484D01*
X-558509Y-4054960D02*
X-729937Y-4312103D01*
X-301366Y-4064484D02*
X-282318Y-4064484D01*
X-282318Y-4064484D02*
X-263271Y-4074008D01*
X-263271Y-4074008D02*
X-253747Y-4083531D01*
X-253747Y-4083531D02*
X-244223Y-4102579D01*
X-244223Y-4102579D02*
X-234699Y-4140674D01*
X-234699Y-4140674D02*
X-234699Y-4188293D01*
X-234699Y-4188293D02*
X-244223Y-4226389D01*
X-244223Y-4226389D02*
X-253747Y-4245436D01*
X-253747Y-4245436D02*
X-263271Y-4254960D01*
X-263271Y-4254960D02*
X-282318Y-4264484D01*
X-282318Y-4264484D02*
X-301366Y-4264484D01*
X-301366Y-4264484D02*
X-320414Y-4254960D01*
X-320414Y-4254960D02*
X-329937Y-4245436D01*
X-329937Y-4245436D02*
X-339461Y-4226389D01*
X-339461Y-4226389D02*
X-348985Y-4188293D01*
X-348985Y-4188293D02*
X-348985Y-4140674D01*
X-348985Y-4140674D02*
X-339461Y-4102579D01*
X-339461Y-4102579D02*
X-329937Y-4083531D01*
X-329937Y-4083531D02*
X-320414Y-4074008D01*
X-320414Y-4074008D02*
X-301366Y-4064484D01*
X-148985Y-4245436D02*
X-139461Y-4254960D01*
X-139461Y-4254960D02*
X-148985Y-4264484D01*
X-148985Y-4264484D02*
X-158509Y-4254960D01*
X-158509Y-4254960D02*
X-148985Y-4245436D01*
X-148985Y-4245436D02*
X-148985Y-4264484D01*
X-15652Y-4064484D02*
X3396Y-4064484D01*
X3396Y-4064484D02*
X22444Y-4074008D01*
X22444Y-4074008D02*
X31967Y-4083531D01*
X31967Y-4083531D02*
X41491Y-4102579D01*
X41491Y-4102579D02*
X51015Y-4140674D01*
X51015Y-4140674D02*
X51015Y-4188293D01*
X51015Y-4188293D02*
X41491Y-4226389D01*
X41491Y-4226389D02*
X31967Y-4245436D01*
X31967Y-4245436D02*
X22444Y-4254960D01*
X22444Y-4254960D02*
X3396Y-4264484D01*
X3396Y-4264484D02*
X-15652Y-4264484D01*
X-15652Y-4264484D02*
X-34699Y-4254960D01*
X-34699Y-4254960D02*
X-44223Y-4245436D01*
X-44223Y-4245436D02*
X-53747Y-4226389D01*
X-53747Y-4226389D02*
X-63271Y-4188293D01*
X-63271Y-4188293D02*
X-63271Y-4140674D01*
X-63271Y-4140674D02*
X-53747Y-4102579D01*
X-53747Y-4102579D02*
X-44223Y-4083531D01*
X-44223Y-4083531D02*
X-34699Y-4074008D01*
X-34699Y-4074008D02*
X-15652Y-4064484D01*
X127206Y-4083531D02*
X136729Y-4074008D01*
X136729Y-4074008D02*
X155777Y-4064484D01*
X155777Y-4064484D02*
X203396Y-4064484D01*
X203396Y-4064484D02*
X222444Y-4074008D01*
X222444Y-4074008D02*
X231967Y-4083531D01*
X231967Y-4083531D02*
X241491Y-4102579D01*
X241491Y-4102579D02*
X241491Y-4121627D01*
X241491Y-4121627D02*
X231967Y-4150198D01*
X231967Y-4150198D02*
X117682Y-4264484D01*
X117682Y-4264484D02*
X241491Y-4264484D01*
X308158Y-4064484D02*
X441491Y-4064484D01*
X441491Y-4064484D02*
X355777Y-4264484D01*
X603396Y-4064484D02*
X565301Y-4064484D01*
X565301Y-4064484D02*
X546253Y-4074008D01*
X546253Y-4074008D02*
X536729Y-4083531D01*
X536729Y-4083531D02*
X517682Y-4112103D01*
X517682Y-4112103D02*
X508158Y-4150198D01*
X508158Y-4150198D02*
X508158Y-4226389D01*
X508158Y-4226389D02*
X517682Y-4245436D01*
X517682Y-4245436D02*
X527206Y-4254960D01*
X527206Y-4254960D02*
X546253Y-4264484D01*
X546253Y-4264484D02*
X584349Y-4264484D01*
X584349Y-4264484D02*
X603396Y-4254960D01*
X603396Y-4254960D02*
X612920Y-4245436D01*
X612920Y-4245436D02*
X622444Y-4226389D01*
X622444Y-4226389D02*
X622444Y-4178769D01*
X622444Y-4178769D02*
X612920Y-4159722D01*
X612920Y-4159722D02*
X603396Y-4150198D01*
X603396Y-4150198D02*
X584349Y-4140674D01*
X584349Y-4140674D02*
X546253Y-4140674D01*
X546253Y-4140674D02*
X527206Y-4150198D01*
X527206Y-4150198D02*
X517682Y-4159722D01*
X517682Y-4159722D02*
X508158Y-4178769D01*
X698634Y-4064484D02*
X698634Y-4102579D01*
X774825Y-4064484D02*
X774825Y-4102579D01*
X1070063Y-4340674D02*
X1060539Y-4331150D01*
X1060539Y-4331150D02*
X1041491Y-4302579D01*
X1041491Y-4302579D02*
X1031968Y-4283531D01*
X1031968Y-4283531D02*
X1022444Y-4254960D01*
X1022444Y-4254960D02*
X1012920Y-4207341D01*
X1012920Y-4207341D02*
X1012920Y-4169246D01*
X1012920Y-4169246D02*
X1022444Y-4121627D01*
X1022444Y-4121627D02*
X1031968Y-4093055D01*
X1031968Y-4093055D02*
X1041491Y-4074008D01*
X1041491Y-4074008D02*
X1060539Y-4045436D01*
X1060539Y-4045436D02*
X1070063Y-4035912D01*
X1241491Y-4064484D02*
X1146253Y-4064484D01*
X1146253Y-4064484D02*
X1136730Y-4159722D01*
X1136730Y-4159722D02*
X1146253Y-4150198D01*
X1146253Y-4150198D02*
X1165301Y-4140674D01*
X1165301Y-4140674D02*
X1212920Y-4140674D01*
X1212920Y-4140674D02*
X1231968Y-4150198D01*
X1231968Y-4150198D02*
X1241491Y-4159722D01*
X1241491Y-4159722D02*
X1251015Y-4178769D01*
X1251015Y-4178769D02*
X1251015Y-4226389D01*
X1251015Y-4226389D02*
X1241491Y-4245436D01*
X1241491Y-4245436D02*
X1231968Y-4254960D01*
X1231968Y-4254960D02*
X1212920Y-4264484D01*
X1212920Y-4264484D02*
X1165301Y-4264484D01*
X1165301Y-4264484D02*
X1146253Y-4254960D01*
X1146253Y-4254960D02*
X1136730Y-4245436D01*
X1489110Y-4264484D02*
X1489110Y-4064484D01*
X1574825Y-4264484D02*
X1574825Y-4159722D01*
X1574825Y-4159722D02*
X1565301Y-4140674D01*
X1565301Y-4140674D02*
X1546253Y-4131150D01*
X1546253Y-4131150D02*
X1517682Y-4131150D01*
X1517682Y-4131150D02*
X1498634Y-4140674D01*
X1498634Y-4140674D02*
X1489110Y-4150198D01*
X1698634Y-4264484D02*
X1679587Y-4254960D01*
X1679587Y-4254960D02*
X1670063Y-4245436D01*
X1670063Y-4245436D02*
X1660539Y-4226389D01*
X1660539Y-4226389D02*
X1660539Y-4169246D01*
X1660539Y-4169246D02*
X1670063Y-4150198D01*
X1670063Y-4150198D02*
X1679587Y-4140674D01*
X1679587Y-4140674D02*
X1698634Y-4131150D01*
X1698634Y-4131150D02*
X1727206Y-4131150D01*
X1727206Y-4131150D02*
X1746253Y-4140674D01*
X1746253Y-4140674D02*
X1755777Y-4150198D01*
X1755777Y-4150198D02*
X1765301Y-4169246D01*
X1765301Y-4169246D02*
X1765301Y-4226389D01*
X1765301Y-4226389D02*
X1755777Y-4245436D01*
X1755777Y-4245436D02*
X1746253Y-4254960D01*
X1746253Y-4254960D02*
X1727206Y-4264484D01*
X1727206Y-4264484D02*
X1698634Y-4264484D01*
X1879587Y-4264484D02*
X1860539Y-4254960D01*
X1860539Y-4254960D02*
X1851015Y-4235912D01*
X1851015Y-4235912D02*
X1851015Y-4064484D01*
X2031968Y-4254960D02*
X2012920Y-4264484D01*
X2012920Y-4264484D02*
X1974825Y-4264484D01*
X1974825Y-4264484D02*
X1955777Y-4254960D01*
X1955777Y-4254960D02*
X1946253Y-4235912D01*
X1946253Y-4235912D02*
X1946253Y-4159722D01*
X1946253Y-4159722D02*
X1955777Y-4140674D01*
X1955777Y-4140674D02*
X1974825Y-4131150D01*
X1974825Y-4131150D02*
X2012920Y-4131150D01*
X2012920Y-4131150D02*
X2031968Y-4140674D01*
X2031968Y-4140674D02*
X2041491Y-4159722D01*
X2041491Y-4159722D02*
X2041491Y-4178769D01*
X2041491Y-4178769D02*
X1946253Y-4197817D01*
X2117682Y-4254960D02*
X2136730Y-4264484D01*
X2136730Y-4264484D02*
X2174825Y-4264484D01*
X2174825Y-4264484D02*
X2193873Y-4254960D01*
X2193873Y-4254960D02*
X2203396Y-4235912D01*
X2203396Y-4235912D02*
X2203396Y-4226389D01*
X2203396Y-4226389D02*
X2193873Y-4207341D01*
X2193873Y-4207341D02*
X2174825Y-4197817D01*
X2174825Y-4197817D02*
X2146253Y-4197817D01*
X2146253Y-4197817D02*
X2127206Y-4188293D01*
X2127206Y-4188293D02*
X2117682Y-4169246D01*
X2117682Y-4169246D02*
X2117682Y-4159722D01*
X2117682Y-4159722D02*
X2127206Y-4140674D01*
X2127206Y-4140674D02*
X2146253Y-4131150D01*
X2146253Y-4131150D02*
X2174825Y-4131150D01*
X2174825Y-4131150D02*
X2193873Y-4140674D01*
X2441492Y-4188293D02*
X2593873Y-4188293D01*
X2517682Y-4264484D02*
X2517682Y-4112103D01*
X2831968Y-4083531D02*
X2841492Y-4074008D01*
X2841492Y-4074008D02*
X2860539Y-4064484D01*
X2860539Y-4064484D02*
X2908158Y-4064484D01*
X2908158Y-4064484D02*
X2927206Y-4074008D01*
X2927206Y-4074008D02*
X2936730Y-4083531D01*
X2936730Y-4083531D02*
X2946253Y-4102579D01*
X2946253Y-4102579D02*
X2946253Y-4121627D01*
X2946253Y-4121627D02*
X2936730Y-4150198D01*
X2936730Y-4150198D02*
X2822444Y-4264484D01*
X2822444Y-4264484D02*
X2946253Y-4264484D01*
X3174825Y-4254960D02*
X3193873Y-4264484D01*
X3193873Y-4264484D02*
X3231968Y-4264484D01*
X3231968Y-4264484D02*
X3251015Y-4254960D01*
X3251015Y-4254960D02*
X3260539Y-4235912D01*
X3260539Y-4235912D02*
X3260539Y-4226389D01*
X3260539Y-4226389D02*
X3251015Y-4207341D01*
X3251015Y-4207341D02*
X3231968Y-4197817D01*
X3231968Y-4197817D02*
X3203396Y-4197817D01*
X3203396Y-4197817D02*
X3184349Y-4188293D01*
X3184349Y-4188293D02*
X3174825Y-4169246D01*
X3174825Y-4169246D02*
X3174825Y-4159722D01*
X3174825Y-4159722D02*
X3184349Y-4140674D01*
X3184349Y-4140674D02*
X3203396Y-4131150D01*
X3203396Y-4131150D02*
X3231968Y-4131150D01*
X3231968Y-4131150D02*
X3251015Y-4140674D01*
X3374825Y-4264484D02*
X3355777Y-4254960D01*
X3355777Y-4254960D02*
X3346254Y-4235912D01*
X3346254Y-4235912D02*
X3346254Y-4064484D01*
X3479587Y-4264484D02*
X3460539Y-4254960D01*
X3460539Y-4254960D02*
X3451015Y-4245436D01*
X3451015Y-4245436D02*
X3441492Y-4226389D01*
X3441492Y-4226389D02*
X3441492Y-4169246D01*
X3441492Y-4169246D02*
X3451015Y-4150198D01*
X3451015Y-4150198D02*
X3460539Y-4140674D01*
X3460539Y-4140674D02*
X3479587Y-4131150D01*
X3479587Y-4131150D02*
X3508158Y-4131150D01*
X3508158Y-4131150D02*
X3527206Y-4140674D01*
X3527206Y-4140674D02*
X3536730Y-4150198D01*
X3536730Y-4150198D02*
X3546254Y-4169246D01*
X3546254Y-4169246D02*
X3546254Y-4226389D01*
X3546254Y-4226389D02*
X3536730Y-4245436D01*
X3536730Y-4245436D02*
X3527206Y-4254960D01*
X3527206Y-4254960D02*
X3508158Y-4264484D01*
X3508158Y-4264484D02*
X3479587Y-4264484D01*
X3603396Y-4131150D02*
X3679587Y-4131150D01*
X3631968Y-4064484D02*
X3631968Y-4235912D01*
X3631968Y-4235912D02*
X3641492Y-4254960D01*
X3641492Y-4254960D02*
X3660539Y-4264484D01*
X3660539Y-4264484D02*
X3679587Y-4264484D01*
X3736730Y-4254960D02*
X3755777Y-4264484D01*
X3755777Y-4264484D02*
X3793873Y-4264484D01*
X3793873Y-4264484D02*
X3812920Y-4254960D01*
X3812920Y-4254960D02*
X3822444Y-4235912D01*
X3822444Y-4235912D02*
X3822444Y-4226389D01*
X3822444Y-4226389D02*
X3812920Y-4207341D01*
X3812920Y-4207341D02*
X3793873Y-4197817D01*
X3793873Y-4197817D02*
X3765301Y-4197817D01*
X3765301Y-4197817D02*
X3746254Y-4188293D01*
X3746254Y-4188293D02*
X3736730Y-4169246D01*
X3736730Y-4169246D02*
X3736730Y-4159722D01*
X3736730Y-4159722D02*
X3746254Y-4140674D01*
X3746254Y-4140674D02*
X3765301Y-4131150D01*
X3765301Y-4131150D02*
X3793873Y-4131150D01*
X3793873Y-4131150D02*
X3812920Y-4140674D01*
X3889111Y-4340674D02*
X3898635Y-4331150D01*
X3898635Y-4331150D02*
X3917682Y-4302579D01*
X3917682Y-4302579D02*
X3927206Y-4283531D01*
X3927206Y-4283531D02*
X3936730Y-4254960D01*
X3936730Y-4254960D02*
X3946254Y-4207341D01*
X3946254Y-4207341D02*
X3946254Y-4169246D01*
X3946254Y-4169246D02*
X3936730Y-4121627D01*
X3936730Y-4121627D02*
X3927206Y-4093055D01*
X3927206Y-4093055D02*
X3917682Y-4074008D01*
X3917682Y-4074008D02*
X3898635Y-4045436D01*
X3898635Y-4045436D02*
X3889111Y-4035912D01*
D15*
X-2516716Y-4465285D02*
X-2516716Y-4408716D01*
X-2573285Y-4408716D01*
X-2573285Y-4465285D01*
X-2516716Y-4465285D01*
D11*
X-2206128Y-4328484D02*
X-2187080Y-4328484D01*
X-2187080Y-4328484D02*
X-2168033Y-4338008D01*
X-2168033Y-4338008D02*
X-2158509Y-4347531D01*
X-2158509Y-4347531D02*
X-2148985Y-4366579D01*
X-2148985Y-4366579D02*
X-2139461Y-4404674D01*
X-2139461Y-4404674D02*
X-2139461Y-4452293D01*
X-2139461Y-4452293D02*
X-2148985Y-4490389D01*
X-2148985Y-4490389D02*
X-2158509Y-4509436D01*
X-2158509Y-4509436D02*
X-2168033Y-4518960D01*
X-2168033Y-4518960D02*
X-2187080Y-4528484D01*
X-2187080Y-4528484D02*
X-2206128Y-4528484D01*
X-2206128Y-4528484D02*
X-2225176Y-4518960D01*
X-2225176Y-4518960D02*
X-2234699Y-4509436D01*
X-2234699Y-4509436D02*
X-2244223Y-4490389D01*
X-2244223Y-4490389D02*
X-2253747Y-4452293D01*
X-2253747Y-4452293D02*
X-2253747Y-4404674D01*
X-2253747Y-4404674D02*
X-2244223Y-4366579D01*
X-2244223Y-4366579D02*
X-2234699Y-4347531D01*
X-2234699Y-4347531D02*
X-2225176Y-4338008D01*
X-2225176Y-4338008D02*
X-2206128Y-4328484D01*
X-2053747Y-4509436D02*
X-2044223Y-4518960D01*
X-2044223Y-4518960D02*
X-2053747Y-4528484D01*
X-2053747Y-4528484D02*
X-2063271Y-4518960D01*
X-2063271Y-4518960D02*
X-2053747Y-4509436D01*
X-2053747Y-4509436D02*
X-2053747Y-4528484D01*
X-1929937Y-4414198D02*
X-1948985Y-4404674D01*
X-1948985Y-4404674D02*
X-1958509Y-4395150D01*
X-1958509Y-4395150D02*
X-1968033Y-4376103D01*
X-1968033Y-4376103D02*
X-1968033Y-4366579D01*
X-1968033Y-4366579D02*
X-1958509Y-4347531D01*
X-1958509Y-4347531D02*
X-1948985Y-4338008D01*
X-1948985Y-4338008D02*
X-1929937Y-4328484D01*
X-1929937Y-4328484D02*
X-1891842Y-4328484D01*
X-1891842Y-4328484D02*
X-1872795Y-4338008D01*
X-1872795Y-4338008D02*
X-1863271Y-4347531D01*
X-1863271Y-4347531D02*
X-1853747Y-4366579D01*
X-1853747Y-4366579D02*
X-1853747Y-4376103D01*
X-1853747Y-4376103D02*
X-1863271Y-4395150D01*
X-1863271Y-4395150D02*
X-1872795Y-4404674D01*
X-1872795Y-4404674D02*
X-1891842Y-4414198D01*
X-1891842Y-4414198D02*
X-1929937Y-4414198D01*
X-1929937Y-4414198D02*
X-1948985Y-4423722D01*
X-1948985Y-4423722D02*
X-1958509Y-4433246D01*
X-1958509Y-4433246D02*
X-1968033Y-4452293D01*
X-1968033Y-4452293D02*
X-1968033Y-4490389D01*
X-1968033Y-4490389D02*
X-1958509Y-4509436D01*
X-1958509Y-4509436D02*
X-1948985Y-4518960D01*
X-1948985Y-4518960D02*
X-1929937Y-4528484D01*
X-1929937Y-4528484D02*
X-1891842Y-4528484D01*
X-1891842Y-4528484D02*
X-1872795Y-4518960D01*
X-1872795Y-4518960D02*
X-1863271Y-4509436D01*
X-1863271Y-4509436D02*
X-1853747Y-4490389D01*
X-1853747Y-4490389D02*
X-1853747Y-4452293D01*
X-1853747Y-4452293D02*
X-1863271Y-4433246D01*
X-1863271Y-4433246D02*
X-1872795Y-4423722D01*
X-1872795Y-4423722D02*
X-1891842Y-4414198D01*
X-1729937Y-4328484D02*
X-1710890Y-4328484D01*
X-1710890Y-4328484D02*
X-1691842Y-4338008D01*
X-1691842Y-4338008D02*
X-1682318Y-4347531D01*
X-1682318Y-4347531D02*
X-1672795Y-4366579D01*
X-1672795Y-4366579D02*
X-1663271Y-4404674D01*
X-1663271Y-4404674D02*
X-1663271Y-4452293D01*
X-1663271Y-4452293D02*
X-1672795Y-4490389D01*
X-1672795Y-4490389D02*
X-1682318Y-4509436D01*
X-1682318Y-4509436D02*
X-1691842Y-4518960D01*
X-1691842Y-4518960D02*
X-1710890Y-4528484D01*
X-1710890Y-4528484D02*
X-1729937Y-4528484D01*
X-1729937Y-4528484D02*
X-1748985Y-4518960D01*
X-1748985Y-4518960D02*
X-1758509Y-4509436D01*
X-1758509Y-4509436D02*
X-1768033Y-4490389D01*
X-1768033Y-4490389D02*
X-1777556Y-4452293D01*
X-1777556Y-4452293D02*
X-1777556Y-4404674D01*
X-1777556Y-4404674D02*
X-1768033Y-4366579D01*
X-1768033Y-4366579D02*
X-1758509Y-4347531D01*
X-1758509Y-4347531D02*
X-1748985Y-4338008D01*
X-1748985Y-4338008D02*
X-1729937Y-4328484D01*
X-1539461Y-4328484D02*
X-1520414Y-4328484D01*
X-1520414Y-4328484D02*
X-1501366Y-4338008D01*
X-1501366Y-4338008D02*
X-1491842Y-4347531D01*
X-1491842Y-4347531D02*
X-1482318Y-4366579D01*
X-1482318Y-4366579D02*
X-1472795Y-4404674D01*
X-1472795Y-4404674D02*
X-1472795Y-4452293D01*
X-1472795Y-4452293D02*
X-1482318Y-4490389D01*
X-1482318Y-4490389D02*
X-1491842Y-4509436D01*
X-1491842Y-4509436D02*
X-1501366Y-4518960D01*
X-1501366Y-4518960D02*
X-1520414Y-4528484D01*
X-1520414Y-4528484D02*
X-1539461Y-4528484D01*
X-1539461Y-4528484D02*
X-1558509Y-4518960D01*
X-1558509Y-4518960D02*
X-1568033Y-4509436D01*
X-1568033Y-4509436D02*
X-1577556Y-4490389D01*
X-1577556Y-4490389D02*
X-1587080Y-4452293D01*
X-1587080Y-4452293D02*
X-1587080Y-4404674D01*
X-1587080Y-4404674D02*
X-1577556Y-4366579D01*
X-1577556Y-4366579D02*
X-1568033Y-4347531D01*
X-1568033Y-4347531D02*
X-1558509Y-4338008D01*
X-1558509Y-4338008D02*
X-1539461Y-4328484D01*
X-1387080Y-4528484D02*
X-1387080Y-4395150D01*
X-1387080Y-4414198D02*
X-1377557Y-4404674D01*
X-1377557Y-4404674D02*
X-1358509Y-4395150D01*
X-1358509Y-4395150D02*
X-1329937Y-4395150D01*
X-1329937Y-4395150D02*
X-1310890Y-4404674D01*
X-1310890Y-4404674D02*
X-1301366Y-4423722D01*
X-1301366Y-4423722D02*
X-1301366Y-4528484D01*
X-1301366Y-4423722D02*
X-1291842Y-4404674D01*
X-1291842Y-4404674D02*
X-1272795Y-4395150D01*
X-1272795Y-4395150D02*
X-1244223Y-4395150D01*
X-1244223Y-4395150D02*
X-1225176Y-4404674D01*
X-1225176Y-4404674D02*
X-1215652Y-4423722D01*
X-1215652Y-4423722D02*
X-1215652Y-4528484D01*
X-1120414Y-4528484D02*
X-1120414Y-4395150D01*
X-1120414Y-4414198D02*
X-1110890Y-4404674D01*
X-1110890Y-4404674D02*
X-1091842Y-4395150D01*
X-1091842Y-4395150D02*
X-1063271Y-4395150D01*
X-1063271Y-4395150D02*
X-1044223Y-4404674D01*
X-1044223Y-4404674D02*
X-1034699Y-4423722D01*
X-1034699Y-4423722D02*
X-1034699Y-4528484D01*
X-1034699Y-4423722D02*
X-1025175Y-4404674D01*
X-1025175Y-4404674D02*
X-1006128Y-4395150D01*
X-1006128Y-4395150D02*
X-977556Y-4395150D01*
X-977556Y-4395150D02*
X-958509Y-4404674D01*
X-958509Y-4404674D02*
X-948985Y-4423722D01*
X-948985Y-4423722D02*
X-948985Y-4528484D01*
X-558509Y-4318960D02*
X-729937Y-4576103D01*
X-301366Y-4328484D02*
X-282318Y-4328484D01*
X-282318Y-4328484D02*
X-263271Y-4338008D01*
X-263271Y-4338008D02*
X-253747Y-4347531D01*
X-253747Y-4347531D02*
X-244223Y-4366579D01*
X-244223Y-4366579D02*
X-234699Y-4404674D01*
X-234699Y-4404674D02*
X-234699Y-4452293D01*
X-234699Y-4452293D02*
X-244223Y-4490389D01*
X-244223Y-4490389D02*
X-253747Y-4509436D01*
X-253747Y-4509436D02*
X-263271Y-4518960D01*
X-263271Y-4518960D02*
X-282318Y-4528484D01*
X-282318Y-4528484D02*
X-301366Y-4528484D01*
X-301366Y-4528484D02*
X-320414Y-4518960D01*
X-320414Y-4518960D02*
X-329937Y-4509436D01*
X-329937Y-4509436D02*
X-339461Y-4490389D01*
X-339461Y-4490389D02*
X-348985Y-4452293D01*
X-348985Y-4452293D02*
X-348985Y-4404674D01*
X-348985Y-4404674D02*
X-339461Y-4366579D01*
X-339461Y-4366579D02*
X-329937Y-4347531D01*
X-329937Y-4347531D02*
X-320414Y-4338008D01*
X-320414Y-4338008D02*
X-301366Y-4328484D01*
X-148985Y-4509436D02*
X-139461Y-4518960D01*
X-139461Y-4518960D02*
X-148985Y-4528484D01*
X-148985Y-4528484D02*
X-158509Y-4518960D01*
X-158509Y-4518960D02*
X-148985Y-4509436D01*
X-148985Y-4509436D02*
X-148985Y-4528484D01*
X-15652Y-4328484D02*
X3396Y-4328484D01*
X3396Y-4328484D02*
X22444Y-4338008D01*
X22444Y-4338008D02*
X31967Y-4347531D01*
X31967Y-4347531D02*
X41491Y-4366579D01*
X41491Y-4366579D02*
X51015Y-4404674D01*
X51015Y-4404674D02*
X51015Y-4452293D01*
X51015Y-4452293D02*
X41491Y-4490389D01*
X41491Y-4490389D02*
X31967Y-4509436D01*
X31967Y-4509436D02*
X22444Y-4518960D01*
X22444Y-4518960D02*
X3396Y-4528484D01*
X3396Y-4528484D02*
X-15652Y-4528484D01*
X-15652Y-4528484D02*
X-34699Y-4518960D01*
X-34699Y-4518960D02*
X-44223Y-4509436D01*
X-44223Y-4509436D02*
X-53747Y-4490389D01*
X-53747Y-4490389D02*
X-63271Y-4452293D01*
X-63271Y-4452293D02*
X-63271Y-4404674D01*
X-63271Y-4404674D02*
X-53747Y-4366579D01*
X-53747Y-4366579D02*
X-44223Y-4347531D01*
X-44223Y-4347531D02*
X-34699Y-4338008D01*
X-34699Y-4338008D02*
X-15652Y-4328484D01*
X117682Y-4328484D02*
X241491Y-4328484D01*
X241491Y-4328484D02*
X174825Y-4404674D01*
X174825Y-4404674D02*
X203396Y-4404674D01*
X203396Y-4404674D02*
X222444Y-4414198D01*
X222444Y-4414198D02*
X231967Y-4423722D01*
X231967Y-4423722D02*
X241491Y-4442770D01*
X241491Y-4442770D02*
X241491Y-4490389D01*
X241491Y-4490389D02*
X231967Y-4509436D01*
X231967Y-4509436D02*
X222444Y-4518960D01*
X222444Y-4518960D02*
X203396Y-4528484D01*
X203396Y-4528484D02*
X146253Y-4528484D01*
X146253Y-4528484D02*
X127206Y-4518960D01*
X127206Y-4518960D02*
X117682Y-4509436D01*
X431967Y-4528484D02*
X317682Y-4528484D01*
X374825Y-4528484D02*
X374825Y-4328484D01*
X374825Y-4328484D02*
X355777Y-4357055D01*
X355777Y-4357055D02*
X336729Y-4376103D01*
X336729Y-4376103D02*
X317682Y-4385627D01*
X612920Y-4328484D02*
X517682Y-4328484D01*
X517682Y-4328484D02*
X508158Y-4423722D01*
X508158Y-4423722D02*
X517682Y-4414198D01*
X517682Y-4414198D02*
X536729Y-4404674D01*
X536729Y-4404674D02*
X584349Y-4404674D01*
X584349Y-4404674D02*
X603396Y-4414198D01*
X603396Y-4414198D02*
X612920Y-4423722D01*
X612920Y-4423722D02*
X622444Y-4442770D01*
X622444Y-4442770D02*
X622444Y-4490389D01*
X622444Y-4490389D02*
X612920Y-4509436D01*
X612920Y-4509436D02*
X603396Y-4518960D01*
X603396Y-4518960D02*
X584349Y-4528484D01*
X584349Y-4528484D02*
X536729Y-4528484D01*
X536729Y-4528484D02*
X517682Y-4518960D01*
X517682Y-4518960D02*
X508158Y-4509436D01*
X698634Y-4328484D02*
X698634Y-4366579D01*
X774825Y-4328484D02*
X774825Y-4366579D01*
X1070063Y-4604674D02*
X1060539Y-4595150D01*
X1060539Y-4595150D02*
X1041491Y-4566579D01*
X1041491Y-4566579D02*
X1031968Y-4547531D01*
X1031968Y-4547531D02*
X1022444Y-4518960D01*
X1022444Y-4518960D02*
X1012920Y-4471341D01*
X1012920Y-4471341D02*
X1012920Y-4433246D01*
X1012920Y-4433246D02*
X1022444Y-4385627D01*
X1022444Y-4385627D02*
X1031968Y-4357055D01*
X1031968Y-4357055D02*
X1041491Y-4338008D01*
X1041491Y-4338008D02*
X1060539Y-4309436D01*
X1060539Y-4309436D02*
X1070063Y-4299912D01*
X1174825Y-4414198D02*
X1155777Y-4404674D01*
X1155777Y-4404674D02*
X1146253Y-4395150D01*
X1146253Y-4395150D02*
X1136730Y-4376103D01*
X1136730Y-4376103D02*
X1136730Y-4366579D01*
X1136730Y-4366579D02*
X1146253Y-4347531D01*
X1146253Y-4347531D02*
X1155777Y-4338008D01*
X1155777Y-4338008D02*
X1174825Y-4328484D01*
X1174825Y-4328484D02*
X1212920Y-4328484D01*
X1212920Y-4328484D02*
X1231968Y-4338008D01*
X1231968Y-4338008D02*
X1241491Y-4347531D01*
X1241491Y-4347531D02*
X1251015Y-4366579D01*
X1251015Y-4366579D02*
X1251015Y-4376103D01*
X1251015Y-4376103D02*
X1241491Y-4395150D01*
X1241491Y-4395150D02*
X1231968Y-4404674D01*
X1231968Y-4404674D02*
X1212920Y-4414198D01*
X1212920Y-4414198D02*
X1174825Y-4414198D01*
X1174825Y-4414198D02*
X1155777Y-4423722D01*
X1155777Y-4423722D02*
X1146253Y-4433246D01*
X1146253Y-4433246D02*
X1136730Y-4452293D01*
X1136730Y-4452293D02*
X1136730Y-4490389D01*
X1136730Y-4490389D02*
X1146253Y-4509436D01*
X1146253Y-4509436D02*
X1155777Y-4518960D01*
X1155777Y-4518960D02*
X1174825Y-4528484D01*
X1174825Y-4528484D02*
X1212920Y-4528484D01*
X1212920Y-4528484D02*
X1231968Y-4518960D01*
X1231968Y-4518960D02*
X1241491Y-4509436D01*
X1241491Y-4509436D02*
X1251015Y-4490389D01*
X1251015Y-4490389D02*
X1251015Y-4452293D01*
X1251015Y-4452293D02*
X1241491Y-4433246D01*
X1241491Y-4433246D02*
X1231968Y-4423722D01*
X1231968Y-4423722D02*
X1212920Y-4414198D01*
X1489110Y-4528484D02*
X1489110Y-4328484D01*
X1574825Y-4528484D02*
X1574825Y-4423722D01*
X1574825Y-4423722D02*
X1565301Y-4404674D01*
X1565301Y-4404674D02*
X1546253Y-4395150D01*
X1546253Y-4395150D02*
X1517682Y-4395150D01*
X1517682Y-4395150D02*
X1498634Y-4404674D01*
X1498634Y-4404674D02*
X1489110Y-4414198D01*
X1698634Y-4528484D02*
X1679587Y-4518960D01*
X1679587Y-4518960D02*
X1670063Y-4509436D01*
X1670063Y-4509436D02*
X1660539Y-4490389D01*
X1660539Y-4490389D02*
X1660539Y-4433246D01*
X1660539Y-4433246D02*
X1670063Y-4414198D01*
X1670063Y-4414198D02*
X1679587Y-4404674D01*
X1679587Y-4404674D02*
X1698634Y-4395150D01*
X1698634Y-4395150D02*
X1727206Y-4395150D01*
X1727206Y-4395150D02*
X1746253Y-4404674D01*
X1746253Y-4404674D02*
X1755777Y-4414198D01*
X1755777Y-4414198D02*
X1765301Y-4433246D01*
X1765301Y-4433246D02*
X1765301Y-4490389D01*
X1765301Y-4490389D02*
X1755777Y-4509436D01*
X1755777Y-4509436D02*
X1746253Y-4518960D01*
X1746253Y-4518960D02*
X1727206Y-4528484D01*
X1727206Y-4528484D02*
X1698634Y-4528484D01*
X1879587Y-4528484D02*
X1860539Y-4518960D01*
X1860539Y-4518960D02*
X1851015Y-4499912D01*
X1851015Y-4499912D02*
X1851015Y-4328484D01*
X2031968Y-4518960D02*
X2012920Y-4528484D01*
X2012920Y-4528484D02*
X1974825Y-4528484D01*
X1974825Y-4528484D02*
X1955777Y-4518960D01*
X1955777Y-4518960D02*
X1946253Y-4499912D01*
X1946253Y-4499912D02*
X1946253Y-4423722D01*
X1946253Y-4423722D02*
X1955777Y-4404674D01*
X1955777Y-4404674D02*
X1974825Y-4395150D01*
X1974825Y-4395150D02*
X2012920Y-4395150D01*
X2012920Y-4395150D02*
X2031968Y-4404674D01*
X2031968Y-4404674D02*
X2041491Y-4423722D01*
X2041491Y-4423722D02*
X2041491Y-4442770D01*
X2041491Y-4442770D02*
X1946253Y-4461817D01*
X2117682Y-4518960D02*
X2136730Y-4528484D01*
X2136730Y-4528484D02*
X2174825Y-4528484D01*
X2174825Y-4528484D02*
X2193873Y-4518960D01*
X2193873Y-4518960D02*
X2203396Y-4499912D01*
X2203396Y-4499912D02*
X2203396Y-4490389D01*
X2203396Y-4490389D02*
X2193873Y-4471341D01*
X2193873Y-4471341D02*
X2174825Y-4461817D01*
X2174825Y-4461817D02*
X2146253Y-4461817D01*
X2146253Y-4461817D02*
X2127206Y-4452293D01*
X2127206Y-4452293D02*
X2117682Y-4433246D01*
X2117682Y-4433246D02*
X2117682Y-4423722D01*
X2117682Y-4423722D02*
X2127206Y-4404674D01*
X2127206Y-4404674D02*
X2146253Y-4395150D01*
X2146253Y-4395150D02*
X2174825Y-4395150D01*
X2174825Y-4395150D02*
X2193873Y-4404674D01*
X2270063Y-4604674D02*
X2279587Y-4595150D01*
X2279587Y-4595150D02*
X2298634Y-4566579D01*
X2298634Y-4566579D02*
X2308158Y-4547531D01*
X2308158Y-4547531D02*
X2317682Y-4518960D01*
X2317682Y-4518960D02*
X2327206Y-4471341D01*
X2327206Y-4471341D02*
X2327206Y-4433246D01*
X2327206Y-4433246D02*
X2317682Y-4385627D01*
X2317682Y-4385627D02*
X2308158Y-4357055D01*
X2308158Y-4357055D02*
X2298634Y-4338008D01*
X2298634Y-4338008D02*
X2279587Y-4309436D01*
X2279587Y-4309436D02*
X2270063Y-4299912D01*
D10*
X-2555000Y-4751000D02*
X-2505000Y-4701000D01*
X-2555000Y-4651000D01*
X-2605000Y-4701000D01*
X-2555000Y-4751000D01*
D11*
X-2139461Y-4792484D02*
X-2253747Y-4792484D01*
X-2196604Y-4792484D02*
X-2196604Y-4592484D01*
X-2196604Y-4592484D02*
X-2215652Y-4621055D01*
X-2215652Y-4621055D02*
X-2234699Y-4640103D01*
X-2234699Y-4640103D02*
X-2253747Y-4649627D01*
X-2053747Y-4773436D02*
X-2044223Y-4782960D01*
X-2044223Y-4782960D02*
X-2053747Y-4792484D01*
X-2053747Y-4792484D02*
X-2063271Y-4782960D01*
X-2063271Y-4782960D02*
X-2053747Y-4773436D01*
X-2053747Y-4773436D02*
X-2053747Y-4792484D01*
X-1920414Y-4592484D02*
X-1901366Y-4592484D01*
X-1901366Y-4592484D02*
X-1882318Y-4602008D01*
X-1882318Y-4602008D02*
X-1872795Y-4611531D01*
X-1872795Y-4611531D02*
X-1863271Y-4630579D01*
X-1863271Y-4630579D02*
X-1853747Y-4668674D01*
X-1853747Y-4668674D02*
X-1853747Y-4716293D01*
X-1853747Y-4716293D02*
X-1863271Y-4754389D01*
X-1863271Y-4754389D02*
X-1872795Y-4773436D01*
X-1872795Y-4773436D02*
X-1882318Y-4782960D01*
X-1882318Y-4782960D02*
X-1901366Y-4792484D01*
X-1901366Y-4792484D02*
X-1920414Y-4792484D01*
X-1920414Y-4792484D02*
X-1939461Y-4782960D01*
X-1939461Y-4782960D02*
X-1948985Y-4773436D01*
X-1948985Y-4773436D02*
X-1958509Y-4754389D01*
X-1958509Y-4754389D02*
X-1968033Y-4716293D01*
X-1968033Y-4716293D02*
X-1968033Y-4668674D01*
X-1968033Y-4668674D02*
X-1958509Y-4630579D01*
X-1958509Y-4630579D02*
X-1948985Y-4611531D01*
X-1948985Y-4611531D02*
X-1939461Y-4602008D01*
X-1939461Y-4602008D02*
X-1920414Y-4592484D01*
X-1729937Y-4592484D02*
X-1710890Y-4592484D01*
X-1710890Y-4592484D02*
X-1691842Y-4602008D01*
X-1691842Y-4602008D02*
X-1682318Y-4611531D01*
X-1682318Y-4611531D02*
X-1672795Y-4630579D01*
X-1672795Y-4630579D02*
X-1663271Y-4668674D01*
X-1663271Y-4668674D02*
X-1663271Y-4716293D01*
X-1663271Y-4716293D02*
X-1672795Y-4754389D01*
X-1672795Y-4754389D02*
X-1682318Y-4773436D01*
X-1682318Y-4773436D02*
X-1691842Y-4782960D01*
X-1691842Y-4782960D02*
X-1710890Y-4792484D01*
X-1710890Y-4792484D02*
X-1729937Y-4792484D01*
X-1729937Y-4792484D02*
X-1748985Y-4782960D01*
X-1748985Y-4782960D02*
X-1758509Y-4773436D01*
X-1758509Y-4773436D02*
X-1768033Y-4754389D01*
X-1768033Y-4754389D02*
X-1777556Y-4716293D01*
X-1777556Y-4716293D02*
X-1777556Y-4668674D01*
X-1777556Y-4668674D02*
X-1768033Y-4630579D01*
X-1768033Y-4630579D02*
X-1758509Y-4611531D01*
X-1758509Y-4611531D02*
X-1748985Y-4602008D01*
X-1748985Y-4602008D02*
X-1729937Y-4592484D01*
X-1539461Y-4592484D02*
X-1520414Y-4592484D01*
X-1520414Y-4592484D02*
X-1501366Y-4602008D01*
X-1501366Y-4602008D02*
X-1491842Y-4611531D01*
X-1491842Y-4611531D02*
X-1482318Y-4630579D01*
X-1482318Y-4630579D02*
X-1472795Y-4668674D01*
X-1472795Y-4668674D02*
X-1472795Y-4716293D01*
X-1472795Y-4716293D02*
X-1482318Y-4754389D01*
X-1482318Y-4754389D02*
X-1491842Y-4773436D01*
X-1491842Y-4773436D02*
X-1501366Y-4782960D01*
X-1501366Y-4782960D02*
X-1520414Y-4792484D01*
X-1520414Y-4792484D02*
X-1539461Y-4792484D01*
X-1539461Y-4792484D02*
X-1558509Y-4782960D01*
X-1558509Y-4782960D02*
X-1568033Y-4773436D01*
X-1568033Y-4773436D02*
X-1577556Y-4754389D01*
X-1577556Y-4754389D02*
X-1587080Y-4716293D01*
X-1587080Y-4716293D02*
X-1587080Y-4668674D01*
X-1587080Y-4668674D02*
X-1577556Y-4630579D01*
X-1577556Y-4630579D02*
X-1568033Y-4611531D01*
X-1568033Y-4611531D02*
X-1558509Y-4602008D01*
X-1558509Y-4602008D02*
X-1539461Y-4592484D01*
X-1387080Y-4792484D02*
X-1387080Y-4659150D01*
X-1387080Y-4678198D02*
X-1377557Y-4668674D01*
X-1377557Y-4668674D02*
X-1358509Y-4659150D01*
X-1358509Y-4659150D02*
X-1329937Y-4659150D01*
X-1329937Y-4659150D02*
X-1310890Y-4668674D01*
X-1310890Y-4668674D02*
X-1301366Y-4687722D01*
X-1301366Y-4687722D02*
X-1301366Y-4792484D01*
X-1301366Y-4687722D02*
X-1291842Y-4668674D01*
X-1291842Y-4668674D02*
X-1272795Y-4659150D01*
X-1272795Y-4659150D02*
X-1244223Y-4659150D01*
X-1244223Y-4659150D02*
X-1225176Y-4668674D01*
X-1225176Y-4668674D02*
X-1215652Y-4687722D01*
X-1215652Y-4687722D02*
X-1215652Y-4792484D01*
X-1120414Y-4792484D02*
X-1120414Y-4659150D01*
X-1120414Y-4678198D02*
X-1110890Y-4668674D01*
X-1110890Y-4668674D02*
X-1091842Y-4659150D01*
X-1091842Y-4659150D02*
X-1063271Y-4659150D01*
X-1063271Y-4659150D02*
X-1044223Y-4668674D01*
X-1044223Y-4668674D02*
X-1034699Y-4687722D01*
X-1034699Y-4687722D02*
X-1034699Y-4792484D01*
X-1034699Y-4687722D02*
X-1025175Y-4668674D01*
X-1025175Y-4668674D02*
X-1006128Y-4659150D01*
X-1006128Y-4659150D02*
X-977556Y-4659150D01*
X-977556Y-4659150D02*
X-958509Y-4668674D01*
X-958509Y-4668674D02*
X-948985Y-4687722D01*
X-948985Y-4687722D02*
X-948985Y-4792484D01*
X-558509Y-4582960D02*
X-729937Y-4840103D01*
X-301366Y-4592484D02*
X-282318Y-4592484D01*
X-282318Y-4592484D02*
X-263271Y-4602008D01*
X-263271Y-4602008D02*
X-253747Y-4611531D01*
X-253747Y-4611531D02*
X-244223Y-4630579D01*
X-244223Y-4630579D02*
X-234699Y-4668674D01*
X-234699Y-4668674D02*
X-234699Y-4716293D01*
X-234699Y-4716293D02*
X-244223Y-4754389D01*
X-244223Y-4754389D02*
X-253747Y-4773436D01*
X-253747Y-4773436D02*
X-263271Y-4782960D01*
X-263271Y-4782960D02*
X-282318Y-4792484D01*
X-282318Y-4792484D02*
X-301366Y-4792484D01*
X-301366Y-4792484D02*
X-320414Y-4782960D01*
X-320414Y-4782960D02*
X-329937Y-4773436D01*
X-329937Y-4773436D02*
X-339461Y-4754389D01*
X-339461Y-4754389D02*
X-348985Y-4716293D01*
X-348985Y-4716293D02*
X-348985Y-4668674D01*
X-348985Y-4668674D02*
X-339461Y-4630579D01*
X-339461Y-4630579D02*
X-329937Y-4611531D01*
X-329937Y-4611531D02*
X-320414Y-4602008D01*
X-320414Y-4602008D02*
X-301366Y-4592484D01*
X-148985Y-4773436D02*
X-139461Y-4782960D01*
X-139461Y-4782960D02*
X-148985Y-4792484D01*
X-148985Y-4792484D02*
X-158509Y-4782960D01*
X-158509Y-4782960D02*
X-148985Y-4773436D01*
X-148985Y-4773436D02*
X-148985Y-4792484D01*
X-15652Y-4592484D02*
X3396Y-4592484D01*
X3396Y-4592484D02*
X22444Y-4602008D01*
X22444Y-4602008D02*
X31967Y-4611531D01*
X31967Y-4611531D02*
X41491Y-4630579D01*
X41491Y-4630579D02*
X51015Y-4668674D01*
X51015Y-4668674D02*
X51015Y-4716293D01*
X51015Y-4716293D02*
X41491Y-4754389D01*
X41491Y-4754389D02*
X31967Y-4773436D01*
X31967Y-4773436D02*
X22444Y-4782960D01*
X22444Y-4782960D02*
X3396Y-4792484D01*
X3396Y-4792484D02*
X-15652Y-4792484D01*
X-15652Y-4792484D02*
X-34699Y-4782960D01*
X-34699Y-4782960D02*
X-44223Y-4773436D01*
X-44223Y-4773436D02*
X-53747Y-4754389D01*
X-53747Y-4754389D02*
X-63271Y-4716293D01*
X-63271Y-4716293D02*
X-63271Y-4668674D01*
X-63271Y-4668674D02*
X-53747Y-4630579D01*
X-53747Y-4630579D02*
X-44223Y-4611531D01*
X-44223Y-4611531D02*
X-34699Y-4602008D01*
X-34699Y-4602008D02*
X-15652Y-4592484D01*
X117682Y-4592484D02*
X241491Y-4592484D01*
X241491Y-4592484D02*
X174825Y-4668674D01*
X174825Y-4668674D02*
X203396Y-4668674D01*
X203396Y-4668674D02*
X222444Y-4678198D01*
X222444Y-4678198D02*
X231967Y-4687722D01*
X231967Y-4687722D02*
X241491Y-4706770D01*
X241491Y-4706770D02*
X241491Y-4754389D01*
X241491Y-4754389D02*
X231967Y-4773436D01*
X231967Y-4773436D02*
X222444Y-4782960D01*
X222444Y-4782960D02*
X203396Y-4792484D01*
X203396Y-4792484D02*
X146253Y-4792484D01*
X146253Y-4792484D02*
X127206Y-4782960D01*
X127206Y-4782960D02*
X117682Y-4773436D01*
X336729Y-4792484D02*
X374825Y-4792484D01*
X374825Y-4792484D02*
X393872Y-4782960D01*
X393872Y-4782960D02*
X403396Y-4773436D01*
X403396Y-4773436D02*
X422444Y-4744865D01*
X422444Y-4744865D02*
X431967Y-4706770D01*
X431967Y-4706770D02*
X431967Y-4630579D01*
X431967Y-4630579D02*
X422444Y-4611531D01*
X422444Y-4611531D02*
X412920Y-4602008D01*
X412920Y-4602008D02*
X393872Y-4592484D01*
X393872Y-4592484D02*
X355777Y-4592484D01*
X355777Y-4592484D02*
X336729Y-4602008D01*
X336729Y-4602008D02*
X327206Y-4611531D01*
X327206Y-4611531D02*
X317682Y-4630579D01*
X317682Y-4630579D02*
X317682Y-4678198D01*
X317682Y-4678198D02*
X327206Y-4697246D01*
X327206Y-4697246D02*
X336729Y-4706770D01*
X336729Y-4706770D02*
X355777Y-4716293D01*
X355777Y-4716293D02*
X393872Y-4716293D01*
X393872Y-4716293D02*
X412920Y-4706770D01*
X412920Y-4706770D02*
X422444Y-4697246D01*
X422444Y-4697246D02*
X431967Y-4678198D01*
X603396Y-4659150D02*
X603396Y-4792484D01*
X555777Y-4582960D02*
X508158Y-4725817D01*
X508158Y-4725817D02*
X631968Y-4725817D01*
X698634Y-4592484D02*
X698634Y-4630579D01*
X774825Y-4592484D02*
X774825Y-4630579D01*
X1070063Y-4868674D02*
X1060539Y-4859150D01*
X1060539Y-4859150D02*
X1041491Y-4830579D01*
X1041491Y-4830579D02*
X1031968Y-4811531D01*
X1031968Y-4811531D02*
X1022444Y-4782960D01*
X1022444Y-4782960D02*
X1012920Y-4735341D01*
X1012920Y-4735341D02*
X1012920Y-4697246D01*
X1012920Y-4697246D02*
X1022444Y-4649627D01*
X1022444Y-4649627D02*
X1031968Y-4621055D01*
X1031968Y-4621055D02*
X1041491Y-4602008D01*
X1041491Y-4602008D02*
X1060539Y-4573436D01*
X1060539Y-4573436D02*
X1070063Y-4563912D01*
X1127206Y-4592484D02*
X1251015Y-4592484D01*
X1251015Y-4592484D02*
X1184349Y-4668674D01*
X1184349Y-4668674D02*
X1212920Y-4668674D01*
X1212920Y-4668674D02*
X1231968Y-4678198D01*
X1231968Y-4678198D02*
X1241491Y-4687722D01*
X1241491Y-4687722D02*
X1251015Y-4706770D01*
X1251015Y-4706770D02*
X1251015Y-4754389D01*
X1251015Y-4754389D02*
X1241491Y-4773436D01*
X1241491Y-4773436D02*
X1231968Y-4782960D01*
X1231968Y-4782960D02*
X1212920Y-4792484D01*
X1212920Y-4792484D02*
X1155777Y-4792484D01*
X1155777Y-4792484D02*
X1136730Y-4782960D01*
X1136730Y-4782960D02*
X1127206Y-4773436D01*
X1327206Y-4611531D02*
X1336730Y-4602008D01*
X1336730Y-4602008D02*
X1355777Y-4592484D01*
X1355777Y-4592484D02*
X1403396Y-4592484D01*
X1403396Y-4592484D02*
X1422444Y-4602008D01*
X1422444Y-4602008D02*
X1431968Y-4611531D01*
X1431968Y-4611531D02*
X1441491Y-4630579D01*
X1441491Y-4630579D02*
X1441491Y-4649627D01*
X1441491Y-4649627D02*
X1431968Y-4678198D01*
X1431968Y-4678198D02*
X1317682Y-4792484D01*
X1317682Y-4792484D02*
X1441491Y-4792484D01*
X1679587Y-4792484D02*
X1679587Y-4592484D01*
X1765301Y-4792484D02*
X1765301Y-4687722D01*
X1765301Y-4687722D02*
X1755777Y-4668674D01*
X1755777Y-4668674D02*
X1736730Y-4659150D01*
X1736730Y-4659150D02*
X1708158Y-4659150D01*
X1708158Y-4659150D02*
X1689110Y-4668674D01*
X1689110Y-4668674D02*
X1679587Y-4678198D01*
X1889110Y-4792484D02*
X1870063Y-4782960D01*
X1870063Y-4782960D02*
X1860539Y-4773436D01*
X1860539Y-4773436D02*
X1851015Y-4754389D01*
X1851015Y-4754389D02*
X1851015Y-4697246D01*
X1851015Y-4697246D02*
X1860539Y-4678198D01*
X1860539Y-4678198D02*
X1870063Y-4668674D01*
X1870063Y-4668674D02*
X1889110Y-4659150D01*
X1889110Y-4659150D02*
X1917682Y-4659150D01*
X1917682Y-4659150D02*
X1936730Y-4668674D01*
X1936730Y-4668674D02*
X1946253Y-4678198D01*
X1946253Y-4678198D02*
X1955777Y-4697246D01*
X1955777Y-4697246D02*
X1955777Y-4754389D01*
X1955777Y-4754389D02*
X1946253Y-4773436D01*
X1946253Y-4773436D02*
X1936730Y-4782960D01*
X1936730Y-4782960D02*
X1917682Y-4792484D01*
X1917682Y-4792484D02*
X1889110Y-4792484D01*
X2070063Y-4792484D02*
X2051015Y-4782960D01*
X2051015Y-4782960D02*
X2041491Y-4763912D01*
X2041491Y-4763912D02*
X2041491Y-4592484D01*
X2222444Y-4782960D02*
X2203396Y-4792484D01*
X2203396Y-4792484D02*
X2165301Y-4792484D01*
X2165301Y-4792484D02*
X2146253Y-4782960D01*
X2146253Y-4782960D02*
X2136730Y-4763912D01*
X2136730Y-4763912D02*
X2136730Y-4687722D01*
X2136730Y-4687722D02*
X2146253Y-4668674D01*
X2146253Y-4668674D02*
X2165301Y-4659150D01*
X2165301Y-4659150D02*
X2203396Y-4659150D01*
X2203396Y-4659150D02*
X2222444Y-4668674D01*
X2222444Y-4668674D02*
X2231968Y-4687722D01*
X2231968Y-4687722D02*
X2231968Y-4706770D01*
X2231968Y-4706770D02*
X2136730Y-4725817D01*
X2308158Y-4782960D02*
X2327206Y-4792484D01*
X2327206Y-4792484D02*
X2365301Y-4792484D01*
X2365301Y-4792484D02*
X2384349Y-4782960D01*
X2384349Y-4782960D02*
X2393873Y-4763912D01*
X2393873Y-4763912D02*
X2393873Y-4754389D01*
X2393873Y-4754389D02*
X2384349Y-4735341D01*
X2384349Y-4735341D02*
X2365301Y-4725817D01*
X2365301Y-4725817D02*
X2336730Y-4725817D01*
X2336730Y-4725817D02*
X2317682Y-4716293D01*
X2317682Y-4716293D02*
X2308158Y-4697246D01*
X2308158Y-4697246D02*
X2308158Y-4687722D01*
X2308158Y-4687722D02*
X2317682Y-4668674D01*
X2317682Y-4668674D02*
X2336730Y-4659150D01*
X2336730Y-4659150D02*
X2365301Y-4659150D01*
X2365301Y-4659150D02*
X2384349Y-4668674D01*
X2460539Y-4868674D02*
X2470063Y-4859150D01*
X2470063Y-4859150D02*
X2489111Y-4830579D01*
X2489111Y-4830579D02*
X2498634Y-4811531D01*
X2498634Y-4811531D02*
X2508158Y-4782960D01*
X2508158Y-4782960D02*
X2517682Y-4735341D01*
X2517682Y-4735341D02*
X2517682Y-4697246D01*
X2517682Y-4697246D02*
X2508158Y-4649627D01*
X2508158Y-4649627D02*
X2498634Y-4621055D01*
X2498634Y-4621055D02*
X2489111Y-4602008D01*
X2489111Y-4602008D02*
X2470063Y-4573436D01*
X2470063Y-4573436D02*
X2460539Y-4563912D01*
D16*
X-2615000Y-4910000D02*
X-2505000Y-5020000D01*
X-2505000Y-4910000D02*
X-2615000Y-5020000D01*
X-2505000Y-4965000D02*
G75*
G03*
X-2505000Y-4965000I-55000J0D01*
G01*
D11*
X-2139461Y-5056484D02*
X-2253747Y-5056484D01*
X-2196604Y-5056484D02*
X-2196604Y-4856484D01*
X-2196604Y-4856484D02*
X-2215652Y-4885055D01*
X-2215652Y-4885055D02*
X-2234699Y-4904103D01*
X-2234699Y-4904103D02*
X-2253747Y-4913627D01*
X-2053747Y-5037436D02*
X-2044223Y-5046960D01*
X-2044223Y-5046960D02*
X-2053747Y-5056484D01*
X-2053747Y-5056484D02*
X-2063271Y-5046960D01*
X-2063271Y-5046960D02*
X-2053747Y-5037436D01*
X-2053747Y-5037436D02*
X-2053747Y-5056484D01*
X-1853747Y-5056484D02*
X-1968033Y-5056484D01*
X-1910890Y-5056484D02*
X-1910890Y-4856484D01*
X-1910890Y-4856484D02*
X-1929937Y-4885055D01*
X-1929937Y-4885055D02*
X-1948985Y-4904103D01*
X-1948985Y-4904103D02*
X-1968033Y-4913627D01*
X-1729937Y-4856484D02*
X-1710890Y-4856484D01*
X-1710890Y-4856484D02*
X-1691842Y-4866008D01*
X-1691842Y-4866008D02*
X-1682318Y-4875531D01*
X-1682318Y-4875531D02*
X-1672795Y-4894579D01*
X-1672795Y-4894579D02*
X-1663271Y-4932674D01*
X-1663271Y-4932674D02*
X-1663271Y-4980293D01*
X-1663271Y-4980293D02*
X-1672795Y-5018389D01*
X-1672795Y-5018389D02*
X-1682318Y-5037436D01*
X-1682318Y-5037436D02*
X-1691842Y-5046960D01*
X-1691842Y-5046960D02*
X-1710890Y-5056484D01*
X-1710890Y-5056484D02*
X-1729937Y-5056484D01*
X-1729937Y-5056484D02*
X-1748985Y-5046960D01*
X-1748985Y-5046960D02*
X-1758509Y-5037436D01*
X-1758509Y-5037436D02*
X-1768033Y-5018389D01*
X-1768033Y-5018389D02*
X-1777556Y-4980293D01*
X-1777556Y-4980293D02*
X-1777556Y-4932674D01*
X-1777556Y-4932674D02*
X-1768033Y-4894579D01*
X-1768033Y-4894579D02*
X-1758509Y-4875531D01*
X-1758509Y-4875531D02*
X-1748985Y-4866008D01*
X-1748985Y-4866008D02*
X-1729937Y-4856484D01*
X-1539461Y-4856484D02*
X-1520414Y-4856484D01*
X-1520414Y-4856484D02*
X-1501366Y-4866008D01*
X-1501366Y-4866008D02*
X-1491842Y-4875531D01*
X-1491842Y-4875531D02*
X-1482318Y-4894579D01*
X-1482318Y-4894579D02*
X-1472795Y-4932674D01*
X-1472795Y-4932674D02*
X-1472795Y-4980293D01*
X-1472795Y-4980293D02*
X-1482318Y-5018389D01*
X-1482318Y-5018389D02*
X-1491842Y-5037436D01*
X-1491842Y-5037436D02*
X-1501366Y-5046960D01*
X-1501366Y-5046960D02*
X-1520414Y-5056484D01*
X-1520414Y-5056484D02*
X-1539461Y-5056484D01*
X-1539461Y-5056484D02*
X-1558509Y-5046960D01*
X-1558509Y-5046960D02*
X-1568033Y-5037436D01*
X-1568033Y-5037436D02*
X-1577556Y-5018389D01*
X-1577556Y-5018389D02*
X-1587080Y-4980293D01*
X-1587080Y-4980293D02*
X-1587080Y-4932674D01*
X-1587080Y-4932674D02*
X-1577556Y-4894579D01*
X-1577556Y-4894579D02*
X-1568033Y-4875531D01*
X-1568033Y-4875531D02*
X-1558509Y-4866008D01*
X-1558509Y-4866008D02*
X-1539461Y-4856484D01*
X-1387080Y-5056484D02*
X-1387080Y-4923150D01*
X-1387080Y-4942198D02*
X-1377557Y-4932674D01*
X-1377557Y-4932674D02*
X-1358509Y-4923150D01*
X-1358509Y-4923150D02*
X-1329937Y-4923150D01*
X-1329937Y-4923150D02*
X-1310890Y-4932674D01*
X-1310890Y-4932674D02*
X-1301366Y-4951722D01*
X-1301366Y-4951722D02*
X-1301366Y-5056484D01*
X-1301366Y-4951722D02*
X-1291842Y-4932674D01*
X-1291842Y-4932674D02*
X-1272795Y-4923150D01*
X-1272795Y-4923150D02*
X-1244223Y-4923150D01*
X-1244223Y-4923150D02*
X-1225176Y-4932674D01*
X-1225176Y-4932674D02*
X-1215652Y-4951722D01*
X-1215652Y-4951722D02*
X-1215652Y-5056484D01*
X-1120414Y-5056484D02*
X-1120414Y-4923150D01*
X-1120414Y-4942198D02*
X-1110890Y-4932674D01*
X-1110890Y-4932674D02*
X-1091842Y-4923150D01*
X-1091842Y-4923150D02*
X-1063271Y-4923150D01*
X-1063271Y-4923150D02*
X-1044223Y-4932674D01*
X-1044223Y-4932674D02*
X-1034699Y-4951722D01*
X-1034699Y-4951722D02*
X-1034699Y-5056484D01*
X-1034699Y-4951722D02*
X-1025175Y-4932674D01*
X-1025175Y-4932674D02*
X-1006128Y-4923150D01*
X-1006128Y-4923150D02*
X-977556Y-4923150D01*
X-977556Y-4923150D02*
X-958509Y-4932674D01*
X-958509Y-4932674D02*
X-948985Y-4951722D01*
X-948985Y-4951722D02*
X-948985Y-5056484D01*
X-558509Y-4846960D02*
X-729937Y-5104103D01*
X-301366Y-4856484D02*
X-282318Y-4856484D01*
X-282318Y-4856484D02*
X-263271Y-4866008D01*
X-263271Y-4866008D02*
X-253747Y-4875531D01*
X-253747Y-4875531D02*
X-244223Y-4894579D01*
X-244223Y-4894579D02*
X-234699Y-4932674D01*
X-234699Y-4932674D02*
X-234699Y-4980293D01*
X-234699Y-4980293D02*
X-244223Y-5018389D01*
X-244223Y-5018389D02*
X-253747Y-5037436D01*
X-253747Y-5037436D02*
X-263271Y-5046960D01*
X-263271Y-5046960D02*
X-282318Y-5056484D01*
X-282318Y-5056484D02*
X-301366Y-5056484D01*
X-301366Y-5056484D02*
X-320414Y-5046960D01*
X-320414Y-5046960D02*
X-329937Y-5037436D01*
X-329937Y-5037436D02*
X-339461Y-5018389D01*
X-339461Y-5018389D02*
X-348985Y-4980293D01*
X-348985Y-4980293D02*
X-348985Y-4932674D01*
X-348985Y-4932674D02*
X-339461Y-4894579D01*
X-339461Y-4894579D02*
X-329937Y-4875531D01*
X-329937Y-4875531D02*
X-320414Y-4866008D01*
X-320414Y-4866008D02*
X-301366Y-4856484D01*
X-148985Y-5037436D02*
X-139461Y-5046960D01*
X-139461Y-5046960D02*
X-148985Y-5056484D01*
X-148985Y-5056484D02*
X-158509Y-5046960D01*
X-158509Y-5046960D02*
X-148985Y-5037436D01*
X-148985Y-5037436D02*
X-148985Y-5056484D01*
X-15652Y-4856484D02*
X3396Y-4856484D01*
X3396Y-4856484D02*
X22444Y-4866008D01*
X22444Y-4866008D02*
X31967Y-4875531D01*
X31967Y-4875531D02*
X41491Y-4894579D01*
X41491Y-4894579D02*
X51015Y-4932674D01*
X51015Y-4932674D02*
X51015Y-4980293D01*
X51015Y-4980293D02*
X41491Y-5018389D01*
X41491Y-5018389D02*
X31967Y-5037436D01*
X31967Y-5037436D02*
X22444Y-5046960D01*
X22444Y-5046960D02*
X3396Y-5056484D01*
X3396Y-5056484D02*
X-15652Y-5056484D01*
X-15652Y-5056484D02*
X-34699Y-5046960D01*
X-34699Y-5046960D02*
X-44223Y-5037436D01*
X-44223Y-5037436D02*
X-53747Y-5018389D01*
X-53747Y-5018389D02*
X-63271Y-4980293D01*
X-63271Y-4980293D02*
X-63271Y-4932674D01*
X-63271Y-4932674D02*
X-53747Y-4894579D01*
X-53747Y-4894579D02*
X-44223Y-4875531D01*
X-44223Y-4875531D02*
X-34699Y-4866008D01*
X-34699Y-4866008D02*
X-15652Y-4856484D01*
X222444Y-4923150D02*
X222444Y-5056484D01*
X174825Y-4846960D02*
X127206Y-4989817D01*
X127206Y-4989817D02*
X251015Y-4989817D01*
X308158Y-4856484D02*
X431967Y-4856484D01*
X431967Y-4856484D02*
X365301Y-4932674D01*
X365301Y-4932674D02*
X393872Y-4932674D01*
X393872Y-4932674D02*
X412920Y-4942198D01*
X412920Y-4942198D02*
X422444Y-4951722D01*
X422444Y-4951722D02*
X431967Y-4970770D01*
X431967Y-4970770D02*
X431967Y-5018389D01*
X431967Y-5018389D02*
X422444Y-5037436D01*
X422444Y-5037436D02*
X412920Y-5046960D01*
X412920Y-5046960D02*
X393872Y-5056484D01*
X393872Y-5056484D02*
X336729Y-5056484D01*
X336729Y-5056484D02*
X317682Y-5046960D01*
X317682Y-5046960D02*
X308158Y-5037436D01*
X498634Y-4856484D02*
X622444Y-4856484D01*
X622444Y-4856484D02*
X555777Y-4932674D01*
X555777Y-4932674D02*
X584349Y-4932674D01*
X584349Y-4932674D02*
X603396Y-4942198D01*
X603396Y-4942198D02*
X612920Y-4951722D01*
X612920Y-4951722D02*
X622444Y-4970770D01*
X622444Y-4970770D02*
X622444Y-5018389D01*
X622444Y-5018389D02*
X612920Y-5037436D01*
X612920Y-5037436D02*
X603396Y-5046960D01*
X603396Y-5046960D02*
X584349Y-5056484D01*
X584349Y-5056484D02*
X527206Y-5056484D01*
X527206Y-5056484D02*
X508158Y-5046960D01*
X508158Y-5046960D02*
X498634Y-5037436D01*
X698634Y-4856484D02*
X698634Y-4894579D01*
X774825Y-4856484D02*
X774825Y-4894579D01*
X1070063Y-5132674D02*
X1060539Y-5123150D01*
X1060539Y-5123150D02*
X1041491Y-5094579D01*
X1041491Y-5094579D02*
X1031968Y-5075531D01*
X1031968Y-5075531D02*
X1022444Y-5046960D01*
X1022444Y-5046960D02*
X1012920Y-4999341D01*
X1012920Y-4999341D02*
X1012920Y-4961246D01*
X1012920Y-4961246D02*
X1022444Y-4913627D01*
X1022444Y-4913627D02*
X1031968Y-4885055D01*
X1031968Y-4885055D02*
X1041491Y-4866008D01*
X1041491Y-4866008D02*
X1060539Y-4837436D01*
X1060539Y-4837436D02*
X1070063Y-4827912D01*
X1136730Y-4875531D02*
X1146253Y-4866008D01*
X1146253Y-4866008D02*
X1165301Y-4856484D01*
X1165301Y-4856484D02*
X1212920Y-4856484D01*
X1212920Y-4856484D02*
X1231968Y-4866008D01*
X1231968Y-4866008D02*
X1241491Y-4875531D01*
X1241491Y-4875531D02*
X1251015Y-4894579D01*
X1251015Y-4894579D02*
X1251015Y-4913627D01*
X1251015Y-4913627D02*
X1241491Y-4942198D01*
X1241491Y-4942198D02*
X1127206Y-5056484D01*
X1127206Y-5056484D02*
X1251015Y-5056484D01*
X1489110Y-5056484D02*
X1489110Y-4856484D01*
X1574825Y-5056484D02*
X1574825Y-4951722D01*
X1574825Y-4951722D02*
X1565301Y-4932674D01*
X1565301Y-4932674D02*
X1546253Y-4923150D01*
X1546253Y-4923150D02*
X1517682Y-4923150D01*
X1517682Y-4923150D02*
X1498634Y-4932674D01*
X1498634Y-4932674D02*
X1489110Y-4942198D01*
X1698634Y-5056484D02*
X1679587Y-5046960D01*
X1679587Y-5046960D02*
X1670063Y-5037436D01*
X1670063Y-5037436D02*
X1660539Y-5018389D01*
X1660539Y-5018389D02*
X1660539Y-4961246D01*
X1660539Y-4961246D02*
X1670063Y-4942198D01*
X1670063Y-4942198D02*
X1679587Y-4932674D01*
X1679587Y-4932674D02*
X1698634Y-4923150D01*
X1698634Y-4923150D02*
X1727206Y-4923150D01*
X1727206Y-4923150D02*
X1746253Y-4932674D01*
X1746253Y-4932674D02*
X1755777Y-4942198D01*
X1755777Y-4942198D02*
X1765301Y-4961246D01*
X1765301Y-4961246D02*
X1765301Y-5018389D01*
X1765301Y-5018389D02*
X1755777Y-5037436D01*
X1755777Y-5037436D02*
X1746253Y-5046960D01*
X1746253Y-5046960D02*
X1727206Y-5056484D01*
X1727206Y-5056484D02*
X1698634Y-5056484D01*
X1879587Y-5056484D02*
X1860539Y-5046960D01*
X1860539Y-5046960D02*
X1851015Y-5027912D01*
X1851015Y-5027912D02*
X1851015Y-4856484D01*
X2031968Y-5046960D02*
X2012920Y-5056484D01*
X2012920Y-5056484D02*
X1974825Y-5056484D01*
X1974825Y-5056484D02*
X1955777Y-5046960D01*
X1955777Y-5046960D02*
X1946253Y-5027912D01*
X1946253Y-5027912D02*
X1946253Y-4951722D01*
X1946253Y-4951722D02*
X1955777Y-4932674D01*
X1955777Y-4932674D02*
X1974825Y-4923150D01*
X1974825Y-4923150D02*
X2012920Y-4923150D01*
X2012920Y-4923150D02*
X2031968Y-4932674D01*
X2031968Y-4932674D02*
X2041491Y-4951722D01*
X2041491Y-4951722D02*
X2041491Y-4970770D01*
X2041491Y-4970770D02*
X1946253Y-4989817D01*
X2117682Y-5046960D02*
X2136730Y-5056484D01*
X2136730Y-5056484D02*
X2174825Y-5056484D01*
X2174825Y-5056484D02*
X2193873Y-5046960D01*
X2193873Y-5046960D02*
X2203396Y-5027912D01*
X2203396Y-5027912D02*
X2203396Y-5018389D01*
X2203396Y-5018389D02*
X2193873Y-4999341D01*
X2193873Y-4999341D02*
X2174825Y-4989817D01*
X2174825Y-4989817D02*
X2146253Y-4989817D01*
X2146253Y-4989817D02*
X2127206Y-4980293D01*
X2127206Y-4980293D02*
X2117682Y-4961246D01*
X2117682Y-4961246D02*
X2117682Y-4951722D01*
X2117682Y-4951722D02*
X2127206Y-4932674D01*
X2127206Y-4932674D02*
X2146253Y-4923150D01*
X2146253Y-4923150D02*
X2174825Y-4923150D01*
X2174825Y-4923150D02*
X2193873Y-4932674D01*
X2270063Y-5132674D02*
X2279587Y-5123150D01*
X2279587Y-5123150D02*
X2298634Y-5094579D01*
X2298634Y-5094579D02*
X2308158Y-5075531D01*
X2308158Y-5075531D02*
X2317682Y-5046960D01*
X2317682Y-5046960D02*
X2327206Y-4999341D01*
X2327206Y-4999341D02*
X2327206Y-4961246D01*
X2327206Y-4961246D02*
X2317682Y-4913627D01*
X2317682Y-4913627D02*
X2308158Y-4885055D01*
X2308158Y-4885055D02*
X2298634Y-4866008D01*
X2298634Y-4866008D02*
X2279587Y-4837436D01*
X2279587Y-4837436D02*
X2270063Y-4827912D01*
D17*
X-2635000Y-5164000D02*
X-2505000Y-5294000D01*
X-2505000Y-5164000D02*
X-2635000Y-5294000D01*
X-2570000Y-5164000D02*
X-2570000Y-5294000D01*
X-2635000Y-5229000D02*
X-2505000Y-5229000D01*
D11*
X-2139461Y-5320484D02*
X-2253747Y-5320484D01*
X-2196604Y-5320484D02*
X-2196604Y-5120484D01*
X-2196604Y-5120484D02*
X-2215652Y-5149055D01*
X-2215652Y-5149055D02*
X-2234699Y-5168103D01*
X-2234699Y-5168103D02*
X-2253747Y-5177627D01*
X-2053747Y-5301436D02*
X-2044223Y-5310960D01*
X-2044223Y-5310960D02*
X-2053747Y-5320484D01*
X-2053747Y-5320484D02*
X-2063271Y-5310960D01*
X-2063271Y-5310960D02*
X-2053747Y-5301436D01*
X-2053747Y-5301436D02*
X-2053747Y-5320484D01*
X-1977556Y-5120484D02*
X-1853747Y-5120484D01*
X-1853747Y-5120484D02*
X-1920414Y-5196674D01*
X-1920414Y-5196674D02*
X-1891842Y-5196674D01*
X-1891842Y-5196674D02*
X-1872795Y-5206198D01*
X-1872795Y-5206198D02*
X-1863271Y-5215722D01*
X-1863271Y-5215722D02*
X-1853747Y-5234770D01*
X-1853747Y-5234770D02*
X-1853747Y-5282389D01*
X-1853747Y-5282389D02*
X-1863271Y-5301436D01*
X-1863271Y-5301436D02*
X-1872795Y-5310960D01*
X-1872795Y-5310960D02*
X-1891842Y-5320484D01*
X-1891842Y-5320484D02*
X-1948985Y-5320484D01*
X-1948985Y-5320484D02*
X-1968033Y-5310960D01*
X-1968033Y-5310960D02*
X-1977556Y-5301436D01*
X-1729937Y-5120484D02*
X-1710890Y-5120484D01*
X-1710890Y-5120484D02*
X-1691842Y-5130008D01*
X-1691842Y-5130008D02*
X-1682318Y-5139531D01*
X-1682318Y-5139531D02*
X-1672795Y-5158579D01*
X-1672795Y-5158579D02*
X-1663271Y-5196674D01*
X-1663271Y-5196674D02*
X-1663271Y-5244293D01*
X-1663271Y-5244293D02*
X-1672795Y-5282389D01*
X-1672795Y-5282389D02*
X-1682318Y-5301436D01*
X-1682318Y-5301436D02*
X-1691842Y-5310960D01*
X-1691842Y-5310960D02*
X-1710890Y-5320484D01*
X-1710890Y-5320484D02*
X-1729937Y-5320484D01*
X-1729937Y-5320484D02*
X-1748985Y-5310960D01*
X-1748985Y-5310960D02*
X-1758509Y-5301436D01*
X-1758509Y-5301436D02*
X-1768033Y-5282389D01*
X-1768033Y-5282389D02*
X-1777556Y-5244293D01*
X-1777556Y-5244293D02*
X-1777556Y-5196674D01*
X-1777556Y-5196674D02*
X-1768033Y-5158579D01*
X-1768033Y-5158579D02*
X-1758509Y-5139531D01*
X-1758509Y-5139531D02*
X-1748985Y-5130008D01*
X-1748985Y-5130008D02*
X-1729937Y-5120484D01*
X-1539461Y-5120484D02*
X-1520414Y-5120484D01*
X-1520414Y-5120484D02*
X-1501366Y-5130008D01*
X-1501366Y-5130008D02*
X-1491842Y-5139531D01*
X-1491842Y-5139531D02*
X-1482318Y-5158579D01*
X-1482318Y-5158579D02*
X-1472795Y-5196674D01*
X-1472795Y-5196674D02*
X-1472795Y-5244293D01*
X-1472795Y-5244293D02*
X-1482318Y-5282389D01*
X-1482318Y-5282389D02*
X-1491842Y-5301436D01*
X-1491842Y-5301436D02*
X-1501366Y-5310960D01*
X-1501366Y-5310960D02*
X-1520414Y-5320484D01*
X-1520414Y-5320484D02*
X-1539461Y-5320484D01*
X-1539461Y-5320484D02*
X-1558509Y-5310960D01*
X-1558509Y-5310960D02*
X-1568033Y-5301436D01*
X-1568033Y-5301436D02*
X-1577556Y-5282389D01*
X-1577556Y-5282389D02*
X-1587080Y-5244293D01*
X-1587080Y-5244293D02*
X-1587080Y-5196674D01*
X-1587080Y-5196674D02*
X-1577556Y-5158579D01*
X-1577556Y-5158579D02*
X-1568033Y-5139531D01*
X-1568033Y-5139531D02*
X-1558509Y-5130008D01*
X-1558509Y-5130008D02*
X-1539461Y-5120484D01*
X-1387080Y-5320484D02*
X-1387080Y-5187150D01*
X-1387080Y-5206198D02*
X-1377557Y-5196674D01*
X-1377557Y-5196674D02*
X-1358509Y-5187150D01*
X-1358509Y-5187150D02*
X-1329937Y-5187150D01*
X-1329937Y-5187150D02*
X-1310890Y-5196674D01*
X-1310890Y-5196674D02*
X-1301366Y-5215722D01*
X-1301366Y-5215722D02*
X-1301366Y-5320484D01*
X-1301366Y-5215722D02*
X-1291842Y-5196674D01*
X-1291842Y-5196674D02*
X-1272795Y-5187150D01*
X-1272795Y-5187150D02*
X-1244223Y-5187150D01*
X-1244223Y-5187150D02*
X-1225176Y-5196674D01*
X-1225176Y-5196674D02*
X-1215652Y-5215722D01*
X-1215652Y-5215722D02*
X-1215652Y-5320484D01*
X-1120414Y-5320484D02*
X-1120414Y-5187150D01*
X-1120414Y-5206198D02*
X-1110890Y-5196674D01*
X-1110890Y-5196674D02*
X-1091842Y-5187150D01*
X-1091842Y-5187150D02*
X-1063271Y-5187150D01*
X-1063271Y-5187150D02*
X-1044223Y-5196674D01*
X-1044223Y-5196674D02*
X-1034699Y-5215722D01*
X-1034699Y-5215722D02*
X-1034699Y-5320484D01*
X-1034699Y-5215722D02*
X-1025175Y-5196674D01*
X-1025175Y-5196674D02*
X-1006128Y-5187150D01*
X-1006128Y-5187150D02*
X-977556Y-5187150D01*
X-977556Y-5187150D02*
X-958509Y-5196674D01*
X-958509Y-5196674D02*
X-948985Y-5215722D01*
X-948985Y-5215722D02*
X-948985Y-5320484D01*
X-558509Y-5110960D02*
X-729937Y-5368103D01*
X-301366Y-5120484D02*
X-282318Y-5120484D01*
X-282318Y-5120484D02*
X-263271Y-5130008D01*
X-263271Y-5130008D02*
X-253747Y-5139531D01*
X-253747Y-5139531D02*
X-244223Y-5158579D01*
X-244223Y-5158579D02*
X-234699Y-5196674D01*
X-234699Y-5196674D02*
X-234699Y-5244293D01*
X-234699Y-5244293D02*
X-244223Y-5282389D01*
X-244223Y-5282389D02*
X-253747Y-5301436D01*
X-253747Y-5301436D02*
X-263271Y-5310960D01*
X-263271Y-5310960D02*
X-282318Y-5320484D01*
X-282318Y-5320484D02*
X-301366Y-5320484D01*
X-301366Y-5320484D02*
X-320414Y-5310960D01*
X-320414Y-5310960D02*
X-329937Y-5301436D01*
X-329937Y-5301436D02*
X-339461Y-5282389D01*
X-339461Y-5282389D02*
X-348985Y-5244293D01*
X-348985Y-5244293D02*
X-348985Y-5196674D01*
X-348985Y-5196674D02*
X-339461Y-5158579D01*
X-339461Y-5158579D02*
X-329937Y-5139531D01*
X-329937Y-5139531D02*
X-320414Y-5130008D01*
X-320414Y-5130008D02*
X-301366Y-5120484D01*
X-148985Y-5301436D02*
X-139461Y-5310960D01*
X-139461Y-5310960D02*
X-148985Y-5320484D01*
X-148985Y-5320484D02*
X-158509Y-5310960D01*
X-158509Y-5310960D02*
X-148985Y-5301436D01*
X-148985Y-5301436D02*
X-148985Y-5320484D01*
X-15652Y-5120484D02*
X3396Y-5120484D01*
X3396Y-5120484D02*
X22444Y-5130008D01*
X22444Y-5130008D02*
X31967Y-5139531D01*
X31967Y-5139531D02*
X41491Y-5158579D01*
X41491Y-5158579D02*
X51015Y-5196674D01*
X51015Y-5196674D02*
X51015Y-5244293D01*
X51015Y-5244293D02*
X41491Y-5282389D01*
X41491Y-5282389D02*
X31967Y-5301436D01*
X31967Y-5301436D02*
X22444Y-5310960D01*
X22444Y-5310960D02*
X3396Y-5320484D01*
X3396Y-5320484D02*
X-15652Y-5320484D01*
X-15652Y-5320484D02*
X-34699Y-5310960D01*
X-34699Y-5310960D02*
X-44223Y-5301436D01*
X-44223Y-5301436D02*
X-53747Y-5282389D01*
X-53747Y-5282389D02*
X-63271Y-5244293D01*
X-63271Y-5244293D02*
X-63271Y-5196674D01*
X-63271Y-5196674D02*
X-53747Y-5158579D01*
X-53747Y-5158579D02*
X-44223Y-5139531D01*
X-44223Y-5139531D02*
X-34699Y-5130008D01*
X-34699Y-5130008D02*
X-15652Y-5120484D01*
X231967Y-5120484D02*
X136729Y-5120484D01*
X136729Y-5120484D02*
X127206Y-5215722D01*
X127206Y-5215722D02*
X136729Y-5206198D01*
X136729Y-5206198D02*
X155777Y-5196674D01*
X155777Y-5196674D02*
X203396Y-5196674D01*
X203396Y-5196674D02*
X222444Y-5206198D01*
X222444Y-5206198D02*
X231967Y-5215722D01*
X231967Y-5215722D02*
X241491Y-5234770D01*
X241491Y-5234770D02*
X241491Y-5282389D01*
X241491Y-5282389D02*
X231967Y-5301436D01*
X231967Y-5301436D02*
X222444Y-5310960D01*
X222444Y-5310960D02*
X203396Y-5320484D01*
X203396Y-5320484D02*
X155777Y-5320484D01*
X155777Y-5320484D02*
X136729Y-5310960D01*
X136729Y-5310960D02*
X127206Y-5301436D01*
X431967Y-5320484D02*
X317682Y-5320484D01*
X374825Y-5320484D02*
X374825Y-5120484D01*
X374825Y-5120484D02*
X355777Y-5149055D01*
X355777Y-5149055D02*
X336729Y-5168103D01*
X336729Y-5168103D02*
X317682Y-5177627D01*
X508158Y-5139531D02*
X517682Y-5130008D01*
X517682Y-5130008D02*
X536729Y-5120484D01*
X536729Y-5120484D02*
X584349Y-5120484D01*
X584349Y-5120484D02*
X603396Y-5130008D01*
X603396Y-5130008D02*
X612920Y-5139531D01*
X612920Y-5139531D02*
X622444Y-5158579D01*
X622444Y-5158579D02*
X622444Y-5177627D01*
X622444Y-5177627D02*
X612920Y-5206198D01*
X612920Y-5206198D02*
X498634Y-5320484D01*
X498634Y-5320484D02*
X622444Y-5320484D01*
X698634Y-5120484D02*
X698634Y-5158579D01*
X774825Y-5120484D02*
X774825Y-5158579D01*
X1070063Y-5396674D02*
X1060539Y-5387150D01*
X1060539Y-5387150D02*
X1041491Y-5358579D01*
X1041491Y-5358579D02*
X1031968Y-5339531D01*
X1031968Y-5339531D02*
X1022444Y-5310960D01*
X1022444Y-5310960D02*
X1012920Y-5263341D01*
X1012920Y-5263341D02*
X1012920Y-5225246D01*
X1012920Y-5225246D02*
X1022444Y-5177627D01*
X1022444Y-5177627D02*
X1031968Y-5149055D01*
X1031968Y-5149055D02*
X1041491Y-5130008D01*
X1041491Y-5130008D02*
X1060539Y-5101436D01*
X1060539Y-5101436D02*
X1070063Y-5091912D01*
X1231968Y-5187150D02*
X1231968Y-5320484D01*
X1184349Y-5110960D02*
X1136730Y-5253817D01*
X1136730Y-5253817D02*
X1260539Y-5253817D01*
X1489110Y-5320484D02*
X1489110Y-5120484D01*
X1574825Y-5320484D02*
X1574825Y-5215722D01*
X1574825Y-5215722D02*
X1565301Y-5196674D01*
X1565301Y-5196674D02*
X1546253Y-5187150D01*
X1546253Y-5187150D02*
X1517682Y-5187150D01*
X1517682Y-5187150D02*
X1498634Y-5196674D01*
X1498634Y-5196674D02*
X1489110Y-5206198D01*
X1698634Y-5320484D02*
X1679587Y-5310960D01*
X1679587Y-5310960D02*
X1670063Y-5301436D01*
X1670063Y-5301436D02*
X1660539Y-5282389D01*
X1660539Y-5282389D02*
X1660539Y-5225246D01*
X1660539Y-5225246D02*
X1670063Y-5206198D01*
X1670063Y-5206198D02*
X1679587Y-5196674D01*
X1679587Y-5196674D02*
X1698634Y-5187150D01*
X1698634Y-5187150D02*
X1727206Y-5187150D01*
X1727206Y-5187150D02*
X1746253Y-5196674D01*
X1746253Y-5196674D02*
X1755777Y-5206198D01*
X1755777Y-5206198D02*
X1765301Y-5225246D01*
X1765301Y-5225246D02*
X1765301Y-5282389D01*
X1765301Y-5282389D02*
X1755777Y-5301436D01*
X1755777Y-5301436D02*
X1746253Y-5310960D01*
X1746253Y-5310960D02*
X1727206Y-5320484D01*
X1727206Y-5320484D02*
X1698634Y-5320484D01*
X1879587Y-5320484D02*
X1860539Y-5310960D01*
X1860539Y-5310960D02*
X1851015Y-5291912D01*
X1851015Y-5291912D02*
X1851015Y-5120484D01*
X2031968Y-5310960D02*
X2012920Y-5320484D01*
X2012920Y-5320484D02*
X1974825Y-5320484D01*
X1974825Y-5320484D02*
X1955777Y-5310960D01*
X1955777Y-5310960D02*
X1946253Y-5291912D01*
X1946253Y-5291912D02*
X1946253Y-5215722D01*
X1946253Y-5215722D02*
X1955777Y-5196674D01*
X1955777Y-5196674D02*
X1974825Y-5187150D01*
X1974825Y-5187150D02*
X2012920Y-5187150D01*
X2012920Y-5187150D02*
X2031968Y-5196674D01*
X2031968Y-5196674D02*
X2041491Y-5215722D01*
X2041491Y-5215722D02*
X2041491Y-5234770D01*
X2041491Y-5234770D02*
X1946253Y-5253817D01*
X2117682Y-5310960D02*
X2136730Y-5320484D01*
X2136730Y-5320484D02*
X2174825Y-5320484D01*
X2174825Y-5320484D02*
X2193873Y-5310960D01*
X2193873Y-5310960D02*
X2203396Y-5291912D01*
X2203396Y-5291912D02*
X2203396Y-5282389D01*
X2203396Y-5282389D02*
X2193873Y-5263341D01*
X2193873Y-5263341D02*
X2174825Y-5253817D01*
X2174825Y-5253817D02*
X2146253Y-5253817D01*
X2146253Y-5253817D02*
X2127206Y-5244293D01*
X2127206Y-5244293D02*
X2117682Y-5225246D01*
X2117682Y-5225246D02*
X2117682Y-5215722D01*
X2117682Y-5215722D02*
X2127206Y-5196674D01*
X2127206Y-5196674D02*
X2146253Y-5187150D01*
X2146253Y-5187150D02*
X2174825Y-5187150D01*
X2174825Y-5187150D02*
X2193873Y-5196674D01*
X2270063Y-5396674D02*
X2279587Y-5387150D01*
X2279587Y-5387150D02*
X2298634Y-5358579D01*
X2298634Y-5358579D02*
X2308158Y-5339531D01*
X2308158Y-5339531D02*
X2317682Y-5310960D01*
X2317682Y-5310960D02*
X2327206Y-5263341D01*
X2327206Y-5263341D02*
X2327206Y-5225246D01*
X2327206Y-5225246D02*
X2317682Y-5177627D01*
X2317682Y-5177627D02*
X2308158Y-5149055D01*
X2308158Y-5149055D02*
X2298634Y-5130008D01*
X2298634Y-5130008D02*
X2279587Y-5101436D01*
X2279587Y-5101436D02*
X2270063Y-5091912D01*
M02*
