%TF.GenerationSoftware,KiCad,Pcbnew,7.0.5*%
%TF.CreationDate,2023-08-09T22:54:17+08:00*%
%TF.ProjectId,taiko_vibrator,7461696b-6f5f-4766-9962-7261746f722e,rev?*%
%TF.SameCoordinates,PX4524320PY42c1d80*%
%TF.FileFunction,Copper,L1,Top*%
%TF.FilePolarity,Positive*%
%FSLAX46Y46*%
G04 Gerber Fmt 4.6, Leading zero omitted, Abs format (unit mm)*
G04 Created by KiCad (PCBNEW 7.0.5) date 2023-08-09 22:54:17*
%MOMM*%
%LPD*%
G01*
G04 APERTURE LIST*
G04 Aperture macros list*
%AMRoundRect*
0 Rectangle with rounded corners*
0 $1 Rounding radius*
0 $2 $3 $4 $5 $6 $7 $8 $9 X,Y pos of 4 corners*
0 Add a 4 corners polygon primitive as box body*
4,1,4,$2,$3,$4,$5,$6,$7,$8,$9,$2,$3,0*
0 Add four circle primitives for the rounded corners*
1,1,$1+$1,$2,$3*
1,1,$1+$1,$4,$5*
1,1,$1+$1,$6,$7*
1,1,$1+$1,$8,$9*
0 Add four rect primitives between the rounded corners*
20,1,$1+$1,$2,$3,$4,$5,0*
20,1,$1+$1,$4,$5,$6,$7,0*
20,1,$1+$1,$6,$7,$8,$9,0*
20,1,$1+$1,$8,$9,$2,$3,0*%
G04 Aperture macros list end*
%TA.AperFunction,ComponentPad*%
%ADD10R,1.600000X1.600000*%
%TD*%
%TA.AperFunction,ComponentPad*%
%ADD11O,1.600000X1.600000*%
%TD*%
%TA.AperFunction,ComponentPad*%
%ADD12R,2.200000X2.200000*%
%TD*%
%TA.AperFunction,ComponentPad*%
%ADD13O,2.200000X2.200000*%
%TD*%
%TA.AperFunction,ComponentPad*%
%ADD14R,1.700000X1.700000*%
%TD*%
%TA.AperFunction,ComponentPad*%
%ADD15O,1.700000X1.700000*%
%TD*%
%TA.AperFunction,ComponentPad*%
%ADD16R,2.600000X2.600000*%
%TD*%
%TA.AperFunction,ComponentPad*%
%ADD17C,2.600000*%
%TD*%
%TA.AperFunction,SMDPad,CuDef*%
%ADD18RoundRect,0.150000X-0.587500X-0.150000X0.587500X-0.150000X0.587500X0.150000X-0.587500X0.150000X0*%
%TD*%
%TA.AperFunction,ComponentPad*%
%ADD19R,1.200000X1.200000*%
%TD*%
%TA.AperFunction,ComponentPad*%
%ADD20C,1.200000*%
%TD*%
%TA.AperFunction,ComponentPad*%
%ADD21C,1.600000*%
%TD*%
%TA.AperFunction,ComponentPad*%
%ADD22R,1.100000X1.100000*%
%TD*%
%TA.AperFunction,ComponentPad*%
%ADD23C,1.100000*%
%TD*%
%TA.AperFunction,ComponentPad*%
%ADD24O,1.100000X2.400000*%
%TD*%
%TA.AperFunction,ViaPad*%
%ADD25C,0.800000*%
%TD*%
%TA.AperFunction,Conductor*%
%ADD26C,0.500000*%
%TD*%
%TA.AperFunction,Conductor*%
%ADD27C,0.250000*%
%TD*%
G04 APERTURE END LIST*
D10*
%TO.P,D3,1,K*%
%TO.N,+5V_USB*%
X5500000Y-21310000D03*
D11*
%TO.P,D3,2,A*%
%TO.N,Net-(D3-A)*%
X5500000Y-13690000D03*
%TD*%
D12*
%TO.P,D1,1,K*%
%TO.N,+5V_MCU*%
X6920000Y14000000D03*
D13*
%TO.P,D1,2,A*%
%TO.N,+5V_USB*%
X17080000Y14000000D03*
%TD*%
D10*
%TO.P,A1,1,D1/TX*%
%TO.N,/TX*%
X-20110000Y19050000D03*
D11*
%TO.P,A1,2,D0/RX*%
%TO.N,unconnected-(A1-D0{slash}RX-Pad2)*%
X-20110000Y16510000D03*
%TO.P,A1,3,~{RESET}*%
%TO.N,unconnected-(A1-~{RESET}-Pad3)*%
X-20110000Y13970000D03*
%TO.P,A1,4,GND*%
%TO.N,GND*%
X-20110000Y11430000D03*
%TO.P,A1,5,D2*%
%TO.N,unconnected-(A1-D2-Pad5)*%
X-20110000Y8890000D03*
%TO.P,A1,6,D3*%
%TO.N,unconnected-(A1-D3-Pad6)*%
X-20110000Y6350000D03*
%TO.P,A1,7,D4*%
%TO.N,unconnected-(A1-D4-Pad7)*%
X-20110000Y3810000D03*
%TO.P,A1,8,D5*%
%TO.N,unconnected-(A1-D5-Pad8)*%
X-20110000Y1270000D03*
%TO.P,A1,9,D6*%
%TO.N,unconnected-(A1-D6-Pad9)*%
X-20110000Y-1270000D03*
%TO.P,A1,10,D7*%
%TO.N,unconnected-(A1-D7-Pad10)*%
X-20110000Y-3810000D03*
%TO.P,A1,11,D8*%
%TO.N,unconnected-(A1-D8-Pad11)*%
X-20110000Y-6350000D03*
%TO.P,A1,12,D9*%
%TO.N,/PWM1*%
X-20110000Y-8890000D03*
%TO.P,A1,13,D10*%
%TO.N,/PWM2*%
X-20110000Y-11430000D03*
%TO.P,A1,14,D11*%
%TO.N,unconnected-(A1-D11-Pad14)*%
X-20110000Y-13970000D03*
%TO.P,A1,15,D12*%
%TO.N,unconnected-(A1-D12-Pad15)*%
X-20110000Y-16510000D03*
%TO.P,A1,16,D13*%
%TO.N,unconnected-(A1-D13-Pad16)*%
X-4870000Y-16510000D03*
%TO.P,A1,17,3V3*%
%TO.N,unconnected-(A1-3V3-Pad17)*%
X-4870000Y-13970000D03*
%TO.P,A1,18,AREF*%
%TO.N,unconnected-(A1-AREF-Pad18)*%
X-4870000Y-11430000D03*
%TO.P,A1,19,A0*%
%TO.N,unconnected-(A1-A0-Pad19)*%
X-4870000Y-8890000D03*
%TO.P,A1,20,A1*%
%TO.N,unconnected-(A1-A1-Pad20)*%
X-4870000Y-6350000D03*
%TO.P,A1,21,A2*%
%TO.N,unconnected-(A1-A2-Pad21)*%
X-4870000Y-3810000D03*
%TO.P,A1,22,A3*%
%TO.N,unconnected-(A1-A3-Pad22)*%
X-4870000Y-1270000D03*
%TO.P,A1,23,A4*%
%TO.N,unconnected-(A1-A4-Pad23)*%
X-4870000Y1270000D03*
%TO.P,A1,24,A5*%
%TO.N,unconnected-(A1-A5-Pad24)*%
X-4870000Y3810000D03*
%TO.P,A1,25,A6*%
%TO.N,unconnected-(A1-A6-Pad25)*%
X-4870000Y6350000D03*
%TO.P,A1,26,A7*%
%TO.N,unconnected-(A1-A7-Pad26)*%
X-4870000Y8890000D03*
%TO.P,A1,27,+5V*%
%TO.N,+5V_MCU*%
X-4870000Y11430000D03*
%TO.P,A1,28,~{RESET}*%
%TO.N,unconnected-(A1-~{RESET}-Pad28)*%
X-4870000Y13970000D03*
%TO.P,A1,29,GND*%
%TO.N,GND*%
X-4870000Y16510000D03*
%TO.P,A1,30,VIN*%
%TO.N,unconnected-(A1-VIN-Pad30)*%
X-4870000Y19050000D03*
%TD*%
D10*
%TO.P,D2,1,K*%
%TO.N,+5V_USB*%
X5500000Y-3810000D03*
D11*
%TO.P,D2,2,A*%
%TO.N,Net-(D2-A)*%
X5500000Y3810000D03*
%TD*%
D14*
%TO.P,J4,1,Pin_1*%
%TO.N,GND*%
X-12500000Y28040000D03*
D15*
%TO.P,J4,2,Pin_2*%
%TO.N,/TX*%
X-12500000Y25500000D03*
%TD*%
D16*
%TO.P,J3,1,Pin_1*%
%TO.N,+5V_USB*%
X14500000Y-20000000D03*
D17*
%TO.P,J3,2,Pin_2*%
%TO.N,Net-(D3-A)*%
X14500000Y-15000000D03*
%TD*%
D18*
%TO.P,Q1,1,G*%
%TO.N,/PWM1*%
X-937500Y950000D03*
%TO.P,Q1,2,S*%
%TO.N,GND*%
X-937500Y-950000D03*
%TO.P,Q1,3,D*%
%TO.N,Net-(D2-A)*%
X937500Y0D03*
%TD*%
%TO.P,Q2,1,G*%
%TO.N,/PWM2*%
X-937500Y-16550000D03*
%TO.P,Q2,2,S*%
%TO.N,GND*%
X-937500Y-18450000D03*
%TO.P,Q2,3,D*%
%TO.N,Net-(D3-A)*%
X937500Y-17500000D03*
%TD*%
D16*
%TO.P,J2,1,Pin_1*%
%TO.N,+5V_USB*%
X14500000Y-2500000D03*
D17*
%TO.P,J2,2,Pin_2*%
%TO.N,Net-(D2-A)*%
X14500000Y2500000D03*
%TD*%
D19*
%TO.P,C1,1*%
%TO.N,+5V_USB*%
X2222599Y20000000D03*
D20*
%TO.P,C1,2*%
%TO.N,GND*%
X722599Y20000000D03*
%TD*%
D21*
%TO.P,R2,1*%
%TO.N,/PWM2*%
X420000Y-9000000D03*
D11*
%TO.P,R2,2*%
%TO.N,GND*%
X10580000Y-9000000D03*
%TD*%
D22*
%TO.P,J1,1,VBUS*%
%TO.N,+5V_USB*%
X10400000Y19175000D03*
D23*
%TO.P,J1,2,D-*%
%TO.N,unconnected-(J1-D--Pad2)*%
X11200000Y20925000D03*
%TO.P,J1,3,D+*%
%TO.N,unconnected-(J1-D+-Pad3)*%
X12000000Y19175000D03*
%TO.P,J1,4,ID*%
%TO.N,unconnected-(J1-ID-Pad4)*%
X12800000Y20925000D03*
%TO.P,J1,5,GND*%
%TO.N,GND*%
X13600000Y19175000D03*
D24*
%TO.P,J1,6,Shield*%
X8350000Y20050000D03*
X15650000Y20050000D03*
%TD*%
D21*
%TO.P,R1,1*%
%TO.N,/PWM1*%
X420000Y8500000D03*
D11*
%TO.P,R1,2*%
%TO.N,GND*%
X10580000Y8500000D03*
%TD*%
D25*
%TO.N,GND*%
X-1000000Y-20000000D03*
X-1000000Y-2500000D03*
%TD*%
D26*
%TO.N,GND*%
X-937500Y-2437500D02*
X-1000000Y-2500000D01*
X-937500Y-950000D02*
X-937500Y-2437500D01*
X-937500Y-18450000D02*
X-937500Y-19937500D01*
X-937500Y-19937500D02*
X-1000000Y-20000000D01*
%TO.N,+5V_MCU*%
X-4870000Y11430000D02*
X4350000Y11430000D01*
X4350000Y11430000D02*
X6920000Y14000000D01*
%TO.N,+5V_USB*%
X11500000Y11500000D02*
X19000000Y11500000D01*
X20000000Y10500000D02*
X20000000Y8500000D01*
X5500000Y-21310000D02*
X13190000Y-21310000D01*
X10400000Y12600000D02*
X11500000Y11500000D01*
X13190000Y-21310000D02*
X14500000Y-20000000D01*
X17080000Y14000000D02*
X10400000Y14000000D01*
X20000000Y8500000D02*
X20000000Y-2500000D01*
X20000000Y-2500000D02*
X20000000Y-9000000D01*
X20000000Y-9000000D02*
X20000000Y-14500000D01*
X14500000Y-2500000D02*
X20000000Y-2500000D01*
X10400000Y17500000D02*
X10400000Y14000000D01*
X19000000Y11500000D02*
X20000000Y10500000D01*
X2222599Y20000000D02*
X4722599Y17500000D01*
X4722599Y17500000D02*
X10400000Y17500000D01*
X13190000Y-3810000D02*
X14500000Y-2500000D01*
X20000000Y-14500000D02*
X14500000Y-20000000D01*
X10400000Y19175000D02*
X10400000Y17500000D01*
X5500000Y-3810000D02*
X13190000Y-3810000D01*
X10400000Y14000000D02*
X10400000Y12600000D01*
%TO.N,Net-(D2-A)*%
X937500Y0D02*
X1690000Y0D01*
X13190000Y3810000D02*
X14500000Y2500000D01*
X5500000Y3810000D02*
X13190000Y3810000D01*
X1690000Y0D02*
X5500000Y3810000D01*
D27*
%TO.N,/PWM2*%
X-13570000Y-11430000D02*
X-20110000Y-11430000D01*
X-937500Y-16550000D02*
X-2887500Y-18500000D01*
X420000Y-15192500D02*
X-937500Y-16550000D01*
X-2887500Y-18500000D02*
X-6500000Y-18500000D01*
X-6500000Y-18500000D02*
X-13570000Y-11430000D01*
X420000Y-9000000D02*
X420000Y-15192500D01*
%TO.N,/PWM1*%
X-20110000Y-8890000D02*
X-17390000Y-8890000D01*
X-8500000Y0D02*
X-1887500Y0D01*
X-17390000Y-8890000D02*
X-8500000Y0D01*
X-1887500Y0D02*
X-937500Y950000D01*
X-937500Y950000D02*
X420000Y2307500D01*
X420000Y2307500D02*
X420000Y8500000D01*
D26*
%TO.N,Net-(D3-A)*%
X13190000Y-13690000D02*
X14500000Y-15000000D01*
X937500Y-17500000D02*
X1690000Y-17500000D01*
X5500000Y-13690000D02*
X13190000Y-13690000D01*
X1690000Y-17500000D02*
X5500000Y-13690000D01*
D27*
%TO.N,/TX*%
X-18950000Y19050000D02*
X-12500000Y25500000D01*
X-20110000Y19050000D02*
X-18950000Y19050000D01*
%TD*%
M02*
