%TF.GenerationSoftware,KiCad,Pcbnew,7.0.5*%
%TF.CreationDate,2023-08-09T22:54:27+08:00*%
%TF.ProjectId,taiko_vibrator,7461696b-6f5f-4766-9962-7261746f722e,rev?*%
%TF.SameCoordinates,PX4524320PY42c1d80*%
%TF.FileFunction,Drillmap*%
%TF.FilePolarity,Positive*%
%FSLAX45Y45*%
G04 Gerber Fmt 4.5, Leading zero omitted, Abs format (unit mm)*
G04 Created by KiCad (PCBNEW 7.0.5) date 2023-08-09 22:54:27*
%MOMM*%
%LPD*%
G01*
G04 APERTURE LIST*
%ADD10C,0.100000*%
%ADD11C,0.200000*%
%ADD12C,0.270000*%
G04 APERTURE END LIST*
D10*
X2200000Y-3000000D02*
G75*
G03*
X2500000Y-2700000I0J300000D01*
G01*
X-2500000Y-2700000D02*
X-2500000Y2700000D01*
X2500000Y2700000D02*
G75*
G03*
X2200000Y3000000I-300000J0D01*
G01*
X2200000Y-3000000D02*
X-2200000Y-3000000D01*
X-2200000Y3000000D02*
G75*
G03*
X-2500000Y2700000I0J-300000D01*
G01*
X-2500000Y-2700000D02*
G75*
G03*
X-2200000Y-3000000I300000J0D01*
G01*
X-2200000Y3000000D02*
X2200000Y3000000D01*
X2500000Y2700000D02*
X2500000Y-2700000D01*
D11*
D10*
X-2061000Y2209000D02*
X-1961000Y2109000D01*
X-1961000Y2209000D02*
X-2061000Y2109000D01*
X-537000Y2209000D02*
X-437000Y2109000D01*
X-437000Y2209000D02*
X-537000Y2109000D01*
D12*
X-2065000Y2700000D02*
G75*
G03*
X-2065000Y2700000I-135000J0D01*
G01*
X-2065000Y-2700000D02*
G75*
G03*
X-2065000Y-2700000I-135000J0D01*
G01*
X2335000Y2700000D02*
G75*
G03*
X2335000Y2700000I-135000J0D01*
G01*
X2335000Y-2700000D02*
G75*
G03*
X2335000Y-2700000I-135000J0D01*
G01*
D11*
X-2244223Y-3316484D02*
X-2244223Y-3116484D01*
X-2244223Y-3116484D02*
X-2196604Y-3116484D01*
X-2196604Y-3116484D02*
X-2168033Y-3126008D01*
X-2168033Y-3126008D02*
X-2148985Y-3145055D01*
X-2148985Y-3145055D02*
X-2139461Y-3164103D01*
X-2139461Y-3164103D02*
X-2129938Y-3202198D01*
X-2129938Y-3202198D02*
X-2129938Y-3230769D01*
X-2129938Y-3230769D02*
X-2139461Y-3268865D01*
X-2139461Y-3268865D02*
X-2148985Y-3287912D01*
X-2148985Y-3287912D02*
X-2168033Y-3306960D01*
X-2168033Y-3306960D02*
X-2196604Y-3316484D01*
X-2196604Y-3316484D02*
X-2244223Y-3316484D01*
X-2044223Y-3316484D02*
X-2044223Y-3183150D01*
X-2044223Y-3221246D02*
X-2034699Y-3202198D01*
X-2034699Y-3202198D02*
X-2025176Y-3192674D01*
X-2025176Y-3192674D02*
X-2006128Y-3183150D01*
X-2006128Y-3183150D02*
X-1987080Y-3183150D01*
X-1920414Y-3316484D02*
X-1920414Y-3183150D01*
X-1920414Y-3116484D02*
X-1929937Y-3126008D01*
X-1929937Y-3126008D02*
X-1920414Y-3135531D01*
X-1920414Y-3135531D02*
X-1910890Y-3126008D01*
X-1910890Y-3126008D02*
X-1920414Y-3116484D01*
X-1920414Y-3116484D02*
X-1920414Y-3135531D01*
X-1796604Y-3316484D02*
X-1815652Y-3306960D01*
X-1815652Y-3306960D02*
X-1825176Y-3287912D01*
X-1825176Y-3287912D02*
X-1825176Y-3116484D01*
X-1691842Y-3316484D02*
X-1710890Y-3306960D01*
X-1710890Y-3306960D02*
X-1720414Y-3287912D01*
X-1720414Y-3287912D02*
X-1720414Y-3116484D01*
X-1463271Y-3316484D02*
X-1463271Y-3116484D01*
X-1463271Y-3116484D02*
X-1396604Y-3259341D01*
X-1396604Y-3259341D02*
X-1329938Y-3116484D01*
X-1329938Y-3116484D02*
X-1329938Y-3316484D01*
X-1148985Y-3316484D02*
X-1148985Y-3211722D01*
X-1148985Y-3211722D02*
X-1158509Y-3192674D01*
X-1158509Y-3192674D02*
X-1177557Y-3183150D01*
X-1177557Y-3183150D02*
X-1215652Y-3183150D01*
X-1215652Y-3183150D02*
X-1234699Y-3192674D01*
X-1148985Y-3306960D02*
X-1168033Y-3316484D01*
X-1168033Y-3316484D02*
X-1215652Y-3316484D01*
X-1215652Y-3316484D02*
X-1234699Y-3306960D01*
X-1234699Y-3306960D02*
X-1244223Y-3287912D01*
X-1244223Y-3287912D02*
X-1244223Y-3268865D01*
X-1244223Y-3268865D02*
X-1234699Y-3249817D01*
X-1234699Y-3249817D02*
X-1215652Y-3240293D01*
X-1215652Y-3240293D02*
X-1168033Y-3240293D01*
X-1168033Y-3240293D02*
X-1148985Y-3230769D01*
X-1053747Y-3183150D02*
X-1053747Y-3383150D01*
X-1053747Y-3192674D02*
X-1034699Y-3183150D01*
X-1034699Y-3183150D02*
X-996604Y-3183150D01*
X-996604Y-3183150D02*
X-977556Y-3192674D01*
X-977556Y-3192674D02*
X-968033Y-3202198D01*
X-968033Y-3202198D02*
X-958509Y-3221246D01*
X-958509Y-3221246D02*
X-958509Y-3278388D01*
X-958509Y-3278388D02*
X-968033Y-3297436D01*
X-968033Y-3297436D02*
X-977556Y-3306960D01*
X-977556Y-3306960D02*
X-996604Y-3316484D01*
X-996604Y-3316484D02*
X-1034699Y-3316484D01*
X-1034699Y-3316484D02*
X-1053747Y-3306960D01*
X-872795Y-3297436D02*
X-863271Y-3306960D01*
X-863271Y-3306960D02*
X-872795Y-3316484D01*
X-872795Y-3316484D02*
X-882318Y-3306960D01*
X-882318Y-3306960D02*
X-872795Y-3297436D01*
X-872795Y-3297436D02*
X-872795Y-3316484D01*
X-872795Y-3192674D02*
X-863271Y-3202198D01*
X-863271Y-3202198D02*
X-872795Y-3211722D01*
X-872795Y-3211722D02*
X-882318Y-3202198D01*
X-882318Y-3202198D02*
X-872795Y-3192674D01*
X-872795Y-3192674D02*
X-872795Y-3211722D01*
D10*
X-2605000Y-3595000D02*
X-2505000Y-3695000D01*
X-2505000Y-3595000D02*
X-2605000Y-3695000D01*
D11*
X-2139461Y-3736484D02*
X-2253747Y-3736484D01*
X-2196604Y-3736484D02*
X-2196604Y-3536484D01*
X-2196604Y-3536484D02*
X-2215652Y-3565055D01*
X-2215652Y-3565055D02*
X-2234699Y-3584103D01*
X-2234699Y-3584103D02*
X-2253747Y-3593627D01*
X-2053747Y-3717436D02*
X-2044223Y-3726960D01*
X-2044223Y-3726960D02*
X-2053747Y-3736484D01*
X-2053747Y-3736484D02*
X-2063271Y-3726960D01*
X-2063271Y-3726960D02*
X-2053747Y-3717436D01*
X-2053747Y-3717436D02*
X-2053747Y-3736484D01*
X-1920414Y-3536484D02*
X-1901366Y-3536484D01*
X-1901366Y-3536484D02*
X-1882318Y-3546008D01*
X-1882318Y-3546008D02*
X-1872795Y-3555531D01*
X-1872795Y-3555531D02*
X-1863271Y-3574579D01*
X-1863271Y-3574579D02*
X-1853747Y-3612674D01*
X-1853747Y-3612674D02*
X-1853747Y-3660293D01*
X-1853747Y-3660293D02*
X-1863271Y-3698388D01*
X-1863271Y-3698388D02*
X-1872795Y-3717436D01*
X-1872795Y-3717436D02*
X-1882318Y-3726960D01*
X-1882318Y-3726960D02*
X-1901366Y-3736484D01*
X-1901366Y-3736484D02*
X-1920414Y-3736484D01*
X-1920414Y-3736484D02*
X-1939461Y-3726960D01*
X-1939461Y-3726960D02*
X-1948985Y-3717436D01*
X-1948985Y-3717436D02*
X-1958509Y-3698388D01*
X-1958509Y-3698388D02*
X-1968033Y-3660293D01*
X-1968033Y-3660293D02*
X-1968033Y-3612674D01*
X-1968033Y-3612674D02*
X-1958509Y-3574579D01*
X-1958509Y-3574579D02*
X-1948985Y-3555531D01*
X-1948985Y-3555531D02*
X-1939461Y-3546008D01*
X-1939461Y-3546008D02*
X-1920414Y-3536484D01*
X-1729937Y-3536484D02*
X-1710890Y-3536484D01*
X-1710890Y-3536484D02*
X-1691842Y-3546008D01*
X-1691842Y-3546008D02*
X-1682318Y-3555531D01*
X-1682318Y-3555531D02*
X-1672795Y-3574579D01*
X-1672795Y-3574579D02*
X-1663271Y-3612674D01*
X-1663271Y-3612674D02*
X-1663271Y-3660293D01*
X-1663271Y-3660293D02*
X-1672795Y-3698388D01*
X-1672795Y-3698388D02*
X-1682318Y-3717436D01*
X-1682318Y-3717436D02*
X-1691842Y-3726960D01*
X-1691842Y-3726960D02*
X-1710890Y-3736484D01*
X-1710890Y-3736484D02*
X-1729937Y-3736484D01*
X-1729937Y-3736484D02*
X-1748985Y-3726960D01*
X-1748985Y-3726960D02*
X-1758509Y-3717436D01*
X-1758509Y-3717436D02*
X-1768033Y-3698388D01*
X-1768033Y-3698388D02*
X-1777556Y-3660293D01*
X-1777556Y-3660293D02*
X-1777556Y-3612674D01*
X-1777556Y-3612674D02*
X-1768033Y-3574579D01*
X-1768033Y-3574579D02*
X-1758509Y-3555531D01*
X-1758509Y-3555531D02*
X-1748985Y-3546008D01*
X-1748985Y-3546008D02*
X-1729937Y-3536484D01*
X-1539461Y-3536484D02*
X-1520414Y-3536484D01*
X-1520414Y-3536484D02*
X-1501366Y-3546008D01*
X-1501366Y-3546008D02*
X-1491842Y-3555531D01*
X-1491842Y-3555531D02*
X-1482318Y-3574579D01*
X-1482318Y-3574579D02*
X-1472795Y-3612674D01*
X-1472795Y-3612674D02*
X-1472795Y-3660293D01*
X-1472795Y-3660293D02*
X-1482318Y-3698388D01*
X-1482318Y-3698388D02*
X-1491842Y-3717436D01*
X-1491842Y-3717436D02*
X-1501366Y-3726960D01*
X-1501366Y-3726960D02*
X-1520414Y-3736484D01*
X-1520414Y-3736484D02*
X-1539461Y-3736484D01*
X-1539461Y-3736484D02*
X-1558509Y-3726960D01*
X-1558509Y-3726960D02*
X-1568033Y-3717436D01*
X-1568033Y-3717436D02*
X-1577556Y-3698388D01*
X-1577556Y-3698388D02*
X-1587080Y-3660293D01*
X-1587080Y-3660293D02*
X-1587080Y-3612674D01*
X-1587080Y-3612674D02*
X-1577556Y-3574579D01*
X-1577556Y-3574579D02*
X-1568033Y-3555531D01*
X-1568033Y-3555531D02*
X-1558509Y-3546008D01*
X-1558509Y-3546008D02*
X-1539461Y-3536484D01*
X-1387080Y-3736484D02*
X-1387080Y-3603150D01*
X-1387080Y-3622198D02*
X-1377557Y-3612674D01*
X-1377557Y-3612674D02*
X-1358509Y-3603150D01*
X-1358509Y-3603150D02*
X-1329937Y-3603150D01*
X-1329937Y-3603150D02*
X-1310890Y-3612674D01*
X-1310890Y-3612674D02*
X-1301366Y-3631722D01*
X-1301366Y-3631722D02*
X-1301366Y-3736484D01*
X-1301366Y-3631722D02*
X-1291842Y-3612674D01*
X-1291842Y-3612674D02*
X-1272795Y-3603150D01*
X-1272795Y-3603150D02*
X-1244223Y-3603150D01*
X-1244223Y-3603150D02*
X-1225176Y-3612674D01*
X-1225176Y-3612674D02*
X-1215652Y-3631722D01*
X-1215652Y-3631722D02*
X-1215652Y-3736484D01*
X-1120414Y-3736484D02*
X-1120414Y-3603150D01*
X-1120414Y-3622198D02*
X-1110890Y-3612674D01*
X-1110890Y-3612674D02*
X-1091842Y-3603150D01*
X-1091842Y-3603150D02*
X-1063271Y-3603150D01*
X-1063271Y-3603150D02*
X-1044223Y-3612674D01*
X-1044223Y-3612674D02*
X-1034699Y-3631722D01*
X-1034699Y-3631722D02*
X-1034699Y-3736484D01*
X-1034699Y-3631722D02*
X-1025175Y-3612674D01*
X-1025175Y-3612674D02*
X-1006128Y-3603150D01*
X-1006128Y-3603150D02*
X-977556Y-3603150D01*
X-977556Y-3603150D02*
X-958509Y-3612674D01*
X-958509Y-3612674D02*
X-948985Y-3631722D01*
X-948985Y-3631722D02*
X-948985Y-3736484D01*
X-558509Y-3526960D02*
X-729937Y-3784103D01*
X-301366Y-3536484D02*
X-282318Y-3536484D01*
X-282318Y-3536484D02*
X-263271Y-3546008D01*
X-263271Y-3546008D02*
X-253747Y-3555531D01*
X-253747Y-3555531D02*
X-244223Y-3574579D01*
X-244223Y-3574579D02*
X-234699Y-3612674D01*
X-234699Y-3612674D02*
X-234699Y-3660293D01*
X-234699Y-3660293D02*
X-244223Y-3698388D01*
X-244223Y-3698388D02*
X-253747Y-3717436D01*
X-253747Y-3717436D02*
X-263271Y-3726960D01*
X-263271Y-3726960D02*
X-282318Y-3736484D01*
X-282318Y-3736484D02*
X-301366Y-3736484D01*
X-301366Y-3736484D02*
X-320414Y-3726960D01*
X-320414Y-3726960D02*
X-329937Y-3717436D01*
X-329937Y-3717436D02*
X-339461Y-3698388D01*
X-339461Y-3698388D02*
X-348985Y-3660293D01*
X-348985Y-3660293D02*
X-348985Y-3612674D01*
X-348985Y-3612674D02*
X-339461Y-3574579D01*
X-339461Y-3574579D02*
X-329937Y-3555531D01*
X-329937Y-3555531D02*
X-320414Y-3546008D01*
X-320414Y-3546008D02*
X-301366Y-3536484D01*
X-148985Y-3717436D02*
X-139461Y-3726960D01*
X-139461Y-3726960D02*
X-148985Y-3736484D01*
X-148985Y-3736484D02*
X-158509Y-3726960D01*
X-158509Y-3726960D02*
X-148985Y-3717436D01*
X-148985Y-3717436D02*
X-148985Y-3736484D01*
X-15652Y-3536484D02*
X3396Y-3536484D01*
X3396Y-3536484D02*
X22444Y-3546008D01*
X22444Y-3546008D02*
X31967Y-3555531D01*
X31967Y-3555531D02*
X41491Y-3574579D01*
X41491Y-3574579D02*
X51015Y-3612674D01*
X51015Y-3612674D02*
X51015Y-3660293D01*
X51015Y-3660293D02*
X41491Y-3698388D01*
X41491Y-3698388D02*
X31967Y-3717436D01*
X31967Y-3717436D02*
X22444Y-3726960D01*
X22444Y-3726960D02*
X3396Y-3736484D01*
X3396Y-3736484D02*
X-15652Y-3736484D01*
X-15652Y-3736484D02*
X-34699Y-3726960D01*
X-34699Y-3726960D02*
X-44223Y-3717436D01*
X-44223Y-3717436D02*
X-53747Y-3698388D01*
X-53747Y-3698388D02*
X-63271Y-3660293D01*
X-63271Y-3660293D02*
X-63271Y-3612674D01*
X-63271Y-3612674D02*
X-53747Y-3574579D01*
X-53747Y-3574579D02*
X-44223Y-3555531D01*
X-44223Y-3555531D02*
X-34699Y-3546008D01*
X-34699Y-3546008D02*
X-15652Y-3536484D01*
X117682Y-3536484D02*
X241491Y-3536484D01*
X241491Y-3536484D02*
X174825Y-3612674D01*
X174825Y-3612674D02*
X203396Y-3612674D01*
X203396Y-3612674D02*
X222444Y-3622198D01*
X222444Y-3622198D02*
X231967Y-3631722D01*
X231967Y-3631722D02*
X241491Y-3650769D01*
X241491Y-3650769D02*
X241491Y-3698388D01*
X241491Y-3698388D02*
X231967Y-3717436D01*
X231967Y-3717436D02*
X222444Y-3726960D01*
X222444Y-3726960D02*
X203396Y-3736484D01*
X203396Y-3736484D02*
X146253Y-3736484D01*
X146253Y-3736484D02*
X127206Y-3726960D01*
X127206Y-3726960D02*
X117682Y-3717436D01*
X336729Y-3736484D02*
X374825Y-3736484D01*
X374825Y-3736484D02*
X393872Y-3726960D01*
X393872Y-3726960D02*
X403396Y-3717436D01*
X403396Y-3717436D02*
X422444Y-3688865D01*
X422444Y-3688865D02*
X431967Y-3650769D01*
X431967Y-3650769D02*
X431967Y-3574579D01*
X431967Y-3574579D02*
X422444Y-3555531D01*
X422444Y-3555531D02*
X412920Y-3546008D01*
X412920Y-3546008D02*
X393872Y-3536484D01*
X393872Y-3536484D02*
X355777Y-3536484D01*
X355777Y-3536484D02*
X336729Y-3546008D01*
X336729Y-3546008D02*
X327206Y-3555531D01*
X327206Y-3555531D02*
X317682Y-3574579D01*
X317682Y-3574579D02*
X317682Y-3622198D01*
X317682Y-3622198D02*
X327206Y-3641246D01*
X327206Y-3641246D02*
X336729Y-3650769D01*
X336729Y-3650769D02*
X355777Y-3660293D01*
X355777Y-3660293D02*
X393872Y-3660293D01*
X393872Y-3660293D02*
X412920Y-3650769D01*
X412920Y-3650769D02*
X422444Y-3641246D01*
X422444Y-3641246D02*
X431967Y-3622198D01*
X603396Y-3603150D02*
X603396Y-3736484D01*
X555777Y-3526960D02*
X508158Y-3669817D01*
X508158Y-3669817D02*
X631968Y-3669817D01*
X698634Y-3536484D02*
X698634Y-3574579D01*
X774825Y-3536484D02*
X774825Y-3574579D01*
X1070063Y-3812674D02*
X1060539Y-3803150D01*
X1060539Y-3803150D02*
X1041491Y-3774579D01*
X1041491Y-3774579D02*
X1031968Y-3755531D01*
X1031968Y-3755531D02*
X1022444Y-3726960D01*
X1022444Y-3726960D02*
X1012920Y-3679341D01*
X1012920Y-3679341D02*
X1012920Y-3641246D01*
X1012920Y-3641246D02*
X1022444Y-3593627D01*
X1022444Y-3593627D02*
X1031968Y-3565055D01*
X1031968Y-3565055D02*
X1041491Y-3546008D01*
X1041491Y-3546008D02*
X1060539Y-3517436D01*
X1060539Y-3517436D02*
X1070063Y-3507912D01*
X1136730Y-3555531D02*
X1146253Y-3546008D01*
X1146253Y-3546008D02*
X1165301Y-3536484D01*
X1165301Y-3536484D02*
X1212920Y-3536484D01*
X1212920Y-3536484D02*
X1231968Y-3546008D01*
X1231968Y-3546008D02*
X1241491Y-3555531D01*
X1241491Y-3555531D02*
X1251015Y-3574579D01*
X1251015Y-3574579D02*
X1251015Y-3593627D01*
X1251015Y-3593627D02*
X1241491Y-3622198D01*
X1241491Y-3622198D02*
X1127206Y-3736484D01*
X1127206Y-3736484D02*
X1251015Y-3736484D01*
X1489110Y-3736484D02*
X1489110Y-3536484D01*
X1574825Y-3736484D02*
X1574825Y-3631722D01*
X1574825Y-3631722D02*
X1565301Y-3612674D01*
X1565301Y-3612674D02*
X1546253Y-3603150D01*
X1546253Y-3603150D02*
X1517682Y-3603150D01*
X1517682Y-3603150D02*
X1498634Y-3612674D01*
X1498634Y-3612674D02*
X1489110Y-3622198D01*
X1698634Y-3736484D02*
X1679587Y-3726960D01*
X1679587Y-3726960D02*
X1670063Y-3717436D01*
X1670063Y-3717436D02*
X1660539Y-3698388D01*
X1660539Y-3698388D02*
X1660539Y-3641246D01*
X1660539Y-3641246D02*
X1670063Y-3622198D01*
X1670063Y-3622198D02*
X1679587Y-3612674D01*
X1679587Y-3612674D02*
X1698634Y-3603150D01*
X1698634Y-3603150D02*
X1727206Y-3603150D01*
X1727206Y-3603150D02*
X1746253Y-3612674D01*
X1746253Y-3612674D02*
X1755777Y-3622198D01*
X1755777Y-3622198D02*
X1765301Y-3641246D01*
X1765301Y-3641246D02*
X1765301Y-3698388D01*
X1765301Y-3698388D02*
X1755777Y-3717436D01*
X1755777Y-3717436D02*
X1746253Y-3726960D01*
X1746253Y-3726960D02*
X1727206Y-3736484D01*
X1727206Y-3736484D02*
X1698634Y-3736484D01*
X1879587Y-3736484D02*
X1860539Y-3726960D01*
X1860539Y-3726960D02*
X1851015Y-3707912D01*
X1851015Y-3707912D02*
X1851015Y-3536484D01*
X2031968Y-3726960D02*
X2012920Y-3736484D01*
X2012920Y-3736484D02*
X1974825Y-3736484D01*
X1974825Y-3736484D02*
X1955777Y-3726960D01*
X1955777Y-3726960D02*
X1946253Y-3707912D01*
X1946253Y-3707912D02*
X1946253Y-3631722D01*
X1946253Y-3631722D02*
X1955777Y-3612674D01*
X1955777Y-3612674D02*
X1974825Y-3603150D01*
X1974825Y-3603150D02*
X2012920Y-3603150D01*
X2012920Y-3603150D02*
X2031968Y-3612674D01*
X2031968Y-3612674D02*
X2041491Y-3631722D01*
X2041491Y-3631722D02*
X2041491Y-3650769D01*
X2041491Y-3650769D02*
X1946253Y-3669817D01*
X2117682Y-3726960D02*
X2136730Y-3736484D01*
X2136730Y-3736484D02*
X2174825Y-3736484D01*
X2174825Y-3736484D02*
X2193873Y-3726960D01*
X2193873Y-3726960D02*
X2203396Y-3707912D01*
X2203396Y-3707912D02*
X2203396Y-3698388D01*
X2203396Y-3698388D02*
X2193873Y-3679341D01*
X2193873Y-3679341D02*
X2174825Y-3669817D01*
X2174825Y-3669817D02*
X2146253Y-3669817D01*
X2146253Y-3669817D02*
X2127206Y-3660293D01*
X2127206Y-3660293D02*
X2117682Y-3641246D01*
X2117682Y-3641246D02*
X2117682Y-3631722D01*
X2117682Y-3631722D02*
X2127206Y-3612674D01*
X2127206Y-3612674D02*
X2146253Y-3603150D01*
X2146253Y-3603150D02*
X2174825Y-3603150D01*
X2174825Y-3603150D02*
X2193873Y-3612674D01*
X2270063Y-3812674D02*
X2279587Y-3803150D01*
X2279587Y-3803150D02*
X2298634Y-3774579D01*
X2298634Y-3774579D02*
X2308158Y-3755531D01*
X2308158Y-3755531D02*
X2317682Y-3726960D01*
X2317682Y-3726960D02*
X2327206Y-3679341D01*
X2327206Y-3679341D02*
X2327206Y-3641246D01*
X2327206Y-3641246D02*
X2317682Y-3593627D01*
X2317682Y-3593627D02*
X2308158Y-3565055D01*
X2308158Y-3565055D02*
X2298634Y-3546008D01*
X2298634Y-3546008D02*
X2279587Y-3517436D01*
X2279587Y-3517436D02*
X2270063Y-3507912D01*
X2631968Y-3812674D02*
X2622444Y-3803150D01*
X2622444Y-3803150D02*
X2603396Y-3774579D01*
X2603396Y-3774579D02*
X2593873Y-3755531D01*
X2593873Y-3755531D02*
X2584349Y-3726960D01*
X2584349Y-3726960D02*
X2574825Y-3679341D01*
X2574825Y-3679341D02*
X2574825Y-3641246D01*
X2574825Y-3641246D02*
X2584349Y-3593627D01*
X2584349Y-3593627D02*
X2593873Y-3565055D01*
X2593873Y-3565055D02*
X2603396Y-3546008D01*
X2603396Y-3546008D02*
X2622444Y-3517436D01*
X2622444Y-3517436D02*
X2631968Y-3507912D01*
X2708158Y-3603150D02*
X2708158Y-3736484D01*
X2708158Y-3622198D02*
X2717682Y-3612674D01*
X2717682Y-3612674D02*
X2736730Y-3603150D01*
X2736730Y-3603150D02*
X2765301Y-3603150D01*
X2765301Y-3603150D02*
X2784349Y-3612674D01*
X2784349Y-3612674D02*
X2793873Y-3631722D01*
X2793873Y-3631722D02*
X2793873Y-3736484D01*
X2917682Y-3736484D02*
X2898634Y-3726960D01*
X2898634Y-3726960D02*
X2889111Y-3717436D01*
X2889111Y-3717436D02*
X2879587Y-3698388D01*
X2879587Y-3698388D02*
X2879587Y-3641246D01*
X2879587Y-3641246D02*
X2889111Y-3622198D01*
X2889111Y-3622198D02*
X2898634Y-3612674D01*
X2898634Y-3612674D02*
X2917682Y-3603150D01*
X2917682Y-3603150D02*
X2946253Y-3603150D01*
X2946253Y-3603150D02*
X2965301Y-3612674D01*
X2965301Y-3612674D02*
X2974825Y-3622198D01*
X2974825Y-3622198D02*
X2984349Y-3641246D01*
X2984349Y-3641246D02*
X2984349Y-3698388D01*
X2984349Y-3698388D02*
X2974825Y-3717436D01*
X2974825Y-3717436D02*
X2965301Y-3726960D01*
X2965301Y-3726960D02*
X2946253Y-3736484D01*
X2946253Y-3736484D02*
X2917682Y-3736484D01*
X3041492Y-3603150D02*
X3117682Y-3603150D01*
X3070063Y-3536484D02*
X3070063Y-3707912D01*
X3070063Y-3707912D02*
X3079587Y-3726960D01*
X3079587Y-3726960D02*
X3098634Y-3736484D01*
X3098634Y-3736484D02*
X3117682Y-3736484D01*
X3336730Y-3603150D02*
X3336730Y-3803150D01*
X3336730Y-3612674D02*
X3355777Y-3603150D01*
X3355777Y-3603150D02*
X3393873Y-3603150D01*
X3393873Y-3603150D02*
X3412920Y-3612674D01*
X3412920Y-3612674D02*
X3422444Y-3622198D01*
X3422444Y-3622198D02*
X3431968Y-3641246D01*
X3431968Y-3641246D02*
X3431968Y-3698388D01*
X3431968Y-3698388D02*
X3422444Y-3717436D01*
X3422444Y-3717436D02*
X3412920Y-3726960D01*
X3412920Y-3726960D02*
X3393873Y-3736484D01*
X3393873Y-3736484D02*
X3355777Y-3736484D01*
X3355777Y-3736484D02*
X3336730Y-3726960D01*
X3546253Y-3736484D02*
X3527206Y-3726960D01*
X3527206Y-3726960D02*
X3517682Y-3707912D01*
X3517682Y-3707912D02*
X3517682Y-3536484D01*
X3708158Y-3736484D02*
X3708158Y-3631722D01*
X3708158Y-3631722D02*
X3698634Y-3612674D01*
X3698634Y-3612674D02*
X3679587Y-3603150D01*
X3679587Y-3603150D02*
X3641492Y-3603150D01*
X3641492Y-3603150D02*
X3622444Y-3612674D01*
X3708158Y-3726960D02*
X3689111Y-3736484D01*
X3689111Y-3736484D02*
X3641492Y-3736484D01*
X3641492Y-3736484D02*
X3622444Y-3726960D01*
X3622444Y-3726960D02*
X3612920Y-3707912D01*
X3612920Y-3707912D02*
X3612920Y-3688865D01*
X3612920Y-3688865D02*
X3622444Y-3669817D01*
X3622444Y-3669817D02*
X3641492Y-3660293D01*
X3641492Y-3660293D02*
X3689111Y-3660293D01*
X3689111Y-3660293D02*
X3708158Y-3650769D01*
X3774825Y-3603150D02*
X3851015Y-3603150D01*
X3803396Y-3536484D02*
X3803396Y-3707912D01*
X3803396Y-3707912D02*
X3812920Y-3726960D01*
X3812920Y-3726960D02*
X3831968Y-3736484D01*
X3831968Y-3736484D02*
X3851015Y-3736484D01*
X3993873Y-3726960D02*
X3974825Y-3736484D01*
X3974825Y-3736484D02*
X3936730Y-3736484D01*
X3936730Y-3736484D02*
X3917682Y-3726960D01*
X3917682Y-3726960D02*
X3908158Y-3707912D01*
X3908158Y-3707912D02*
X3908158Y-3631722D01*
X3908158Y-3631722D02*
X3917682Y-3612674D01*
X3917682Y-3612674D02*
X3936730Y-3603150D01*
X3936730Y-3603150D02*
X3974825Y-3603150D01*
X3974825Y-3603150D02*
X3993873Y-3612674D01*
X3993873Y-3612674D02*
X4003396Y-3631722D01*
X4003396Y-3631722D02*
X4003396Y-3650769D01*
X4003396Y-3650769D02*
X3908158Y-3669817D01*
X4174825Y-3736484D02*
X4174825Y-3536484D01*
X4174825Y-3726960D02*
X4155777Y-3736484D01*
X4155777Y-3736484D02*
X4117682Y-3736484D01*
X4117682Y-3736484D02*
X4098634Y-3726960D01*
X4098634Y-3726960D02*
X4089111Y-3717436D01*
X4089111Y-3717436D02*
X4079587Y-3698388D01*
X4079587Y-3698388D02*
X4079587Y-3641246D01*
X4079587Y-3641246D02*
X4089111Y-3622198D01*
X4089111Y-3622198D02*
X4098634Y-3612674D01*
X4098634Y-3612674D02*
X4117682Y-3603150D01*
X4117682Y-3603150D02*
X4155777Y-3603150D01*
X4155777Y-3603150D02*
X4174825Y-3612674D01*
X4251016Y-3812674D02*
X4260539Y-3803150D01*
X4260539Y-3803150D02*
X4279587Y-3774579D01*
X4279587Y-3774579D02*
X4289111Y-3755531D01*
X4289111Y-3755531D02*
X4298635Y-3726960D01*
X4298635Y-3726960D02*
X4308158Y-3679341D01*
X4308158Y-3679341D02*
X4308158Y-3641246D01*
X4308158Y-3641246D02*
X4298635Y-3593627D01*
X4298635Y-3593627D02*
X4289111Y-3565055D01*
X4289111Y-3565055D02*
X4279587Y-3546008D01*
X4279587Y-3546008D02*
X4260539Y-3517436D01*
X4260539Y-3517436D02*
X4251016Y-3507912D01*
X-2505000Y-3909000D02*
G75*
G03*
X-2505000Y-3909000I-100000J0D01*
G01*
X-2253747Y-3819531D02*
X-2244223Y-3810008D01*
X-2244223Y-3810008D02*
X-2225176Y-3800484D01*
X-2225176Y-3800484D02*
X-2177557Y-3800484D01*
X-2177557Y-3800484D02*
X-2158509Y-3810008D01*
X-2158509Y-3810008D02*
X-2148985Y-3819531D01*
X-2148985Y-3819531D02*
X-2139461Y-3838579D01*
X-2139461Y-3838579D02*
X-2139461Y-3857627D01*
X-2139461Y-3857627D02*
X-2148985Y-3886198D01*
X-2148985Y-3886198D02*
X-2263271Y-4000484D01*
X-2263271Y-4000484D02*
X-2139461Y-4000484D01*
X-2053747Y-3981436D02*
X-2044223Y-3990960D01*
X-2044223Y-3990960D02*
X-2053747Y-4000484D01*
X-2053747Y-4000484D02*
X-2063271Y-3990960D01*
X-2063271Y-3990960D02*
X-2053747Y-3981436D01*
X-2053747Y-3981436D02*
X-2053747Y-4000484D01*
X-1977556Y-3800484D02*
X-1844223Y-3800484D01*
X-1844223Y-3800484D02*
X-1929937Y-4000484D01*
X-1729937Y-3800484D02*
X-1710890Y-3800484D01*
X-1710890Y-3800484D02*
X-1691842Y-3810008D01*
X-1691842Y-3810008D02*
X-1682318Y-3819531D01*
X-1682318Y-3819531D02*
X-1672795Y-3838579D01*
X-1672795Y-3838579D02*
X-1663271Y-3876674D01*
X-1663271Y-3876674D02*
X-1663271Y-3924293D01*
X-1663271Y-3924293D02*
X-1672795Y-3962388D01*
X-1672795Y-3962388D02*
X-1682318Y-3981436D01*
X-1682318Y-3981436D02*
X-1691842Y-3990960D01*
X-1691842Y-3990960D02*
X-1710890Y-4000484D01*
X-1710890Y-4000484D02*
X-1729937Y-4000484D01*
X-1729937Y-4000484D02*
X-1748985Y-3990960D01*
X-1748985Y-3990960D02*
X-1758509Y-3981436D01*
X-1758509Y-3981436D02*
X-1768033Y-3962388D01*
X-1768033Y-3962388D02*
X-1777556Y-3924293D01*
X-1777556Y-3924293D02*
X-1777556Y-3876674D01*
X-1777556Y-3876674D02*
X-1768033Y-3838579D01*
X-1768033Y-3838579D02*
X-1758509Y-3819531D01*
X-1758509Y-3819531D02*
X-1748985Y-3810008D01*
X-1748985Y-3810008D02*
X-1729937Y-3800484D01*
X-1539461Y-3800484D02*
X-1520414Y-3800484D01*
X-1520414Y-3800484D02*
X-1501366Y-3810008D01*
X-1501366Y-3810008D02*
X-1491842Y-3819531D01*
X-1491842Y-3819531D02*
X-1482318Y-3838579D01*
X-1482318Y-3838579D02*
X-1472795Y-3876674D01*
X-1472795Y-3876674D02*
X-1472795Y-3924293D01*
X-1472795Y-3924293D02*
X-1482318Y-3962388D01*
X-1482318Y-3962388D02*
X-1491842Y-3981436D01*
X-1491842Y-3981436D02*
X-1501366Y-3990960D01*
X-1501366Y-3990960D02*
X-1520414Y-4000484D01*
X-1520414Y-4000484D02*
X-1539461Y-4000484D01*
X-1539461Y-4000484D02*
X-1558509Y-3990960D01*
X-1558509Y-3990960D02*
X-1568033Y-3981436D01*
X-1568033Y-3981436D02*
X-1577556Y-3962388D01*
X-1577556Y-3962388D02*
X-1587080Y-3924293D01*
X-1587080Y-3924293D02*
X-1587080Y-3876674D01*
X-1587080Y-3876674D02*
X-1577556Y-3838579D01*
X-1577556Y-3838579D02*
X-1568033Y-3819531D01*
X-1568033Y-3819531D02*
X-1558509Y-3810008D01*
X-1558509Y-3810008D02*
X-1539461Y-3800484D01*
X-1387080Y-4000484D02*
X-1387080Y-3867150D01*
X-1387080Y-3886198D02*
X-1377557Y-3876674D01*
X-1377557Y-3876674D02*
X-1358509Y-3867150D01*
X-1358509Y-3867150D02*
X-1329937Y-3867150D01*
X-1329937Y-3867150D02*
X-1310890Y-3876674D01*
X-1310890Y-3876674D02*
X-1301366Y-3895722D01*
X-1301366Y-3895722D02*
X-1301366Y-4000484D01*
X-1301366Y-3895722D02*
X-1291842Y-3876674D01*
X-1291842Y-3876674D02*
X-1272795Y-3867150D01*
X-1272795Y-3867150D02*
X-1244223Y-3867150D01*
X-1244223Y-3867150D02*
X-1225176Y-3876674D01*
X-1225176Y-3876674D02*
X-1215652Y-3895722D01*
X-1215652Y-3895722D02*
X-1215652Y-4000484D01*
X-1120414Y-4000484D02*
X-1120414Y-3867150D01*
X-1120414Y-3886198D02*
X-1110890Y-3876674D01*
X-1110890Y-3876674D02*
X-1091842Y-3867150D01*
X-1091842Y-3867150D02*
X-1063271Y-3867150D01*
X-1063271Y-3867150D02*
X-1044223Y-3876674D01*
X-1044223Y-3876674D02*
X-1034699Y-3895722D01*
X-1034699Y-3895722D02*
X-1034699Y-4000484D01*
X-1034699Y-3895722D02*
X-1025175Y-3876674D01*
X-1025175Y-3876674D02*
X-1006128Y-3867150D01*
X-1006128Y-3867150D02*
X-977556Y-3867150D01*
X-977556Y-3867150D02*
X-958509Y-3876674D01*
X-958509Y-3876674D02*
X-948985Y-3895722D01*
X-948985Y-3895722D02*
X-948985Y-4000484D01*
X-558509Y-3790960D02*
X-729937Y-4048103D01*
X-301366Y-3800484D02*
X-282318Y-3800484D01*
X-282318Y-3800484D02*
X-263271Y-3810008D01*
X-263271Y-3810008D02*
X-253747Y-3819531D01*
X-253747Y-3819531D02*
X-244223Y-3838579D01*
X-244223Y-3838579D02*
X-234699Y-3876674D01*
X-234699Y-3876674D02*
X-234699Y-3924293D01*
X-234699Y-3924293D02*
X-244223Y-3962388D01*
X-244223Y-3962388D02*
X-253747Y-3981436D01*
X-253747Y-3981436D02*
X-263271Y-3990960D01*
X-263271Y-3990960D02*
X-282318Y-4000484D01*
X-282318Y-4000484D02*
X-301366Y-4000484D01*
X-301366Y-4000484D02*
X-320414Y-3990960D01*
X-320414Y-3990960D02*
X-329937Y-3981436D01*
X-329937Y-3981436D02*
X-339461Y-3962388D01*
X-339461Y-3962388D02*
X-348985Y-3924293D01*
X-348985Y-3924293D02*
X-348985Y-3876674D01*
X-348985Y-3876674D02*
X-339461Y-3838579D01*
X-339461Y-3838579D02*
X-329937Y-3819531D01*
X-329937Y-3819531D02*
X-320414Y-3810008D01*
X-320414Y-3810008D02*
X-301366Y-3800484D01*
X-148985Y-3981436D02*
X-139461Y-3990960D01*
X-139461Y-3990960D02*
X-148985Y-4000484D01*
X-148985Y-4000484D02*
X-158509Y-3990960D01*
X-158509Y-3990960D02*
X-148985Y-3981436D01*
X-148985Y-3981436D02*
X-148985Y-4000484D01*
X51015Y-4000484D02*
X-63271Y-4000484D01*
X-6128Y-4000484D02*
X-6128Y-3800484D01*
X-6128Y-3800484D02*
X-25175Y-3829055D01*
X-25175Y-3829055D02*
X-44223Y-3848103D01*
X-44223Y-3848103D02*
X-63271Y-3857627D01*
X174825Y-3800484D02*
X193872Y-3800484D01*
X193872Y-3800484D02*
X212920Y-3810008D01*
X212920Y-3810008D02*
X222444Y-3819531D01*
X222444Y-3819531D02*
X231967Y-3838579D01*
X231967Y-3838579D02*
X241491Y-3876674D01*
X241491Y-3876674D02*
X241491Y-3924293D01*
X241491Y-3924293D02*
X231967Y-3962388D01*
X231967Y-3962388D02*
X222444Y-3981436D01*
X222444Y-3981436D02*
X212920Y-3990960D01*
X212920Y-3990960D02*
X193872Y-4000484D01*
X193872Y-4000484D02*
X174825Y-4000484D01*
X174825Y-4000484D02*
X155777Y-3990960D01*
X155777Y-3990960D02*
X146253Y-3981436D01*
X146253Y-3981436D02*
X136729Y-3962388D01*
X136729Y-3962388D02*
X127206Y-3924293D01*
X127206Y-3924293D02*
X127206Y-3876674D01*
X127206Y-3876674D02*
X136729Y-3838579D01*
X136729Y-3838579D02*
X146253Y-3819531D01*
X146253Y-3819531D02*
X155777Y-3810008D01*
X155777Y-3810008D02*
X174825Y-3800484D01*
X412920Y-3800484D02*
X374825Y-3800484D01*
X374825Y-3800484D02*
X355777Y-3810008D01*
X355777Y-3810008D02*
X346253Y-3819531D01*
X346253Y-3819531D02*
X327206Y-3848103D01*
X327206Y-3848103D02*
X317682Y-3886198D01*
X317682Y-3886198D02*
X317682Y-3962388D01*
X317682Y-3962388D02*
X327206Y-3981436D01*
X327206Y-3981436D02*
X336729Y-3990960D01*
X336729Y-3990960D02*
X355777Y-4000484D01*
X355777Y-4000484D02*
X393872Y-4000484D01*
X393872Y-4000484D02*
X412920Y-3990960D01*
X412920Y-3990960D02*
X422444Y-3981436D01*
X422444Y-3981436D02*
X431967Y-3962388D01*
X431967Y-3962388D02*
X431967Y-3914769D01*
X431967Y-3914769D02*
X422444Y-3895722D01*
X422444Y-3895722D02*
X412920Y-3886198D01*
X412920Y-3886198D02*
X393872Y-3876674D01*
X393872Y-3876674D02*
X355777Y-3876674D01*
X355777Y-3876674D02*
X336729Y-3886198D01*
X336729Y-3886198D02*
X327206Y-3895722D01*
X327206Y-3895722D02*
X317682Y-3914769D01*
X498634Y-3800484D02*
X622444Y-3800484D01*
X622444Y-3800484D02*
X555777Y-3876674D01*
X555777Y-3876674D02*
X584349Y-3876674D01*
X584349Y-3876674D02*
X603396Y-3886198D01*
X603396Y-3886198D02*
X612920Y-3895722D01*
X612920Y-3895722D02*
X622444Y-3914769D01*
X622444Y-3914769D02*
X622444Y-3962388D01*
X622444Y-3962388D02*
X612920Y-3981436D01*
X612920Y-3981436D02*
X603396Y-3990960D01*
X603396Y-3990960D02*
X584349Y-4000484D01*
X584349Y-4000484D02*
X527206Y-4000484D01*
X527206Y-4000484D02*
X508158Y-3990960D01*
X508158Y-3990960D02*
X498634Y-3981436D01*
X698634Y-3800484D02*
X698634Y-3838579D01*
X774825Y-3800484D02*
X774825Y-3838579D01*
X1070063Y-4076674D02*
X1060539Y-4067150D01*
X1060539Y-4067150D02*
X1041491Y-4038579D01*
X1041491Y-4038579D02*
X1031968Y-4019531D01*
X1031968Y-4019531D02*
X1022444Y-3990960D01*
X1022444Y-3990960D02*
X1012920Y-3943341D01*
X1012920Y-3943341D02*
X1012920Y-3905246D01*
X1012920Y-3905246D02*
X1022444Y-3857627D01*
X1022444Y-3857627D02*
X1031968Y-3829055D01*
X1031968Y-3829055D02*
X1041491Y-3810008D01*
X1041491Y-3810008D02*
X1060539Y-3781436D01*
X1060539Y-3781436D02*
X1070063Y-3771912D01*
X1231968Y-3867150D02*
X1231968Y-4000484D01*
X1184349Y-3790960D02*
X1136730Y-3933817D01*
X1136730Y-3933817D02*
X1260539Y-3933817D01*
X1489110Y-4000484D02*
X1489110Y-3800484D01*
X1574825Y-4000484D02*
X1574825Y-3895722D01*
X1574825Y-3895722D02*
X1565301Y-3876674D01*
X1565301Y-3876674D02*
X1546253Y-3867150D01*
X1546253Y-3867150D02*
X1517682Y-3867150D01*
X1517682Y-3867150D02*
X1498634Y-3876674D01*
X1498634Y-3876674D02*
X1489110Y-3886198D01*
X1698634Y-4000484D02*
X1679587Y-3990960D01*
X1679587Y-3990960D02*
X1670063Y-3981436D01*
X1670063Y-3981436D02*
X1660539Y-3962388D01*
X1660539Y-3962388D02*
X1660539Y-3905246D01*
X1660539Y-3905246D02*
X1670063Y-3886198D01*
X1670063Y-3886198D02*
X1679587Y-3876674D01*
X1679587Y-3876674D02*
X1698634Y-3867150D01*
X1698634Y-3867150D02*
X1727206Y-3867150D01*
X1727206Y-3867150D02*
X1746253Y-3876674D01*
X1746253Y-3876674D02*
X1755777Y-3886198D01*
X1755777Y-3886198D02*
X1765301Y-3905246D01*
X1765301Y-3905246D02*
X1765301Y-3962388D01*
X1765301Y-3962388D02*
X1755777Y-3981436D01*
X1755777Y-3981436D02*
X1746253Y-3990960D01*
X1746253Y-3990960D02*
X1727206Y-4000484D01*
X1727206Y-4000484D02*
X1698634Y-4000484D01*
X1879587Y-4000484D02*
X1860539Y-3990960D01*
X1860539Y-3990960D02*
X1851015Y-3971912D01*
X1851015Y-3971912D02*
X1851015Y-3800484D01*
X2031968Y-3990960D02*
X2012920Y-4000484D01*
X2012920Y-4000484D02*
X1974825Y-4000484D01*
X1974825Y-4000484D02*
X1955777Y-3990960D01*
X1955777Y-3990960D02*
X1946253Y-3971912D01*
X1946253Y-3971912D02*
X1946253Y-3895722D01*
X1946253Y-3895722D02*
X1955777Y-3876674D01*
X1955777Y-3876674D02*
X1974825Y-3867150D01*
X1974825Y-3867150D02*
X2012920Y-3867150D01*
X2012920Y-3867150D02*
X2031968Y-3876674D01*
X2031968Y-3876674D02*
X2041491Y-3895722D01*
X2041491Y-3895722D02*
X2041491Y-3914769D01*
X2041491Y-3914769D02*
X1946253Y-3933817D01*
X2117682Y-3990960D02*
X2136730Y-4000484D01*
X2136730Y-4000484D02*
X2174825Y-4000484D01*
X2174825Y-4000484D02*
X2193873Y-3990960D01*
X2193873Y-3990960D02*
X2203396Y-3971912D01*
X2203396Y-3971912D02*
X2203396Y-3962388D01*
X2203396Y-3962388D02*
X2193873Y-3943341D01*
X2193873Y-3943341D02*
X2174825Y-3933817D01*
X2174825Y-3933817D02*
X2146253Y-3933817D01*
X2146253Y-3933817D02*
X2127206Y-3924293D01*
X2127206Y-3924293D02*
X2117682Y-3905246D01*
X2117682Y-3905246D02*
X2117682Y-3895722D01*
X2117682Y-3895722D02*
X2127206Y-3876674D01*
X2127206Y-3876674D02*
X2146253Y-3867150D01*
X2146253Y-3867150D02*
X2174825Y-3867150D01*
X2174825Y-3867150D02*
X2193873Y-3876674D01*
X2270063Y-4076674D02*
X2279587Y-4067150D01*
X2279587Y-4067150D02*
X2298634Y-4038579D01*
X2298634Y-4038579D02*
X2308158Y-4019531D01*
X2308158Y-4019531D02*
X2317682Y-3990960D01*
X2317682Y-3990960D02*
X2327206Y-3943341D01*
X2327206Y-3943341D02*
X2327206Y-3905246D01*
X2327206Y-3905246D02*
X2317682Y-3857627D01*
X2317682Y-3857627D02*
X2308158Y-3829055D01*
X2308158Y-3829055D02*
X2298634Y-3810008D01*
X2298634Y-3810008D02*
X2279587Y-3781436D01*
X2279587Y-3781436D02*
X2270063Y-3771912D01*
X2631968Y-4076674D02*
X2622444Y-4067150D01*
X2622444Y-4067150D02*
X2603396Y-4038579D01*
X2603396Y-4038579D02*
X2593873Y-4019531D01*
X2593873Y-4019531D02*
X2584349Y-3990960D01*
X2584349Y-3990960D02*
X2574825Y-3943341D01*
X2574825Y-3943341D02*
X2574825Y-3905246D01*
X2574825Y-3905246D02*
X2584349Y-3857627D01*
X2584349Y-3857627D02*
X2593873Y-3829055D01*
X2593873Y-3829055D02*
X2603396Y-3810008D01*
X2603396Y-3810008D02*
X2622444Y-3781436D01*
X2622444Y-3781436D02*
X2631968Y-3771912D01*
X2708158Y-3867150D02*
X2708158Y-4000484D01*
X2708158Y-3886198D02*
X2717682Y-3876674D01*
X2717682Y-3876674D02*
X2736730Y-3867150D01*
X2736730Y-3867150D02*
X2765301Y-3867150D01*
X2765301Y-3867150D02*
X2784349Y-3876674D01*
X2784349Y-3876674D02*
X2793873Y-3895722D01*
X2793873Y-3895722D02*
X2793873Y-4000484D01*
X2917682Y-4000484D02*
X2898634Y-3990960D01*
X2898634Y-3990960D02*
X2889111Y-3981436D01*
X2889111Y-3981436D02*
X2879587Y-3962388D01*
X2879587Y-3962388D02*
X2879587Y-3905246D01*
X2879587Y-3905246D02*
X2889111Y-3886198D01*
X2889111Y-3886198D02*
X2898634Y-3876674D01*
X2898634Y-3876674D02*
X2917682Y-3867150D01*
X2917682Y-3867150D02*
X2946253Y-3867150D01*
X2946253Y-3867150D02*
X2965301Y-3876674D01*
X2965301Y-3876674D02*
X2974825Y-3886198D01*
X2974825Y-3886198D02*
X2984349Y-3905246D01*
X2984349Y-3905246D02*
X2984349Y-3962388D01*
X2984349Y-3962388D02*
X2974825Y-3981436D01*
X2974825Y-3981436D02*
X2965301Y-3990960D01*
X2965301Y-3990960D02*
X2946253Y-4000484D01*
X2946253Y-4000484D02*
X2917682Y-4000484D01*
X3041492Y-3867150D02*
X3117682Y-3867150D01*
X3070063Y-3800484D02*
X3070063Y-3971912D01*
X3070063Y-3971912D02*
X3079587Y-3990960D01*
X3079587Y-3990960D02*
X3098634Y-4000484D01*
X3098634Y-4000484D02*
X3117682Y-4000484D01*
X3336730Y-3867150D02*
X3336730Y-4067150D01*
X3336730Y-3876674D02*
X3355777Y-3867150D01*
X3355777Y-3867150D02*
X3393873Y-3867150D01*
X3393873Y-3867150D02*
X3412920Y-3876674D01*
X3412920Y-3876674D02*
X3422444Y-3886198D01*
X3422444Y-3886198D02*
X3431968Y-3905246D01*
X3431968Y-3905246D02*
X3431968Y-3962388D01*
X3431968Y-3962388D02*
X3422444Y-3981436D01*
X3422444Y-3981436D02*
X3412920Y-3990960D01*
X3412920Y-3990960D02*
X3393873Y-4000484D01*
X3393873Y-4000484D02*
X3355777Y-4000484D01*
X3355777Y-4000484D02*
X3336730Y-3990960D01*
X3546253Y-4000484D02*
X3527206Y-3990960D01*
X3527206Y-3990960D02*
X3517682Y-3971912D01*
X3517682Y-3971912D02*
X3517682Y-3800484D01*
X3708158Y-4000484D02*
X3708158Y-3895722D01*
X3708158Y-3895722D02*
X3698634Y-3876674D01*
X3698634Y-3876674D02*
X3679587Y-3867150D01*
X3679587Y-3867150D02*
X3641492Y-3867150D01*
X3641492Y-3867150D02*
X3622444Y-3876674D01*
X3708158Y-3990960D02*
X3689111Y-4000484D01*
X3689111Y-4000484D02*
X3641492Y-4000484D01*
X3641492Y-4000484D02*
X3622444Y-3990960D01*
X3622444Y-3990960D02*
X3612920Y-3971912D01*
X3612920Y-3971912D02*
X3612920Y-3952865D01*
X3612920Y-3952865D02*
X3622444Y-3933817D01*
X3622444Y-3933817D02*
X3641492Y-3924293D01*
X3641492Y-3924293D02*
X3689111Y-3924293D01*
X3689111Y-3924293D02*
X3708158Y-3914769D01*
X3774825Y-3867150D02*
X3851015Y-3867150D01*
X3803396Y-3800484D02*
X3803396Y-3971912D01*
X3803396Y-3971912D02*
X3812920Y-3990960D01*
X3812920Y-3990960D02*
X3831968Y-4000484D01*
X3831968Y-4000484D02*
X3851015Y-4000484D01*
X3993873Y-3990960D02*
X3974825Y-4000484D01*
X3974825Y-4000484D02*
X3936730Y-4000484D01*
X3936730Y-4000484D02*
X3917682Y-3990960D01*
X3917682Y-3990960D02*
X3908158Y-3971912D01*
X3908158Y-3971912D02*
X3908158Y-3895722D01*
X3908158Y-3895722D02*
X3917682Y-3876674D01*
X3917682Y-3876674D02*
X3936730Y-3867150D01*
X3936730Y-3867150D02*
X3974825Y-3867150D01*
X3974825Y-3867150D02*
X3993873Y-3876674D01*
X3993873Y-3876674D02*
X4003396Y-3895722D01*
X4003396Y-3895722D02*
X4003396Y-3914769D01*
X4003396Y-3914769D02*
X3908158Y-3933817D01*
X4174825Y-4000484D02*
X4174825Y-3800484D01*
X4174825Y-3990960D02*
X4155777Y-4000484D01*
X4155777Y-4000484D02*
X4117682Y-4000484D01*
X4117682Y-4000484D02*
X4098634Y-3990960D01*
X4098634Y-3990960D02*
X4089111Y-3981436D01*
X4089111Y-3981436D02*
X4079587Y-3962388D01*
X4079587Y-3962388D02*
X4079587Y-3905246D01*
X4079587Y-3905246D02*
X4089111Y-3886198D01*
X4089111Y-3886198D02*
X4098634Y-3876674D01*
X4098634Y-3876674D02*
X4117682Y-3867150D01*
X4117682Y-3867150D02*
X4155777Y-3867150D01*
X4155777Y-3867150D02*
X4174825Y-3876674D01*
X4251016Y-4076674D02*
X4260539Y-4067150D01*
X4260539Y-4067150D02*
X4279587Y-4038579D01*
X4279587Y-4038579D02*
X4289111Y-4019531D01*
X4289111Y-4019531D02*
X4298635Y-3990960D01*
X4298635Y-3990960D02*
X4308158Y-3943341D01*
X4308158Y-3943341D02*
X4308158Y-3905246D01*
X4308158Y-3905246D02*
X4298635Y-3857627D01*
X4298635Y-3857627D02*
X4289111Y-3829055D01*
X4289111Y-3829055D02*
X4279587Y-3810008D01*
X4279587Y-3810008D02*
X4260539Y-3781436D01*
X4260539Y-3781436D02*
X4251016Y-3771912D01*
M02*
